<svg width="128" height="129" viewBox="0 0 128 129" fill="none" xmlns="http://www.w3.org/2000/svg">
<path d="M105.7 84.9066L85.4001 91.8025C86.0001 90.8031 86.4001 89.7038 86.3001 88.4045C86.1001 85.6062 83.6001 83.5074 80.7001 83.5074H66.2001C60.6001 75.4121 45.3001 75.4121 45.3001 75.4121H33.1001V99.8978L61.9001 108.893C61.9001 108.893 70.6001 111.391 76.8001 108.893C82.1001 106.794 103.4 95.6003 110.1 92.0024C111.4 91.3028 113.2 89.304 112.2 87.0053C111.3 85.1064 109.8 83.8072 105.7 84.9066Z" fill="white"/>
<path d="M80.9001 97.1994H59.8C58.1 97.1994 56.8 95.9002 56.8 94.2012C56.8 92.5022 58.1 91.2029 59.8 91.2029H81.0001C82.3001 91.2029 83.4001 90.2035 83.4001 88.9043C83.4001 87.2052 84.7001 85.906 86.4001 85.906C88.1001 85.906 89.4001 87.2052 89.4001 88.9043C89.3001 93.5016 85.6001 97.1994 80.9001 97.1994Z" fill="#454B54"/>
<path d="M70.1001 112.99C65.3001 112.99 61.3001 111.791 61.0001 111.791L32.2001 102.796C30.9001 102.396 30.1001 101.197 30.1001 99.8978V75.512C30.1001 73.813 31.4001 72.5138 33.1001 72.5138H45.3001C46.0001 72.5138 60.7001 72.6137 67.6001 80.6091H80.7001C85.1001 80.6091 88.9001 83.9071 89.3001 88.2046C89.5001 90.1035 89.0001 91.8025 88.0001 93.4016C87.3001 94.501 85.9001 95.1006 84.6001 94.7008C83.7001 94.401 82.9001 93.7014 82.6001 92.8019C82.3001 91.9025 82.4001 90.9031 82.9001 90.1035C83.1001 89.8037 83.3001 89.304 83.3001 88.6044C83.2001 87.4051 82.0001 86.5056 80.7001 86.5056H66.2001C65.2001 86.5056 64.3001 86.0059 63.7001 85.2064C59.8001 79.6097 49.1001 78.4104 45.3001 78.4104H36.1001V97.5991L62.8001 105.894C62.8001 105.894 70.5001 108.093 75.7001 105.994C80.9001 103.895 102.3 92.6021 108.7 89.2041C108.8 89.1041 109.6 88.5045 109.4 88.1047C109.2 87.605 109 87.1053 106.6 87.7049L95.0001 91.6026C93.4001 92.1024 91.7001 91.3028 91.2001 89.7038C90.7001 88.1047 91.5001 86.4057 93.1001 85.906L104.7 82.0082H104.8C111.4 80.2093 113.9 83.6073 114.8 85.806C116.4 89.5039 114.2 93.1018 111.3 94.6009C103 98.9983 83.0001 109.492 77.8001 111.591C75.4001 112.59 72.6001 112.99 70.1001 112.99Z" fill="#454B54"/>
<path d="M30.1001 103.896C31.8001 103.896 33.1001 102.596 33.1001 100.897V74.8125C33.1001 73.1135 31.7001 71.7144 29.9001 71.7144H15.6001C15.2001 71.7144 15.6001 103.896 15.6001 103.896H30.1001Z" fill="white"/>
<path d="M30.1001 106.894H15.6001C13.9001 106.894 12.6001 105.595 12.6001 103.896C12.6001 102.197 13.9001 100.897 15.6001 100.897H30.1001V74.8125C30.1001 74.7126 30.0001 74.7126 29.9001 74.7126H15.6001C13.9001 74.7126 12.6001 73.4133 12.6001 71.7143C12.6001 70.0153 13.9001 68.7161 15.6001 68.7161H29.9001C33.3001 68.7161 36.1001 71.4145 36.1001 74.8125V100.897C36.1001 104.195 33.4001 106.894 30.1001 106.894Z" fill="#454B54"/>
<path d="M67.4 24.342C72 24.342 76.1 26.2409 79 29.2392C81.8 26.2409 86 24.342 90.6 24.342C99.1 24.342 106 30.7383 106 38.7336C106 43.231 103.8 47.2287 100.3 49.9271L79 65.518L58.1 50.127C54.4 47.5285 52 43.331 52 38.7336C52 30.7383 58.9 24.342 67.4 24.342Z" fill="#D65454"/>
<path d="M62 41.7318C60.3 41.7318 59 40.4326 59 38.7336C59 34.636 62.8 31.3379 67.4 31.3379C69.1 31.3379 70.4 32.6371 70.4 34.3361C70.4 36.0351 69.1 37.3344 67.4 37.3344C65.9 37.3344 65 38.2339 65 38.7336C65 40.3326 63.7 41.7318 62 41.7318Z" fill="white"/>
</svg>
