<svg width="128" height="128" viewBox="0 0 128 128" fill="none" xmlns="http://www.w3.org/2000/svg">
<path d="M37 76.9001H34C30.7 76.9001 28 74.2001 28 70.9001V56.9001C28 53.6001 30.7 50.9001 34 50.9001L34.1 48.1001C35.8 48.1001 37.1 49.4001 37.1 51.1001L37 76.9001Z" fill="#A4F4C4"/>
<path d="M91 76.8999H94C97.3 76.8999 100 74.1999 100 70.8999V56.8999C100 53.5999 97.3 50.8999 94 50.8999H91V76.8999Z" fill="#06A18C"/>
<path d="M74.2002 26.6L70.9002 25.5C68.7002 25 66.4002 24.7 64.1002 24.7C61.8002 24.7 59.5002 25 57.3002 25.5L54.0002 26.5C45.8002 29.6 40.2002 36.4 40.2002 44.2999C40.2002 44.4 88.1002 44.2999 88.1002 44.2999C88.0002 36.4999 82.3002 29.7 74.2002 26.6Z" fill="#8FE5B5"/>
<path d="M57.2998 28.5C56.4998 28.5 55.7998 28.2 55.1998 27.6L49.1998 21.6C47.9998 20.4 47.9998 18.5 49.1998 17.4C50.3998 16.2 52.2998 16.2 53.3998 17.4L59.3998 23.4C60.5998 24.6 60.5998 26.5 59.3998 27.6C58.7998 28.2 57.9998 28.5 57.2998 28.5Z" fill="#444B54"/>
<path d="M64.0998 24.7C62.8998 24.7 61.6998 24.8 60.4998 24.9C60.0998 25 59.6998 25 59.2998 25.1C73.4998 25.6 77.9998 36.4999 77.9998 44.2999C77.9998 44.2999 86.6998 44.2999 87.8998 44.2999C87.9998 44.2999 87.9998 44.2999 87.9998 44.2999C87.9998 43.7999 87.9998 43.2999 87.8998 42.7999C87.8998 42.2999 87.7998 41.8 87.6998 41.4C87.4998 40.5 87.2998 39.4999 86.8998 38.5999C86.3998 37.2999 85.6998 35.9999 84.8998 34.7999C83.6998 33.0999 82.1998 31.5 80.4998 30.1C78.6998 28.7 76.4998 27.5 74.1998 26.6L70.8998 25.5C68.6998 25 66.3998 24.7 64.0998 24.7Z" fill="#4AC3A0"/>
<path d="M56.5996 24.7999L52.0996 24.7C52.7996 24.7 55.7996 24.6999 56.5996 24.7999Z" fill="#8FE5B5"/>
<path d="M57.0002 38.7001C58.5466 38.7001 59.8002 37.4465 59.8002 35.9001C59.8002 34.3537 58.5466 33.1001 57.0002 33.1001C55.4538 33.1001 54.2002 34.3537 54.2002 35.9001C54.2002 37.4465 55.4538 38.7001 57.0002 38.7001Z" fill="white"/>
<path d="M71.0998 38.7001C72.6462 38.7001 73.8998 37.4465 73.8998 35.9001C73.8998 34.3537 72.6462 33.1001 71.0998 33.1001C69.5534 33.1001 68.2998 34.3537 68.2998 35.9001C68.2998 37.4465 69.5534 38.7001 71.0998 38.7001Z" fill="white"/>
<path d="M40.0996 80.9C40.0996 85.5 43.8996 89.3 48.4996 89.3V104.1C48.4996 106.8 50.9996 109 54.0996 109C57.1996 109 59.6996 106.8 59.6996 104.1V89.3H68.1996V104.1C68.1996 106.8 70.6996 109 73.7996 109C76.8996 109 79.3996 106.8 79.3996 104.1V89.3C84.0996 89.3 87.8996 85.5 87.8996 80.9V51.2C87.8996 49.5 86.5996 48.2 84.8996 48.2H43.0996C41.3996 48.2 40.0996 49.5 40.0996 51.2V80.9ZM48.4996 89.3V104.1C48.4996 106.8 50.9996 109 54.0996 109" fill="#8FE5B5"/>
<path d="M59.7 89.5C55.9 93.5 52.1 96.8 48.5 99.4V104.1C48.5 106.8 51 109 54.1 109C57.2 109 59.7 106.8 59.7 104.1V89.5Z" fill="#4AC3A0"/>
<path d="M84.9 48.2H78C78 60.7 73.8 72.8999 65.9 82.5999C63.9 85.0999 61.9 87.3 60 89.3H68.3V104.1C68.3 104.9 68.5 105.7 68.9 106.4C69 106.7 69.3 106.9 69.5 107.2C70.5 108.3 72.1 109 73.8 109C76.9 109 79.4 106.8 79.4 104.1V89.3C84.1 89.3 87.9 85.5 87.9 80.9V51.2C87.9 49.5 86.6 48.2 84.9 48.2Z" fill="#4AC3A0"/>
<path d="M73.9 112C69.1 112 65.3 108.4 65.3 104.1V92.3H62.8V104.1C62.8 108.5 58.9 112 54.2 112C52.5 112 51.2 110.7 51.2 109C51.2 107.3 52.5 106 54.2 106C55.6 106 56.8 105.1 56.8 104.1V89.3C56.8 87.6 58.1 86.3 59.8 86.3H68.3C70 86.3 71.3 87.6 71.3 89.3V104.1C71.3 105.1 72.5 106 73.9 106C75.3 106 76.5 105.1 76.5 104.1V89.3C76.5 87.6 77.8 86.3 79.5 86.3C82.5 86.3 85 83.9 85 80.9V76.9V60.9C85 59.2 86.3 57.9 88 57.9C89.7 57.9 91 59.2 91 60.9V73.9H94.3C95.7 73.9 96.9 73 96.9 72V56.9C96.9 56.1 96.6 55.2999 96 54.7999C95.4 54.2 94.7 53.9 93.9 53.9C92.2 53.9 90.9 52.6 90.9 50.9C90.9 49.2 92.2 47.9 93.9 47.9C96.3 47.9 98.6 48.7999 100.3 50.5C102 52.2 102.9 54.5 102.9 56.9V72C102.9 76.4 99 79.9 94.3 79.9H91V80.9C91 86.2 87.4 90.6 82.5 91.9V104.1C82.5 108.4 78.6 112 73.9 112ZM48.5 92.3C42.2 92.3 37.1 87.2 37.1 80.9L37 61C37 59.2999 38.3 58 40 58C41.7 58 43 59.2999 43 61L43.1 80.9C43.1 83.9 45.5 86.3 48.5 86.3C50.2 86.3 51.5 87.7 51.5 89.3C51.5 91 50.2 92.3 48.5 92.3ZM87.7 44.5C86.3 44.5 85 43.5 84.8 42C83.8 36.6 79.5 31.8 73.2 29.4L70.1 28.4C66.2 27.5 62.1 27.5 58.1 28.4L54.9 29.4C48.6 31.8 44.3 36.5 43.3 42C43 43.6 41.4 44.7 39.8 44.4C38.2 44.1 37.1 42.5 37.4 40.9C38.8 33.4 44.6 27 52.8 23.8C52.9 23.8 52.9 23.8 53 23.7L56.3 22.7C56.4 22.7 56.4 22.7 56.5 22.6C61.4 21.4 66.6 21.4 71.5 22.6C71.6 22.6 71.6 22.6 71.7 22.7L75 23.8C75.1 23.8 75.1 23.8 75.2 23.9C83.5 27.1 89.2 33.4999 90.6 41.0999C90.9 42.6999 89.8 44.2999 88.2 44.5999C88.1 44.3999 87.9 44.5 87.7 44.5Z" fill="#444B54"/>
<path d="M70.9004 28.5C70.1004 28.5 69.4004 28.2 68.8004 27.6C67.6004 26.4 67.6004 24.5 68.8004 23.4L74.9004 17.4C76.1004 16.2 78.0004 16.2 79.1004 17.4C80.2004 18.6 80.3004 20.5 79.1004 21.6L73.0004 27.6C72.4004 28.2 71.6004 28.5 70.9004 28.5Z" fill="#444B54"/>
<path d="M94.9996 112H54.0996C52.3996 112 51.0996 110.7 51.0996 109C51.0996 107.3 52.3996 106 54.0996 106H94.9996C96.6996 106 97.9996 107.3 97.9996 109C97.9996 110.7 96.6996 112 94.9996 112Z" fill="#444B54"/>
<path d="M110 112C109.8 112 109.6 112 109.4 111.9C109.2 111.9 109 111.8 108.8 111.7C108.6 111.6 108.5 111.5 108.3 111.4C108.1 111.3 108 111.2 107.8 111C107.2 110.4 106.9 109.7 106.9 108.9C106.9 108.7 106.9 108.5 107 108.3C107 108.1 107.1 107.9 107.2 107.7C107.3 107.5 107.4 107.4 107.5 107.2C107.6 107 107.7 106.9 107.9 106.7C108.1 106.5 108.2 106.4 108.4 106.3C108.6 106.2 108.7 106.1 108.9 106C109.1 105.9 109.3 105.9 109.5 105.8C109.9 105.7 110.3 105.7 110.7 105.8C110.9 105.8 111.1 105.9 111.3 106C111.5 106.1 111.7 106.2 111.8 106.3C112 106.4 112.1 106.5 112.3 106.7C112.4 106.8 112.6 107 112.7 107.2C112.8 107.4 112.9 107.5 113 107.7C113.1 107.9 113.1 108.1 113.2 108.3C113.2 108.5 113.3 108.7 113.3 108.9C113.3 109.7 113 110.5 112.4 111C112.3 111.1 112.1 111.3 111.9 111.4C111.7 111.5 111.6 111.6 111.4 111.7C111.2 111.8 111 111.8 110.8 111.9C110.4 112 110.2 112 110 112Z" fill="#444B54"/>
<path d="M40 80H34C29 80 25 76 25 71V57C25 52 29 48 34 48C35.7 48 37 49.3 37 51C37 52.7 35.7 54 34 54C32.3 54 31 55.3 31 57V71C31 72.7 32.3 74 34 74H40C41.7 74 43 75.3 43 77C43 78.7 41.7 80 40 80Z" fill="#444B54"/>
<path d="M54.1 112C49.3 112 45.5 108.4 45.5 104.1V89.3C45.5 87.6 46.8 86.3 48.5 86.3C50.2 86.3 51.5 87.6 51.5 89.3V104.1C51.5 105.1 52.7 106 54.1 106C55.8 106 57.1 107.3 57.1 109C57.1 110.7 55.8 112 54.1 112Z" fill="#444B54"/>
</svg>
