<svg width="60" height="60" viewBox="0 0 60 60" fill="none" xmlns="http://www.w3.org/2000/svg">
<path d="M25.3125 44.0625H48.75L47.8594 36.4688C47.5781 34.125 45.5625 32.3438 43.2187 32.3438H30.8906C28.5 32.3438 26.5312 34.125 26.25 36.4688L25.3125 44.0625Z" fill="white"/>
<path d="M48.7498 45.4688H25.3123C24.8904 45.4688 24.5154 45.2812 24.281 45C23.9998 44.7188 23.906 44.2969 23.9529 43.9219L24.8435 36.3281C25.1717 33.2344 27.7967 30.9375 30.8904 30.9375H43.2185C46.3123 30.9375 48.8904 33.2344 49.2654 36.3281L50.156 43.9219C50.2029 44.3437 50.0623 44.7188 49.8279 45C49.5467 45.2812 49.1717 45.4688 48.7498 45.4688ZM26.906 42.6562H47.156L46.4529 36.6562C46.2654 35.0156 44.8592 33.75 43.1717 33.75H30.8904C29.2498 33.75 27.8435 35.0156 27.6092 36.6562L26.906 42.6562Z" fill="#444B54"/>
<path d="M34.0781 30.9375V32.3438H39.8438V30.9375C39.8438 30.1406 39.2344 29.5312 38.4375 29.5312H35.4844C34.6875 29.5312 34.0781 30.1406 34.0781 30.9375Z" fill="#444B54"/>
<path d="M26.25 59.5312H23.9062C23.1094 59.5312 22.5 58.9219 22.5 58.125V53.4375C22.5 52.6406 23.1094 52.0312 23.9062 52.0312C24.375 52.0312 24.8438 52.2656 25.0781 52.6406C25.3125 52.2656 25.7812 52.0312 26.25 52.0312C27.0469 52.0312 27.6562 52.6406 27.6562 53.4375V58.125C27.6562 58.9219 27.0469 59.5312 26.25 59.5312Z" fill="#444B54"/>
<path d="M49.6875 59.5312H47.8125C47.0156 59.5312 46.4062 58.9219 46.4062 58.125V53.4375C46.4062 52.6406 47.0156 52.0312 47.8125 52.0312C48.1875 52.0312 48.5156 52.1719 48.75 52.4063C48.9844 52.1719 49.3125 52.0312 49.6875 52.0312C50.4844 52.0312 51.0938 52.6406 51.0938 53.4375V58.125C51.0938 58.9219 50.4844 59.5312 49.6875 59.5312Z" fill="#444B54"/>
<path d="M25.3125 53.3755L48.75 53.3755L48.75 41.6567L25.3125 41.6567L25.3125 53.3755Z" fill="#444B54"/>
<path d="M48.75 41.6719H37.0312V53.3906H48.75V41.6719Z" fill="#444B54"/>
<path d="M48.75 54.7969H25.3125C24.5156 54.7969 23.9062 54.1875 23.9062 53.3906V44.0156C23.9062 42 25.5469 40.3125 27.5625 40.2656C33.8437 39.3281 40.2656 39.3281 46.5469 40.2656C48.5625 40.3125 50.2031 42 50.2031 44.0156V53.3906C50.1562 54.1406 49.5469 54.7969 48.75 54.7969ZM26.7188 51.9844H47.3438V44.0156C47.3438 43.5 46.9219 43.0781 46.4062 43.0781C46.3594 43.0781 46.2656 43.0781 46.2188 43.0781C40.125 42.1875 33.9844 42.1875 27.8906 43.0781C27.8438 43.0781 27.75 43.0781 27.7031 43.0781C27.1875 43.0781 26.7656 43.5 26.7656 44.0156V51.9844H26.7188Z" fill="#444B54"/>
<path d="M48.75 44.0625C50.5781 44.0625 52.0312 45.5156 52.0312 47.3438V53.4375H45.4688V47.3438C45.4688 45.5156 46.9219 44.0625 48.75 44.0625Z" fill="#676F77"/>
<path d="M25.3125 44.0625C27.1406 44.0625 28.5938 45.5156 28.5938 47.3438V53.4375H22.0312V47.3438C22.0312 45.5156 23.4844 44.0625 25.3125 44.0625Z" fill="#676F77"/>
<path d="M53.4375 54.8438H20.625C19.8281 54.8438 19.2188 54.2344 19.2188 53.4375C19.2188 52.6406 19.8281 52.0312 20.625 52.0312H53.4375C54.2344 52.0312 54.8438 52.6406 54.8438 53.4375C54.8438 54.2344 54.2344 54.8438 53.4375 54.8438Z" fill="#444B54"/>
<path d="M52.0312 54.8438H45.4688C44.6719 54.8438 44.0625 54.2344 44.0625 53.4375V47.3438C44.0625 44.7656 46.1719 42.6562 48.75 42.6562C51.3281 42.6562 53.4375 44.7656 53.4375 47.3438V53.4375C53.4375 54.2344 52.8281 54.8438 52.0312 54.8438ZM46.875 52.0312H50.625V47.3438C50.625 46.3125 49.7812 45.4688 48.75 45.4688C47.7188 45.4688 46.875 46.3125 46.875 47.3438V52.0312Z" fill="#444B54"/>
<path d="M28.5938 54.8438H22.0312C21.2344 54.8438 20.625 54.2344 20.625 53.4375V47.3438C20.625 44.7656 22.7344 42.6562 25.3125 42.6562C27.8906 42.6562 30 44.7656 30 47.3438V53.4375C30 54.2344 29.3906 54.8438 28.5938 54.8438ZM23.4375 52.0312H27.1875V47.3438C27.1875 46.3125 26.3438 45.4688 25.3125 45.4688C24.2812 45.4688 23.4375 46.3125 23.4375 47.3438V52.0312Z" fill="#444B54"/>
<path d="M48.75 49.2188C49.7855 49.2188 50.625 48.3793 50.625 47.3438C50.625 46.3082 49.7855 45.4688 48.75 45.4688C47.7145 45.4688 46.875 46.3082 46.875 47.3438C46.875 48.3793 47.7145 49.2188 48.75 49.2188Z" fill="white"/>
<path d="M25.3125 49.2188C26.348 49.2188 27.1875 48.3793 27.1875 47.3438C27.1875 46.3082 26.348 45.4688 25.3125 45.4688C24.277 45.4688 23.4375 46.3082 23.4375 47.3438C23.4375 48.3793 24.277 49.2188 25.3125 49.2188Z" fill="white"/>
<path d="M34.2188 52.0312H39.8438C40.3594 52.0312 40.7812 51.6094 40.7812 51.0938V47.8125C40.7812 45.75 39.0938 44.0625 37.0312 44.0625C34.9688 44.0625 33.2812 45.75 33.2812 47.8125V51.0938C33.2812 51.6094 33.7031 52.0312 34.2188 52.0312Z" fill="white"/>
<path d="M30.9375 58.125H6.5625C3.98438 58.125 1.875 56.0156 1.875 53.4375V11.25C1.875 8.67188 3.98438 6.5625 6.5625 6.5625H30.9375C33.5156 6.5625 35.625 8.67188 35.625 11.25V53.4375C35.625 56.0156 33.5156 58.125 30.9375 58.125Z" fill="white"/>
<path d="M18.75 54.8438C19.7855 54.8438 20.625 54.0043 20.625 52.9688C20.625 51.9332 19.7855 51.0938 18.75 51.0938C17.7145 51.0938 16.875 51.9332 16.875 52.9688C16.875 54.0043 17.7145 54.8438 18.75 54.8438Z" fill="#E9EEF4"/>
<path d="M30.9375 59.5312H6.5625C3.1875 59.5312 0.46875 56.8125 0.46875 53.4375V11.25C0.46875 7.875 3.1875 5.15625 6.5625 5.15625H30.9375C34.3125 5.15625 37.0312 7.875 37.0312 11.25V53.4375C37.0312 56.8125 34.3125 59.5312 30.9375 59.5312ZM6.5625 7.96875C4.73438 7.96875 3.28125 9.42188 3.28125 11.25V53.4375C3.28125 55.2656 4.73438 56.7188 6.5625 56.7188H30.9375C32.7656 56.7188 34.2188 55.2656 34.2188 53.4375V11.25C34.2188 9.42188 32.7656 7.96875 30.9375 7.96875H6.5625Z" fill="#444B54"/>
<path d="M31.4062 10.7812H6.09375V47.8125H31.4062V10.7812Z" fill="#E9EEF4"/>
<path d="M18.75 40.3125C24.7043 40.3125 29.5312 35.4856 29.5312 29.5312C29.5312 23.5769 24.7043 18.75 18.75 18.75C12.7957 18.75 7.96875 23.5769 7.96875 29.5312C7.96875 35.4856 12.7957 40.3125 18.75 40.3125Z" fill="white"/>
<path d="M16.4062 26.25H11.7188V30.9375H16.4062V26.25Z" fill="#444B54"/>
<path d="M25.7812 26.25H21.0938V30.9375H25.7812V26.25Z" fill="#444B54"/>
<path d="M21.0938 30.9375H16.4062V35.625H21.0938V30.9375Z" fill="#444B54"/>
<path d="M51.0938 59.5312H30.9375C30.1406 59.5312 29.5312 58.9219 29.5312 58.125C29.5312 57.3281 30.1406 56.7188 30.9375 56.7188H51.0938C51.8906 56.7188 52.5 57.3281 52.5 58.125C52.5 58.9219 51.8906 59.5312 51.0938 59.5312Z" fill="#444B54"/>
<path d="M58.125 59.5313C58.0312 59.5313 57.9375 59.5313 57.8437 59.4844C57.75 59.4844 57.6562 59.4375 57.5625 59.3907C57.4687 59.3438 57.4219 59.2969 57.3281 59.25C57.2344 59.2032 57.1875 59.1563 57.0937 59.0625C57.0469 59.0157 56.9531 58.9219 56.9062 58.8282C56.8594 58.7344 56.8125 58.6875 56.7656 58.5938C56.7187 58.5 56.7187 58.4063 56.6719 58.3125C56.6719 58.2188 56.625 58.125 56.625 58.0313C56.625 57.9375 56.625 57.8438 56.6719 57.75C56.6719 57.6563 56.7187 57.5625 56.7656 57.4688C56.8125 57.375 56.8594 57.3282 56.9062 57.2344C56.9531 57.1407 57 57.0938 57.0937 57.0469C57.1875 57 57.2344 56.9063 57.3281 56.8594C57.4219 56.8125 57.4687 56.7657 57.5625 56.7188C57.6562 56.6719 57.75 56.6719 57.8437 56.625C58.0312 56.5782 58.2187 56.5782 58.4062 56.625C58.5 56.625 58.5937 56.6719 58.6875 56.7188C58.7812 56.7657 58.875 56.8125 58.9219 56.8594C59.0156 56.9063 59.0625 56.9532 59.1562 57.0469C59.2031 57.0938 59.2969 57.1875 59.3437 57.2344C59.3906 57.3282 59.4375 57.375 59.4844 57.4688C59.5312 57.5625 59.5312 57.6563 59.5781 57.75C59.5781 57.8438 59.625 57.9375 59.625 58.0313C59.625 58.125 59.625 58.2188 59.5781 58.3125C59.5781 58.4063 59.5312 58.5 59.4844 58.5938C59.4375 58.6875 59.3906 58.7813 59.3437 58.8282C59.2969 58.9219 59.25 58.9688 59.1562 59.0625C59.1094 59.1094 59.0156 59.2032 58.9219 59.25C58.8281 59.2969 58.7812 59.3438 58.6875 59.3907C58.5937 59.4375 58.5 59.4375 58.4062 59.4844C58.3125 59.5313 58.2187 59.5313 58.125 59.5313Z" fill="#444B54"/>
</svg>
