<svg width="120" height="120" viewBox="0 0 120 120" fill="none" xmlns="http://www.w3.org/2000/svg">
<path d="M111.562 111.562H8.4375V13.125C8.4375 10.5 10.5 8.4375 13.125 8.4375H106.875C109.5 8.4375 111.562 10.5 111.562 13.125V111.562Z" fill="white"/>
<path d="M44.1562 89.7188H95.9062V82.5938C95.9062 79.5938 93.4688 77.1563 90.4688 77.1563H80.4375C77.25 77.1563 74.7188 74.3438 75 71.1563L76.875 53.625C77.3438 49.5 74.0625 45.9375 70.0312 45.9375C66 45.9375 62.8125 49.4062 63.1875 53.5312L64.6875 71.1563C64.9688 74.3438 62.4375 77.0625 59.25 77.0625H49.5938C46.5938 77.0625 44.1562 79.5 44.1562 82.5V89.7188Z" fill="#F16677"/>
<path d="M70.0312 55.6875C71.1703 55.6875 72.0938 54.7641 72.0938 53.625C72.0938 52.4859 71.1703 51.5625 70.0312 51.5625C68.8922 51.5625 67.9688 52.4859 67.9688 53.625C67.9688 54.7641 68.8922 55.6875 70.0312 55.6875Z" fill="white"/>
<path d="M95.9062 89.7188V111.562H44.1562H34.0312C39.6562 111.562 44.1562 107.062 44.1562 101.437V89.7188" fill="white"/>
<path d="M95.9062 92.5312H44.1562C42.5625 92.5312 41.3438 91.3125 41.3438 89.7188V82.5938C41.3438 78 45 74.3438 49.5938 74.3438H59.1562C59.9062 74.3438 60.5625 74.0625 61.125 73.5C61.5937 72.9375 61.875 72.1875 61.7813 71.4375L60.2813 53.8125C60 51.0938 60.9375 48.375 62.8125 46.3125C64.6875 44.3438 67.2187 43.125 69.9375 43.125C72.6562 43.125 75.2813 44.25 77.1563 46.3125C79.0312 48.375 79.875 51.0938 79.5938 53.9063L77.8125 71.3438C77.7188 72.0938 78 72.8438 78.4687 73.4063C78.9375 73.9688 79.6875 74.25 80.4375 74.25H90.4688C95.0625 74.25 98.7188 78 98.7188 82.5V89.625C98.7188 91.2188 97.4062 92.5312 95.9062 92.5312ZM46.9687 86.9062H93.0938V82.5938C93.0938 81.0938 91.875 79.9688 90.4688 79.9688H80.4375C78.0938 79.9688 75.8438 78.9375 74.3438 77.25C72.75 75.4688 72 73.125 72.2812 70.875L74.0625 53.3438C74.1562 52.125 73.7812 51 73.0312 50.1563C72.2812 49.3125 71.1562 48.8437 70.0312 48.8437C68.9062 48.8437 67.7812 49.3125 67.0312 50.1563C66.1875 51 65.8125 52.125 66 53.3438L67.5 70.9687C67.6875 73.3125 66.9375 75.5625 65.3437 77.3438C63.75 79.0313 61.5938 80.0625 59.25 80.0625H49.5938C48.1875 80.0625 46.9687 81.2812 46.9687 82.6875V86.9062Z" fill="#454B54"/>
<path d="M34.0313 114.375C32.4375 114.375 31.2188 113.156 31.2188 111.562C31.2188 109.969 32.4375 108.75 34.0313 108.75C38.0625 108.75 41.3438 105.469 41.3438 101.437V89.7187C41.3438 88.125 42.5625 86.9062 44.1562 86.9062C45.75 86.9062 46.9688 88.125 46.9688 89.7187V101.437C46.9688 108.562 41.1563 114.375 34.0313 114.375Z" fill="#454B54"/>
<path d="M52.3125 114.375C50.7188 114.375 49.5 113.156 49.5 111.562V104.156C49.5 102.562 50.7188 101.344 52.3125 101.344C53.9062 101.344 55.125 102.562 55.125 104.156V111.562C55.125 113.156 53.8125 114.375 52.3125 114.375Z" fill="#454B54"/>
<path d="M95.9062 114.375H61.875C60.2812 114.375 59.0625 113.156 59.0625 111.562C59.0625 109.969 60.2812 108.75 61.875 108.75H93.0938V89.7187C93.0938 88.125 94.3125 86.9062 95.9062 86.9062C97.5 86.9062 98.7188 88.125 98.7188 89.7187V111.562C98.7188 113.156 97.4062 114.375 95.9062 114.375Z" fill="#454B54"/>
<path d="M19.9688 114.375C19.2188 114.375 18.4688 114.094 18 113.531C17.4375 112.969 17.1562 112.312 17.1562 111.562C17.1562 110.812 17.4375 110.062 18 109.594C19.0313 108.563 20.9063 108.563 21.9375 109.594C22.5 110.156 22.7812 110.812 22.7812 111.562C22.7812 112.312 22.5 113.062 21.9375 113.531C21.4688 114.094 20.7188 114.375 19.9688 114.375Z" fill="#454B54"/>
<path d="M111.562 27.1875H8.4375V13.125C8.4375 10.5 10.5 8.4375 13.125 8.4375H106.875C109.5 8.4375 111.562 10.5 111.562 13.125V27.1875Z" fill="#C7D7E2"/>
<path d="M111.562 114.375C109.969 114.375 108.75 113.156 108.75 111.562V13.125C108.75 12.0938 107.906 11.25 106.875 11.25H13.125C12.0938 11.25 11.25 12.0938 11.25 13.125V111.562C11.25 113.156 10.0312 114.375 8.4375 114.375C6.84375 114.375 5.625 113.156 5.625 111.562V13.125C5.625 9 9 5.625 13.125 5.625H106.875C111 5.625 114.375 9 114.375 13.125V111.562C114.375 113.156 113.156 114.375 111.562 114.375Z" fill="#454B54"/>
<path d="M102.188 15.9375H64.6875C63.0938 15.9375 61.875 17.1562 61.875 18.75C61.875 20.3438 63.0938 21.5625 64.6875 21.5625H102.188C103.781 21.5625 105 20.3438 105 18.75C105 17.1562 103.781 15.9375 102.188 15.9375Z" fill="white"/>
<path d="M34.5938 16.7813C34.0313 17.25 33.75 18 33.75 18.75C33.75 19.5 34.0313 20.25 34.5938 20.7188C35.1563 21.2813 35.8125 21.5625 36.5625 21.5625C37.3125 21.5625 38.0625 21.2813 38.5312 20.7188C39.0937 20.1563 39.375 19.5 39.375 18.75C39.375 18 39.0937 17.25 38.5312 16.7813C37.5 15.75 35.625 15.75 34.5938 16.7813Z" fill="white"/>
<path d="M25.2187 16.7813C24.6562 17.25 24.375 18 24.375 18.75C24.375 19.5 24.6562 20.25 25.2187 20.7188C25.7812 21.2813 26.4375 21.5625 27.1875 21.5625C27.9375 21.5625 28.6875 21.2813 29.1563 20.7188C29.7188 20.1563 30 19.5 30 18.75C30 18 29.7188 17.25 29.1563 16.7813C28.125 15.75 26.25 15.75 25.2187 16.7813Z" fill="white"/>
<path d="M15.8437 16.7813C15.2812 17.25 15 18 15 18.75C15 19.5 15.2812 20.25 15.8437 20.7188C16.4062 21.2813 17.0625 21.5625 17.8125 21.5625C18.5625 21.5625 19.3125 21.2813 19.7813 20.7188C20.3438 20.1563 20.625 19.5 20.625 18.75C20.625 18 20.3438 17.25 19.7813 16.7813C18.75 15.75 16.875 15.75 15.8437 16.7813Z" fill="white"/>
</svg>
