<svg width="120" height="120" viewBox="0 0 120 120" fill="none" xmlns="http://www.w3.org/2000/svg">
<path d="M15.9375 64.6875H30V105H15.9375" fill="#FFAB40"/>
<path d="M30 107.812H15.9375C14.3438 107.812 13.125 106.594 13.125 105C13.125 103.406 14.3438 102.188 15.9375 102.188H27.1875V67.5H15.9375C14.3438 67.5 13.125 66.2812 13.125 64.6875C13.125 63.0938 14.3438 61.875 15.9375 61.875H30C31.5938 61.875 32.8125 63.0938 32.8125 64.6875V105C32.8125 106.594 31.5938 107.812 30 107.812Z" fill="#444B54"/>
<path d="M41.25 61.875C51.75 54.75 58.7813 43.5 60.4688 30.8437L61.0312 27.0937C61.5938 22.9687 65.3438 20.1562 69.4688 20.7187C73.5938 21.2812 76.4063 25.0312 75.8438 29.1562L75.2813 32.9062C74.8125 36.5625 73.9688 40.125 72.75 43.5937L69.5625 52.5937L87.2812 52.5C93.0938 52.5 97.5 57.75 96.4688 63.5625L90.4688 97.3125C89.625 101.812 85.7812 105 81.2812 105H53.25C49.125 105 45.0938 104.25 41.25 102.844H38.4375V61.875H41.25Z" fill="white"/>
<path d="M81.1875 107.812H53.25C48.75 107.812 44.4375 107.062 40.2187 105.469C38.7187 104.906 38.0625 103.312 38.5312 101.812C39.0937 100.312 40.6875 99.6562 42.1875 100.125C45.75 101.437 49.4062 102.094 53.25 102.094H81.1875C84.375 102.094 87.0937 99.8437 87.6562 96.6562L93.6562 62.9062C94.0312 61.0312 93.4687 59.0625 92.25 57.5625C91.0312 56.0625 89.1562 55.2187 87.1875 55.2187L69.5625 55.3125C68.625 55.3125 67.7812 54.8437 67.2187 54.0937C66.6562 53.3437 66.5625 52.4062 66.8438 51.5625L70.0312 42.5625C71.1562 39.2812 71.9062 35.9062 72.375 32.4375L72.9375 28.6875C73.3125 26.1562 71.5312 23.7187 68.9062 23.4375C67.6875 23.25 66.4688 23.625 65.4375 24.375C64.4062 25.125 63.75 26.25 63.6562 27.4687L63.0938 31.2187C61.2188 44.5312 53.8125 56.5312 42.6562 64.2187C41.3437 65.0625 39.6562 64.7812 38.7187 63.4687C37.875 62.1562 38.1562 60.4687 39.4687 59.5312C49.3125 52.7812 55.875 42.1875 57.4687 30.4687L58.0312 26.7187C58.4062 24 59.8125 21.5625 62.0625 19.875C64.2187 18.1875 66.9375 17.5312 69.6562 17.9062C72.375 18.2812 74.8125 19.6875 76.5 21.9375C78.1875 24.1875 78.8437 26.8125 78.4687 29.5312L77.9062 33.2812C77.3437 37.125 76.5 40.875 75.2812 44.5312L73.4062 49.7812L87.1875 49.6875C90.8437 49.6875 94.2187 51.2812 96.5625 54.0937C98.9062 56.9062 99.8438 60.4687 99.1875 64.0312L93.1875 97.7812C92.1562 103.594 87.0937 107.812 81.1875 107.812Z" fill="#444B54"/>
</svg>
