<svg width="60" height="60" viewBox="0 0 60 60" fill="none" xmlns="http://www.w3.org/2000/svg">
<path d="M41.7188 53.9062C41.7188 47.4375 36.4688 42.1875 30 42.1875C23.5312 42.1875 18.2812 47.4375 18.2812 53.9062V55.3125H41.7188V53.9062Z" fill="white"/>
<path d="M30 37.0312C33.8833 37.0312 37.0312 33.8833 37.0312 30C37.0312 26.1167 33.8833 22.9688 30 22.9688C26.1167 22.9688 22.9688 26.1167 22.9688 30C22.9688 33.8833 26.1167 37.0312 30 37.0312Z" fill="white"/>
<path d="M30 10.7812C32.5888 10.7812 34.6875 8.68258 34.6875 6.09375C34.6875 3.50492 32.5888 1.40625 30 1.40625C27.4112 1.40625 25.3125 3.50492 25.3125 6.09375C25.3125 8.68258 27.4112 10.7812 30 10.7812Z" fill="white"/>
<path d="M51.0938 46.875C53.6826 46.875 55.7812 44.7763 55.7812 42.1875C55.7812 39.5987 53.6826 37.5 51.0938 37.5C48.5049 37.5 46.4062 39.5987 46.4062 42.1875C46.4062 44.7763 48.5049 46.875 51.0938 46.875Z" fill="white"/>
<path d="M51.0938 22.5C53.6826 22.5 55.7812 20.4013 55.7812 17.8125C55.7812 15.2237 53.6826 13.125 51.0938 13.125C48.5049 13.125 46.4062 15.2237 46.4062 17.8125C46.4062 20.4013 48.5049 22.5 51.0938 22.5Z" fill="white"/>
<path d="M8.90625 22.5C11.4951 22.5 13.5938 20.4013 13.5938 17.8125C13.5938 15.2237 11.4951 13.125 8.90625 13.125C6.31742 13.125 4.21875 15.2237 4.21875 17.8125C4.21875 20.4013 6.31742 22.5 8.90625 22.5Z" fill="white"/>
<path d="M8.90625 46.875C11.4951 46.875 13.5938 44.7763 13.5938 42.1875C13.5938 39.5987 11.4951 37.5 8.90625 37.5C6.31742 37.5 4.21875 39.5987 4.21875 42.1875C4.21875 44.7763 6.31742 46.875 8.90625 46.875Z" fill="white"/>
<path d="M30 17.3438C29.2031 17.3438 28.5938 16.7344 28.5938 15.9375V10.7812C28.5938 9.98438 29.2031 9.375 30 9.375C30.7969 9.375 31.4062 9.98438 31.4062 10.7812V15.9375C31.4062 16.7344 30.7969 17.3438 30 17.3438Z" fill="#71C2FF"/>
<path d="M19.0315 23.6719C18.6565 24.3281 17.7659 24.5625 17.1096 24.1875L12.6565 21.6094C12.0003 21.2344 11.7659 20.3438 12.1409 19.6875C12.5159 19.0313 13.4065 18.7969 14.0628 19.1719L18.5159 21.75C19.1721 22.1719 19.4065 23.0156 19.0315 23.6719Z" fill="#71C2FF"/>
<path d="M19.1719 36.5156C19.5938 37.1719 19.3594 38.0625 18.7032 38.4375L14.2969 41.1094C13.6407 41.5313 12.75 41.2969 12.375 40.6406C11.9532 39.9844 12.1875 39.0938 12.8438 38.7188L17.25 36.0469C17.9063 35.6719 18.75 35.8594 19.1719 36.5156Z" fill="#71C2FF"/>
<path d="M41.0159 23.7656C40.6409 23.1094 40.8753 22.2188 41.5315 21.8438L46.0315 19.3125C46.6878 18.9375 47.5784 19.1719 47.9534 19.8281C48.3284 20.4844 48.094 21.375 47.4378 21.75L42.9378 24.2813C42.2346 24.7031 41.3909 24.4219 41.0159 23.7656Z" fill="#71C2FF"/>
<path d="M40.8278 36.5156C41.2497 35.8593 42.0935 35.625 42.7497 36.0468L47.156 38.7187C47.8122 39.1406 48.0466 39.9843 47.6247 40.6406C47.2028 41.2968 46.3591 41.5312 45.7028 41.1093L41.2966 38.4375C40.6403 38.0625 40.4528 37.2187 40.8278 36.5156Z" fill="#71C2FF"/>
<path d="M30 12.1875C26.625 12.1875 23.9062 9.46875 23.9062 6.09375C23.9062 2.71875 26.625 0 30 0C33.375 0 36.0938 2.71875 36.0938 6.09375C36.0938 9.46875 33.375 12.1875 30 12.1875ZM30 2.8125C28.1719 2.8125 26.7188 4.26562 26.7188 6.09375C26.7188 7.92188 28.1719 9.375 30 9.375C31.8281 9.375 33.2812 7.92188 33.2812 6.09375C33.2812 4.26562 31.8281 2.8125 30 2.8125Z" fill="#71C2FF"/>
<path d="M51.0938 48.2812C47.7188 48.2812 45 45.5625 45 42.1875C45 38.8125 47.7188 36.0938 51.0938 36.0938C54.4688 36.0938 57.1875 38.8125 57.1875 42.1875C57.1875 45.5625 54.4688 48.2812 51.0938 48.2812ZM51.0938 38.9062C49.2656 38.9062 47.8125 40.3594 47.8125 42.1875C47.8125 44.0156 49.2656 45.4688 51.0938 45.4688C52.9219 45.4688 54.375 44.0156 54.375 42.1875C54.375 40.3594 52.9219 38.9062 51.0938 38.9062Z" fill="#71C2FF"/>
<path d="M51.0938 23.9062C47.7188 23.9062 45 21.1875 45 17.8125C45 14.4375 47.7188 11.7188 51.0938 11.7188C54.4688 11.7188 57.1875 14.4375 57.1875 17.8125C57.1875 21.1875 54.4688 23.9062 51.0938 23.9062ZM51.0938 14.5312C49.2656 14.5312 47.8125 15.9844 47.8125 17.8125C47.8125 19.6406 49.2656 21.0938 51.0938 21.0938C52.9219 21.0938 54.375 19.6406 54.375 17.8125C54.375 15.9844 52.9219 14.5312 51.0938 14.5312Z" fill="#71C2FF"/>
<path d="M8.90625 23.9062C5.53125 23.9062 2.8125 21.1875 2.8125 17.8125C2.8125 14.4375 5.53125 11.7188 8.90625 11.7188C12.2812 11.7188 15 14.4375 15 17.8125C15 21.1875 12.2812 23.9062 8.90625 23.9062ZM8.90625 14.5312C7.07812 14.5312 5.625 15.9844 5.625 17.8125C5.625 19.6406 7.07812 21.0938 8.90625 21.0938C10.7344 21.0938 12.1875 19.6406 12.1875 17.8125C12.1875 15.9844 10.7344 14.5312 8.90625 14.5312Z" fill="#71C2FF"/>
<path d="M8.90625 48.2812C5.53125 48.2812 2.8125 45.5625 2.8125 42.1875C2.8125 38.8125 5.53125 36.0938 8.90625 36.0938C12.2812 36.0938 15 38.8125 15 42.1875C15 45.5625 12.2812 48.2812 8.90625 48.2812ZM8.90625 38.9062C7.07812 38.9062 5.625 40.3594 5.625 42.1875C5.625 44.0156 7.07812 45.4688 8.90625 45.4688C10.7344 45.4688 12.1875 44.0156 12.1875 42.1875C12.1875 40.3594 10.7344 38.9062 8.90625 38.9062Z" fill="#71C2FF"/>
<path d="M41.7188 55.3125C40.9219 55.3125 40.3125 54.7031 40.3125 53.9062C40.3125 48.2344 35.6719 43.5938 30 43.5938C24.3281 43.5938 19.6875 48.2344 19.6875 53.9062C19.6875 54.7031 19.0781 55.3125 18.2812 55.3125C17.4844 55.3125 16.875 54.7031 16.875 53.9062C16.875 46.6875 22.7812 40.7812 30 40.7812C37.2188 40.7812 43.125 46.6875 43.125 53.9062C43.125 54.6562 42.5156 55.3125 41.7188 55.3125Z" fill="#444B54"/>
<path d="M30 38.4375C25.3594 38.4375 21.5625 34.6406 21.5625 30C21.5625 25.3594 25.3594 21.5625 30 21.5625C34.6406 21.5625 38.4375 25.3594 38.4375 30C38.4375 34.6406 34.6406 38.4375 30 38.4375ZM30 24.375C26.9062 24.375 24.375 26.9062 24.375 30C24.375 33.0938 26.9062 35.625 30 35.625C33.0938 35.625 35.625 33.0938 35.625 30C35.625 26.9062 33.0938 24.375 30 24.375Z" fill="#444B54"/>
</svg>
