<svg width="60" height="60" viewBox="0 0 60 60" fill="none" xmlns="http://www.w3.org/2000/svg">
<path d="M29.0156 54.75H10.7344C8.15625 54.75 6.04688 52.6406 6.04688 50.0625V9.9375C6.04688 7.35938 8.15625 5.25 10.7344 5.25H29.0156C31.5938 5.25 33.7031 7.35938 33.7031 9.9375V50.0156C33.7031 52.6406 31.5938 54.75 29.0156 54.75Z" fill="#B5D2E5"/>
<path d="M19.875 52.2656C21.0659 52.2656 22.0312 51.3002 22.0312 50.1094C22.0312 48.9185 21.0659 47.9531 19.875 47.9531C18.6841 47.9531 17.7188 48.9185 17.7188 50.1094C17.7188 51.3002 18.6841 52.2656 19.875 52.2656Z" fill="#454B54"/>
<path d="M22.5469 11.3438H17.2031C16.4062 11.3438 15.7969 10.7344 15.7969 9.9375C15.7969 9.14062 16.4062 8.53125 17.2031 8.53125H22.5469C23.3437 8.53125 23.9531 9.14062 23.9531 9.9375C23.9531 10.7344 23.2969 11.3438 22.5469 11.3438Z" fill="#454B54"/>
<path d="M33.7031 14.2969H6.04688V45.7031H33.7031V14.2969Z" fill="white"/>
<path d="M29.0156 56.1562H10.7344C7.35938 56.1562 4.64062 53.4375 4.64062 50.0625V9.9375C4.64062 6.5625 7.35938 3.84375 10.7344 3.84375H29.0156C32.3906 3.84375 35.1094 6.5625 35.1094 9.9375V50.0156C35.1094 53.3906 32.3438 56.1562 29.0156 56.1562ZM10.7344 6.65625C8.90625 6.65625 7.45312 8.10938 7.45312 9.9375V50.0156C7.45312 51.8437 8.90625 53.2969 10.7344 53.2969H29.0156C30.8438 53.2969 32.2969 51.8437 32.2969 50.0156V9.9375C32.2969 8.10938 30.8438 6.65625 29.0156 6.65625H10.7344Z" fill="#454B54"/>
<path d="M53.9531 18.6562H25.8281V54.75H53.9531V18.6562Z" fill="#F8E390"/>
<path d="M39.8906 38.8125C35.25 38.8125 31.4531 35.0156 31.4531 30.375V25.6875C31.4531 24.8906 32.0625 24.2812 32.8594 24.2812C33.6562 24.2812 34.2656 24.8906 34.2656 25.6875V30.375C34.2656 33.4688 36.7969 36 39.8906 36C42.9844 36 45.5156 33.4688 45.5156 30.375V25.6875C45.5156 24.8906 46.125 24.2812 46.9219 24.2812C47.7188 24.2812 48.3281 24.8906 48.3281 25.6875V30.375C48.3281 35.0156 44.5781 38.8125 39.8906 38.8125Z" fill="#454B54"/>
<path d="M25.8281 18.6562H16.9219V54.75H25.8281V18.6562Z" fill="#E4CAA6"/>
<path d="M53.9531 17.25H25.8281H16.9219C16.125 17.25 15.5156 17.8594 15.5156 18.6562V54.75C15.5156 55.5469 16.125 56.1562 16.9219 56.1562H25.8281H53.9531C54.75 56.1562 55.3594 55.5469 55.3594 54.75V18.6562C55.3594 17.8594 54.75 17.25 53.9531 17.25ZM18.3281 20.0625H24.4219V53.3437H18.3281V20.0625ZM52.5469 53.3437H27.2344V20.0625H52.5469V53.3437Z" fill="#454B54"/>
</svg>
