<svg width="1016" height="516" viewBox="0 0 1016 516" fill="none" xmlns="http://www.w3.org/2000/svg">
<g clip-path="url(#clip0)">
<path d="M692.673 212.849C685.109 229.524 677.77 246.452 671.247 262.662C661.879 246.537 644.44 235.64 624.451 235.64C594.559 235.64 570.344 260.032 570.344 289.88C570.344 291.062 570.344 292.481 570.583 293.677C556.285 298.555 544.072 307.891 535.578 320.01C522.576 308.284 514.11 291.652 513.166 273.206C511.532 241.488 531.69 214.227 560.032 204.989C568.188 202.331 573.795 194.669 573.513 186.122C573.428 183.38 573.541 180.596 573.865 177.77C576.935 151.226 598.924 130.361 625.646 128.618C658.228 126.481 685.318 152.238 685.318 184.308C685.318 187.415 685.065 190.466 684.572 193.447C683.32 201.039 686.545 208.49 692.673 212.849Z" fill="url(#paint0_linear)"/>
<path d="M437.761 213.454C437.565 214.719 437.41 216.013 437.325 217.32C437.239 218.571 437.212 219.808 437.227 221.031C437.396 231.393 431.014 240.798 421.45 244.848C396.361 255.449 379.119 280.897 380.768 310.155C382.19 335.293 397.826 356.931 419.788 366.996C412.97 368.81 405.813 369.78 398.461 369.78H365.512C367.02 363.032 367.809 356.016 367.809 348.817C367.809 311.981 321.478 214.001 293.051 157.356C302.574 126.074 332.353 103.48 367.133 105.237C405.83 107.192 436.524 139.585 436.791 178.262C436.833 183.801 436.241 189.144 435.115 194.29C433.634 200.941 434.649 207.731 437.761 213.454Z" fill="url(#paint1_linear)"/>
<path d="M570.346 289.88C570.346 291.062 570.346 292.481 570.584 293.677C542.82 303.153 522.887 329.444 522.887 360.234C522.887 372.438 525.986 383.938 531.451 393.948C526.111 396.184 520.28 397.407 514.194 397.379C502.305 397.338 491.515 392.683 483.499 385.134V426.354H466.792V372.634C463.793 371.931 460.609 371.79 457.468 372.255C452.34 373.029 447.015 373.211 441.564 372.747C408.742 369.879 382.624 342.998 380.765 310.155C379.117 280.897 396.359 255.449 421.447 244.848C431.011 240.8 437.393 231.393 437.224 221.031C437.21 219.808 437.238 218.571 437.322 217.32C438.829 195.049 457.41 177.292 479.765 176.716C504.431 176.07 524.632 195.851 524.632 220.329C524.632 222.086 524.519 223.83 524.322 225.545C524.153 226.867 525.195 228.019 526.533 228.019H526.561C549.791 228.019 569.624 242.487 577.54 262.887C572.966 270.844 570.346 280.067 570.346 289.88Z" fill="url(#paint2_linear)"/>
<path d="M367.807 348.817C367.807 401.962 324.646 445.04 271.398 445.04C239.463 445.04 211.149 429.533 193.611 405.66H201.021C233.814 405.66 261.172 379.608 261.537 346.878C261.734 328.193 253.339 311.477 240.083 300.383C231.8 293.466 227.264 282.963 228.757 272.278C229.095 269.776 229.279 267.203 229.25 264.574C229.152 251.006 223.968 238.48 215.487 228.919C241.857 170.559 271.398 115.305 271.398 115.305C271.398 115.305 367.807 295.673 367.807 348.817Z" fill="url(#paint3_linear)"/>
<path d="M228.752 272.278C229.102 269.769 229.274 267.199 229.255 264.57C229.051 236.081 206.446 212.227 177.937 210.786C146.764 209.21 121.036 234.188 121.036 264.958C121.036 264.971 121.036 264.983 121.036 264.996C121.036 267.262 119.653 269.284 117.549 270.138C91.6342 280.658 73.4211 306.119 73.571 335.67C73.7691 374.576 106.263 405.657 145.245 405.657H160.431V431.644C160.431 435.446 174.671 435.872 174.671 431.943V405.657H201.016C233.806 405.657 261.163 379.609 261.528 346.883C261.737 328.194 253.332 311.474 240.078 300.386C231.798 293.46 227.266 282.96 228.752 272.278Z" fill="url(#paint4_linear)"/>
<path d="M794.591 368.459C794.591 395.706 803.986 419.833 818.425 434.608C787.399 437.012 697.772 443.621 678.29 424.163C697.603 414.321 710.844 394.202 710.844 371.13C710.844 345.542 694.701 323.749 672.163 315.23C676.191 307.653 678.572 299.118 678.572 289.88C678.572 279.982 675.909 270.676 671.247 262.661C703.012 183.634 754.428 87.4384 754.428 87.4384C754.428 87.4384 796.223 165.623 827.721 238.929C812.114 285.648 794.591 343.56 794.591 368.459Z" fill="url(#paint5_linear)"/>
<path d="M908.77 368.458C908.77 413.411 883.211 437.178 851.682 437.178C820.153 437.178 794.594 413.411 794.594 368.458C794.594 323.504 851.682 170.938 851.682 170.938C851.682 170.938 908.77 323.504 908.77 368.458Z" fill="url(#paint6_linear)"/>
<path d="M672.161 315.226C676.196 307.646 678.569 299.119 678.569 289.882C678.569 260.036 654.361 235.64 624.458 235.64C594.554 235.64 570.348 260.037 570.348 289.882C570.348 291.065 570.348 292.488 570.586 293.672C542.818 303.146 522.883 329.438 522.883 360.232C522.883 399.078 554.21 430.581 593.132 430.581H609.745V435.086C609.745 439.113 612.829 442.192 616.864 442.192C620.899 442.192 623.984 438.876 623.984 435.086V430.581H651.514C684.264 430.581 710.846 403.816 710.846 371.127C710.846 345.545 694.706 323.753 672.161 315.226Z" fill="url(#paint7_linear)"/>
<path d="M85.9585 445.017C85.9585 445.017 114.565 396.904 155.224 405.357C158.713 389.161 173.136 377.018 190.407 377.018C207.059 377.018 221.064 388.306 225.173 403.632C229.311 400.624 234.388 398.829 239.899 398.829C244.343 398.829 248.51 399.994 252.128 402.019C252.482 376.815 273.052 356.49 298.389 356.49C306.174 356.49 313.504 358.418 319.943 361.807C326.922 345.124 343.419 333.396 362.665 333.396C388.224 333.396 408.944 354.076 408.944 379.586C408.944 383.479 408.455 387.259 407.547 390.872C415.963 379.368 429.572 371.887 444.938 371.887C448.512 371.887 451.986 372.305 455.329 373.07C461.711 355.184 478.819 342.378 498.929 342.378C522.082 342.378 541.262 359.347 544.669 381.502C551.306 377.833 558.936 375.736 567.061 375.736C576.892 375.736 586.001 378.805 593.497 384.023C601.412 369.896 616.539 360.34 633.908 360.34C650.988 360.34 665.896 369.582 673.914 383.322C677.182 381.766 680.824 380.868 684.685 380.868C694.588 380.868 703.125 386.615 707.197 394.937C708.822 394.15 710.541 393.531 712.34 393.108C716.539 377.916 730.476 366.755 747.032 366.755C763.577 366.755 777.505 377.901 781.715 393.077C782.025 392.731 782.325 392.375 782.654 392.047C780.414 386.623 779.169 380.685 779.169 374.453C779.169 348.944 799.888 328.264 825.448 328.264C851.006 328.264 871.727 348.944 871.727 374.453C871.727 377.1 871.492 379.691 871.064 382.216C884.316 382.877 894.866 393.78 894.866 407.171C894.866 412.055 942.431 418.718 942.43 445.02H85.9585V445.017Z" fill="white"/>
<path d="M393.004 226.834L331.94 97.0856" stroke="#999999" stroke-width="2" stroke-miterlimit="10" stroke-linecap="round"/>
<path d="M391.856 225.391L329.118 125.828" stroke="#999999" stroke-width="2" stroke-miterlimit="10" stroke-linecap="round"/>
<path d="M377.248 241.924L303.258 139.646" stroke="#BDBDBD" stroke-width="2" stroke-miterlimit="10" stroke-linecap="round"/>
<path d="M444.131 200.889L452.496 104.682" stroke="#999999" stroke-width="2" stroke-miterlimit="10" stroke-linecap="round"/>
<path d="M360.37 120.787C348.282 124.347 304.983 141.924 304.983 141.924L283.041 137.395L273.05 128.132C265.662 115.859 267.97 109.118 261.062 101.23C261.066 101.151 261.07 101.072 261.071 100.982C261.165 98.7841 261.348 96.8689 261.58 95.3111C295.211 44.5396 360.37 120.787 360.37 120.787Z" fill="#BF360C"/>
<path d="M402.656 94.733C402.656 94.733 437.287 102.155 452.494 109.764L467.946 92.3336C467.946 92.3336 452.224 72.9934 402.656 94.733Z" fill="#99220E"/>
<path d="M420.926 206.402L369.471 132.342" stroke="#BDBDBD" stroke-width="2" stroke-miterlimit="10" stroke-linecap="round"/>
<path d="M420.926 206.402L376.098 93.686" stroke="#BDBDBD" stroke-width="2" stroke-miterlimit="10" stroke-linecap="round"/>
<path d="M420.926 206.402L411.618 98.6865" stroke="#BDBDBD" stroke-width="2" stroke-miterlimit="10" stroke-linecap="round"/>
<path d="M444.131 200.889L466.659 89.5259" stroke="#999999" stroke-width="2" stroke-miterlimit="10" stroke-linecap="round"/>
<path d="M444.131 200.889L435.301 93.6797" stroke="#999999" stroke-width="2" stroke-miterlimit="10" stroke-linecap="round"/>
<path d="M377.248 241.924L271.072 151.951" stroke="#BDBDBD" stroke-width="2" stroke-miterlimit="10" stroke-linecap="round"/>
<path d="M377.248 241.924L280.987 137.395" stroke="#BDBDBD" stroke-width="2" stroke-miterlimit="10" stroke-linecap="round"/>
<path d="M393.004 226.834L356.48 112.038" stroke="#999999" stroke-width="2" stroke-miterlimit="10" stroke-linecap="round"/>
<path d="M275.241 85.3849C272.986 119.801 283.041 137.395 283.041 137.395L271.071 154.185C262.226 141.924 260.506 114.551 261.062 101.229C261.066 101.149 261.07 101.071 261.071 100.981C261.165 98.7828 265.196 90.3942 265.429 88.8377C299.061 38.0675 275.241 85.3849 275.241 85.3849Z" fill="#D84315"/>
<path d="M467.946 92.3336C464.82 81.2324 459.972 65.7912 452.12 67.2895C424.049 72.6436 383.103 112.038 383.103 112.038C383.103 112.038 308.61 59.6842 287.524 55.5875C311.345 37.3577 360.814 19.9442 383.19 15.3645C405.565 10.7849 430.657 19.6894 456.778 44.4268C482.897 69.1527 467.946 92.3336 467.946 92.3336Z" fill="#D84315"/>
<path d="M467.946 92.3336C442.148 92.7836 383.102 112.038 383.102 112.038C383.102 112.038 417.948 65.3603 456.849 59.4789C463.961 58.404 470.653 63.2676 471.775 70.362C473.814 83.2364 467.946 92.3336 467.946 92.3336Z" fill="#BF360C"/>
<path d="M383.103 112.038L375.749 141.925C374.112 140.94 322.087 98.6878 289.614 89.5273C283.978 87.9365 271.495 88.0506 266.466 93.1448C263.695 95.9524 261.288 98.9324 261.072 100.982C261.166 98.7841 261.349 96.8689 261.582 95.3111C263.259 84.343 263.701 73.8084 287.525 55.5888C311.346 37.359 324.593 44.7411 350.714 69.4773C376.832 94.202 383.103 112.038 383.103 112.038Z" fill="#E64A19"/>
<path d="M470.794 431.229L463.806 435.402C463.806 435.402 460.041 437.652 461.986 441.397C464.977 447.157 465.093 451.178 465.161 453.478C465.267 457.069 470.746 460.764 470.746 460.764C470.746 460.764 472.972 458.125 472.625 451.041C472.333 441.191 476.143 438.363 476.143 438.363L470.794 431.229Z" fill="#424242"/>
<path d="M525.283 392.11L526.538 399.532C526.538 399.532 527.291 403.982 531.109 403.118C533.411 402.597 536.013 400.23 540.761 399.58C549.175 398.429 551.177 394.553 551.177 394.553C551.177 394.553 548.481 391.621 541.676 392.625C533.23 393.871 533.873 390.165 533.873 390.165L525.283 392.11Z" fill="#424242"/>
<path d="M534.61 391.637C534.61 391.637 531.743 341.042 517.321 337.735C502.899 334.428 466.045 362.941 466.045 362.941L484.352 393.672C492.911 379.636 507.688 357.514 511.641 355.274C511.641 355.274 509.728 362.772 525.054 393.569L534.61 391.637Z" fill="#283593"/>
<path d="M445.945 249.231C445.636 249.231 445.326 249.101 445.111 248.847L423.466 223.445L424.011 224.944C424.218 225.511 423.924 226.138 423.357 226.343C422.784 226.55 422.162 226.257 421.955 225.689L419.333 218.486C419.152 217.989 419.354 217.434 419.811 217.168C420.269 216.9 420.854 217.003 421.195 217.405L446.778 247.43C447.169 247.89 447.113 248.58 446.654 248.97C446.449 249.145 446.196 249.231 445.945 249.231Z" fill="#BDBDBD"/>
<path d="M483.048 299.696C482.615 299.696 482.205 299.438 482.032 299.012L472.844 276.292C472.618 275.733 472.888 275.096 473.45 274.87C474.005 274.647 474.648 274.914 474.874 275.473L484.063 298.193C484.289 298.752 484.018 299.389 483.457 299.615C483.324 299.671 483.185 299.696 483.048 299.696Z" fill="#BF360C"/>
<path d="M435.395 310.09C434.873 310.153 434.328 309.965 433.958 309.539L375.299 242.193C374.704 241.51 374.776 240.475 375.461 239.881C376.146 239.288 377.181 239.359 377.778 240.043L436.437 307.389C437.031 308.072 436.96 309.106 436.274 309.701C436.016 309.924 435.71 310.052 435.395 310.09Z" fill="#BF360C"/>
<path d="M430.578 308.574C429.967 308.565 429.384 308.215 429.11 307.623L391.087 225.701C390.706 224.879 391.065 223.906 391.888 223.526C392.707 223.147 393.685 223.503 394.068 224.324L432.091 306.247C432.472 307.068 432.114 308.042 431.291 308.422C431.059 308.528 430.816 308.578 430.578 308.574Z" fill="#BF360C"/>
<path d="M475.434 439.48C475.434 439.48 520.757 416.636 518.03 402.12C515.303 387.604 474.385 365.284 474.385 365.284C474.385 365.284 470.749 327.18 457.115 309.035C443.48 290.891 434.454 286.225 428.147 291.444C420.448 297.816 426.958 306.186 430.754 330.809C432.572 342.604 435.3 348.954 435.3 364.378C435.3 369.897 433.482 391.594 453.48 394.317C469.792 396.537 496.016 401.215 499.652 403.936C499.652 403.936 492.001 405.182 469.843 431.514L475.434 439.48Z" fill="#3949AB"/>
<path d="M456.63 274.511C456.63 274.511 459.064 287.406 457.713 293.85C456.362 300.295 439.872 286.359 439.872 286.359L440.492 272.795L456.63 274.511Z" fill="#FAD6B7"/>
<path d="M459.02 275.447C459.02 275.447 455.982 259.875 443.208 257.749C430.435 255.624 420.255 265.445 421.583 276.319C422.91 287.193 428.147 291.443 428.147 291.443C428.147 291.443 438.368 292.671 442.173 295.888C445.979 299.104 455.005 307.817 455.005 307.817C455.005 307.817 461.731 307 461.673 297.197L452.793 289.693L452.44 277.474C452.44 277.474 456.777 275.719 459.02 275.447Z" fill="#424242"/>
<path d="M435.681 292.685L415.628 319.83C415.628 319.83 411.588 294.445 428.146 291.443L435.681 292.685Z" fill="#F9A825"/>
<path d="M410.416 319.83C410.416 319.83 406.536 323.48 403.983 333.002C402.716 337.731 393.746 359.609 394.386 363.228C395.026 366.847 396.091 368.975 396.091 368.975L406.534 363.015C406.536 363.015 414.519 324.325 410.416 319.83Z" fill="#F9A825"/>
<path d="M407.822 333.002C407.822 333.002 403.983 337.897 403.983 346.837C403.983 355.777 403.983 364.504 403.983 364.504C403.983 364.504 407.395 365.995 411.448 364.504C415.501 363.014 422.751 349.084 422.751 349.084L415.06 331.92L407.822 333.002Z" fill="#5C6BC0"/>
<path d="M420.187 311.983C420.187 311.983 425.737 304.267 431.495 324.275C437.253 344.283 446.21 362.376 443.011 364.506C439.812 366.635 427.074 370.836 409.656 372.94C409.656 372.94 408.662 366.848 408.8 365.109C409.187 360.258 414.219 346.413 414.219 346.413C414.219 346.413 412.873 336.834 413.226 333.003H407.821C407.822 333.002 410.151 317.877 420.187 311.983Z" fill="#FBC02D"/>
<path d="M420.913 307.036C427.56 307.036 421.524 306.955 425.743 314.25C425.743 314.25 417.433 316.447 413.227 333.002H407.822C407.822 333.002 409.27 307.036 420.913 307.036Z" fill="#FDD835"/>
<path d="M421.397 316.984C421.397 316.984 425.753 288.168 440.752 288.168C451.66 288.168 462.155 301.747 463.298 326.576C464.243 347.1 459.737 355.265 443.46 360.59L440.918 351.977C440.918 351.977 457.287 348.545 455.026 327.27C453.054 308.734 448.025 297.44 440.791 297.44C435.297 297.44 428.159 308.436 428.856 316.693C424.562 319.83 421.397 316.984 421.397 316.984Z" fill="#FBC02D"/>
<path d="M481.12 288.334C481.12 288.334 479.303 298.313 481.12 301.035C482.939 303.756 481.12 309.2 481.12 309.2L491.421 311.044C491.421 311.044 495.664 301.036 492.938 297.407C490.21 293.777 485.664 286.519 481.12 288.334Z" fill="#424242"/>
<path d="M441.661 304.849C437.684 306.541 433.48 311.199 440.752 322.086C448.024 332.973 466.575 342.952 471.12 342.952C475.666 342.952 486.574 329.159 492.936 309.199L480.211 305.57C480.211 305.57 468.719 320.271 468.101 323.9C468.101 323.901 450.634 301.031 441.661 304.849Z" fill="#5C6BC0"/>
<path d="M452.53 349.778L462.554 359.48C462.554 359.48 462.778 360.884 461.264 361.3L450.633 352.361L452.53 349.778Z" fill="#FBC02D"/>
<path d="M478.021 367.098C478.021 367.098 470.749 358.026 463.477 358.026C456.205 358.026 459.614 368.358 460.77 375.725C461.894 382.895 462.569 390.233 458.933 392.502C455.755 394.484 453.48 394.317 453.48 394.317C453.48 394.317 462.839 399.845 473.477 397.946C473.477 397.946 473.477 388.874 469.841 373.451C468.368 367.203 472.567 366.19 478.021 367.098Z" fill="#FFAB00"/>
<path d="M459.462 344.97L463.418 359.524C463.418 359.524 462.844 360.953 461.198 360.503L456.25 346.323L459.462 344.97Z" fill="#FBC02D"/>
<path d="M442.263 299.35C442.252 299.35 442.24 299.35 442.229 299.35C441.322 299.332 440.602 298.583 440.62 297.678L442.595 200.436C442.613 199.542 443.345 198.83 444.236 198.83C444.247 198.83 444.259 198.83 444.27 198.83C445.177 198.848 445.897 199.597 445.879 200.502L443.904 297.744C443.886 298.638 443.155 299.35 442.263 299.35Z" fill="#BF360C"/>
<path d="M442.262 299.35C441.515 299.35 440.84 298.839 440.664 298.083L419.382 206.876C419.176 205.994 419.724 205.113 420.608 204.908C421.49 204.699 422.375 205.251 422.579 206.132L443.862 297.339C444.068 298.221 443.519 299.102 442.635 299.307C442.51 299.337 442.385 299.35 442.262 299.35Z" fill="#BF360C"/>
<path d="M473.86 276.977C473.58 276.977 473.301 276.87 473.086 276.659L422.211 226.091C421.783 225.665 421.782 224.973 422.208 224.546C422.634 224.119 423.328 224.118 423.757 224.542L474.632 275.11C475.06 275.536 475.061 276.228 474.636 276.655C474.422 276.869 474.14 276.977 473.86 276.977Z" fill="#CCCCCC"/>
<path d="M493.851 303.802C493.517 303.802 493.185 303.65 492.971 303.361L472.98 276.534C472.619 276.05 472.719 275.366 473.206 275.006C473.689 274.644 474.377 274.746 474.737 275.23L494.728 302.056C495.089 302.541 494.989 303.225 494.502 303.585C494.308 303.732 494.078 303.802 493.851 303.802Z" fill="#BF360C"/>
<path d="M590.297 378.38C590.297 378.38 585.583 381.941 586.229 383.345C586.876 384.75 591.406 380.617 592.704 380.933C594 381.25 590.297 378.38 590.297 378.38Z" fill="#DEC270"/>
<path d="M597.704 389.834C597.704 389.834 594.764 393.322 595.461 394.065C596.158 394.808 600.11 390.607 600.11 390.607L597.704 389.834Z" fill="#DEC270"/>
<path d="M603.156 396.108C603.156 396.108 600.65 397.002 600.154 398.542C599.657 400.082 601.18 397.615 603.853 398.031C606.528 398.447 603.156 396.108 603.156 396.108Z" fill="#DEC270"/>
<path d="M604.03 401.366C604.03 401.366 600.734 402.225 599.681 404.205C599.681 404.205 604.301 403.543 605.536 403.524C606.769 403.505 604.03 401.366 604.03 401.366Z" fill="#DEC270"/>
<path d="M606.102 406.108C606.102 406.108 602.793 407.107 603.467 408.257C604.141 409.408 606.877 407.854 606.877 407.854C606.877 407.854 608.724 405.925 606.102 406.108Z" fill="#DEC270"/>
<path d="M607.755 409.847C607.755 409.847 601.2 414.82 601.849 415.794C602.497 416.768 606.099 415.429 609.158 413.056C612.216 410.681 607.755 409.847 607.755 409.847Z" fill="#DEC270"/>
<path d="M610.218 416.323C610.218 416.323 605.57 421.489 606.655 422.772C607.739 424.055 613.688 418.594 613.688 418.594L610.218 416.323Z" fill="#DEC270"/>
<path d="M616.787 421.501C616.787 421.501 614.506 424.624 614.948 425.514C615.39 426.404 618.607 422.728 620.429 423.436C622.252 424.145 618.876 420.394 616.787 421.501Z" fill="#DEC270"/>
<path d="M588.259 375.763C588.259 375.763 591.474 379.219 591.741 381.69C591.741 381.69 591.949 384.091 593.261 385.622C593.261 385.622 597.493 388.967 598.351 390.833C599.21 392.698 602.08 392.029 602.08 392.029C602.08 392.029 601.819 393.667 603.193 395.168C603.193 395.168 602.793 398.882 604.592 402.77C606.392 406.659 610.121 415.275 610.121 415.275C610.121 415.275 609.974 416.552 610.907 417.779C611.839 419.006 613.193 418.513 614.648 420.172C616.104 421.832 619.648 424.426 621.471 426.6C623.292 428.774 627.436 434.718 629.835 438.955C639.069 455.267 638.873 475.327 639.069 480.075L649.864 487.364L657.175 459.015L595.754 372.116L589.021 373.399L588.259 375.763Z" fill="#FFCCBC"/>
<path d="M626.33 486.095C627.633 487.29 647.417 486.276 657.175 488.63C657.175 488.63 648.942 459.398 643.547 451.964C643.547 451.964 641.55 451.711 640.959 451.133C640.367 450.555 642.278 450.261 641.401 448.554C640.523 446.847 637.348 443.4 637.713 442.268C638.077 441.136 637.653 439.875 636.857 439.802C636.857 439.802 636.411 439.203 636.597 438.625C636.783 438.047 636.308 434.709 634.64 435.358C634.64 435.358 633.031 433.84 633.243 433.18C633.456 432.52 633.631 430.846 632.252 430.313C632.252 430.313 632.426 428.638 632.338 428.064C632.249 427.49 630.383 427.619 629.769 426.694C629.155 425.769 629.724 425.132 627.817 423.974C625.909 422.815 625.733 421.666 625.733 421.666C625.733 421.666 624.995 419.426 622.88 419.475C622.88 419.475 621.54 417.407 619.922 417.616C619.922 417.616 619.347 415.156 616.982 414.851C616.982 414.851 617.083 413.973 617.434 413.448C617.434 413.448 616.592 411.813 615.985 411.435C615.985 411.435 615.442 409.44 613.928 409.045C613.928 409.045 612.535 407.141 612.827 406.233C613.119 405.326 612.23 404.403 611.291 403.92C610.353 403.437 609.983 402.317 610.249 401.491C610.514 400.666 610.119 399.629 609.319 399.281C608.519 398.933 608.472 397.097 608.472 397.097C608.472 397.097 608.898 395.776 607.628 395.187C606.358 394.597 605.339 391.812 605.496 391.043C605.496 391.043 602.207 389.077 602.606 387.84C602.606 387.84 600.132 387.593 599.379 386.532C599.379 386.532 599.249 384.67 598.202 384.241C598.202 384.241 598.172 381.501 596.106 380.838C596.106 380.838 595.226 378.189 593.848 377.655L594.049 375.898C594.049 375.898 591.655 375.403 591.232 374.448C591.232 374.448 588.912 373.775 588.264 375.762C588.264 375.762 585.941 369.742 590.598 368.514C595.255 367.285 604.503 372.975 604.503 372.975C604.503 372.975 607.064 372.436 608.576 374.622C610.088 376.809 612.328 379.91 612.328 379.91C612.328 379.91 613.63 381.69 612.366 383.496C611.102 385.302 619.423 390.694 619.026 396.692C619.026 396.692 622.287 399.271 622.568 401.573C622.568 401.573 626.352 405.17 626.265 406.502C626.265 406.502 631.59 405.318 632.39 412.892C632.39 412.892 638.741 416.461 639.381 418.708C640.021 420.956 654.286 428.021 655.552 431.484C655.552 431.484 661.651 436.497 662.076 437.993C662.076 437.993 672.746 442.548 674.038 448.398C674.038 448.398 679.932 449.939 681.858 456.433C683.784 462.925 691.751 467.67 692.8 469.707C693.848 471.744 699.715 476.857 695.326 477.635C695.326 477.635 696.91 481.789 699.779 486.111C702.648 490.434 709.365 492.433 712.278 501.137C713.069 503.501 722.696 510.376 721.881 512.908C721.881 512.908 732.072 517.009 732.493 523.532C732.493 523.532 711.157 525.821 695.166 521.69C687.908 519.815 676.176 521.448 670.825 523.487C660.691 527.351 651.388 525.948 639.378 522.69C631.615 520.585 608.386 524.706 606.577 523.23C582.79 503.84 559.529 466.909 559.529 466.909L626.33 486.095Z" fill="#558B2F"/>
<path d="M665.323 443.735C665.323 443.735 668.085 442.812 669.239 444.63C670.394 446.447 671.385 449.442 671.458 450.117C671.458 450.117 669.836 449.524 668.867 448.707C667.898 447.89 666.692 447.359 665.921 446.604C665.15 445.85 664.971 445.503 665.323 443.735Z" fill="#424242"/>
<path d="M598.198 384.243C598.198 384.243 593.867 388.49 593.763 390.053C593.659 391.616 599.375 386.533 599.375 386.533L599.964 384.703L598.198 384.243Z" fill="#FFF9C4"/>
<path d="M603.376 389.015C603.376 389.015 599.78 392.289 600.335 393.876L605.554 389.978L603.376 389.015Z" fill="#FFF9C4"/>
<path d="M607.625 395.188C607.625 395.188 604.586 397.416 604.893 398.013C605.201 398.61 607.238 396.833 608.47 397.097C609.7 397.362 609.063 395.14 607.625 395.188Z" fill="#FFF9C4"/>
<path d="M609.317 399.282C609.317 399.282 605.566 401.821 605.935 402.538C606.303 403.256 610.246 401.493 610.246 401.493C610.246 401.493 612.047 399.907 609.317 399.282Z" fill="#FFF9C4"/>
<path d="M611.288 403.92C611.288 403.92 607.664 406.785 607.913 407.563C608.162 408.341 612.823 406.233 612.823 406.233C612.823 406.233 614.037 403.768 611.288 403.92Z" fill="#FFF9C4"/>
<path d="M613.924 409.045C613.924 409.045 609.246 413.254 609.684 414.264C610.122 415.273 615.982 411.435 615.982 411.435C615.982 411.435 617.149 408.936 613.924 409.045Z" fill="#FFF9C4"/>
<path d="M616.98 414.851C616.98 414.851 612.452 421.091 613.487 422.221C614.522 423.35 615.815 418.655 619.92 417.616C624.026 416.575 616.98 414.851 616.98 414.851Z" fill="#FFF9C4"/>
<path d="M622.879 419.475C622.879 419.475 621.095 422.567 621.722 423.067C622.349 423.568 624.428 420.653 625.731 421.666C627.034 422.677 626.265 417.995 622.879 419.475Z" fill="#FFF9C4"/>
<path d="M627.816 423.972C627.816 423.972 625.511 426.478 625.97 427.224C626.43 427.97 629.768 426.693 629.768 426.693C629.768 426.693 630.715 423.653 627.816 423.972Z" fill="#FFF9C4"/>
<path d="M632.249 430.312C632.249 430.312 629.67 432.801 629.948 433.489C630.226 434.178 633.241 433.18 633.241 433.18C633.241 433.18 635.782 429.825 632.249 430.312Z" fill="#FFF9C4"/>
<path d="M634.638 435.356C634.638 435.356 632.437 438.178 632.831 438.504C633.224 438.829 636.595 438.625 636.595 438.625C636.595 438.625 638.641 435.009 634.638 435.356Z" fill="#FFF9C4"/>
<path d="M593.843 377.656C593.843 377.656 590.937 379.095 591.338 380.393C591.74 381.691 597.172 379.359 597.172 379.359L593.843 377.656Z" fill="#FFF9C4"/>
<path d="M535.72 442.807C535.72 442.807 534.495 447.094 535.822 447.394C537.149 447.695 538.184 447.137 538.184 447.137C538.184 447.137 538.156 444.142 535.72 442.807Z" fill="#DEC270"/>
<path d="M544.307 446.669C544.307 446.669 543.348 446.099 541.983 449.093C540.617 452.087 544.27 449.846 544.27 449.846C544.27 449.846 544.802 447.56 544.307 446.669Z" fill="#DEC270"/>
<path d="M551.232 448.088C551.232 448.088 548.826 449.823 548.321 452.004C547.814 454.187 551.063 452.18 551.063 452.18C551.063 452.18 552.032 449.031 551.232 448.088Z" fill="#DEC270"/>
<path d="M559.491 445.663C559.491 445.663 556.65 445.859 554.378 451.43C552.104 457.001 557.741 452.425 557.741 452.425C557.741 452.425 559.798 447.02 559.491 445.663Z" fill="#DEC270"/>
<path d="M562.489 453.326C562.489 453.326 560.396 454.509 560.098 456.33C559.798 458.152 562.651 456.566 562.651 456.566C562.651 456.566 563.145 454.486 562.489 453.326Z" fill="#DEC270"/>
<path d="M567.087 454.675C567.087 454.675 565.484 455.505 564.935 457.772C564.385 460.038 566.638 458.461 566.638 458.461C566.638 458.461 567.869 456.379 567.087 454.675Z" fill="#DEC270"/>
<path d="M591.406 460.778C591.406 460.778 589.709 462.454 589.184 464.796C588.66 467.139 592.366 464.45 592.366 464.45C592.366 464.45 592.673 460.939 591.406 460.778Z" fill="#DEC270"/>
<path d="M598.992 462.35C598.992 462.35 597.899 461.408 596.104 465.06C594.309 468.712 599.023 465.828 599.023 465.828C599.023 465.828 599.964 463.051 598.992 462.35Z" fill="#DEC270"/>
<path d="M577.894 460.657C577.894 460.657 576.97 460.252 575.718 462.529C574.465 464.805 578.185 463.321 578.185 463.321C578.185 463.321 578.843 461.151 577.894 460.657Z" fill="#DEC270"/>
<path d="M648.05 467.405C648.05 467.405 648.942 459.398 643.546 451.964C643.546 451.964 641.549 451.712 640.957 451.134C640.366 450.556 642.277 450.261 641.399 448.554C640.522 446.847 637.347 443.4 637.711 442.268C638.076 441.136 637.652 439.875 636.855 439.802C636.855 439.802 636.41 439.203 636.596 438.625C636.782 438.047 636.307 434.709 634.639 435.358C634.639 435.358 633.03 433.84 633.242 433.18C633.454 432.52 633.63 430.846 632.25 430.313C632.25 430.313 632.424 428.638 632.337 428.064C632.248 427.49 630.382 427.619 629.768 426.694C629.154 425.769 629.723 425.132 627.815 423.974C625.908 422.815 625.731 421.666 625.731 421.666C625.731 421.666 624.994 419.426 622.879 419.475C622.879 419.475 621.539 417.407 619.921 417.616C619.921 417.616 619.346 415.156 616.981 414.851C616.981 414.851 617.081 413.973 617.433 413.448C617.433 413.448 616.591 411.813 615.984 411.435C615.984 411.435 615.441 409.44 613.927 409.045C613.927 409.045 612.534 407.141 612.826 406.233C613.118 405.326 612.229 404.403 611.29 403.92C610.352 403.437 609.982 402.317 610.248 401.491C610.513 400.666 610.118 399.629 609.318 399.281C608.518 398.933 608.471 397.097 608.471 397.097C608.471 397.097 608.896 395.776 607.626 395.187C606.356 394.597 605.338 391.812 605.495 391.043C605.495 391.043 602.206 389.077 602.605 387.84C602.605 387.84 600.131 387.593 599.378 386.532C599.378 386.532 599.248 384.67 598.2 384.241C598.2 384.241 598.171 381.501 596.105 380.838C596.105 380.838 595.225 378.189 593.847 377.655L594.047 375.898C594.047 375.898 591.654 375.403 591.231 374.448C591.231 374.448 588.91 373.775 588.263 375.762C588.263 375.762 585.94 369.742 590.597 368.514C595.254 367.285 598.146 372.88 598.146 372.88C598.146 372.88 601.078 375.775 602.59 377.962C604.101 380.148 605.687 383.985 605.687 383.985C605.687 383.985 610.409 387.623 609.145 389.429C607.882 391.236 611.753 390.985 612.333 394.094C612.333 394.094 614.205 397.511 614.487 399.813C614.487 399.813 617.606 403.095 617.517 404.427C617.517 404.427 619.432 405.61 620.188 409.619C620.188 409.619 622.968 411.439 623.992 413.441L624.028 416.574C626.919 417.848 629.52 419.553 630.551 420.055C631.582 420.555 633.986 423.411 633.898 426.075C633.898 426.075 635.248 426.509 636.754 427.766C636.754 427.766 637.518 430.786 636.962 432.515C636.962 432.515 640.674 432.318 641.022 435.552C641.022 435.552 645.076 439.723 647.495 442.424C647.495 442.424 655.441 443.646 656.942 451.931C656.942 451.931 670.655 461.352 673.539 468.882C679.055 483.281 671.61 488.262 674.479 492.586C666.695 494.52 657.076 492.618 649.033 492.748C639.776 492.899 656.695 489.892 652.586 483.285L648.05 467.405Z" fill="#7CB342"/>
<path d="M670.876 487.722C675.26 490.505 677.313 492.23 670.02 495.619C661.628 499.521 657.724 502.231 648.771 503.574C639.817 504.918 618.668 493.938 616.638 492.786C610.254 489.162 581.82 478.637 581.82 478.637C581.82 478.637 562.874 472.725 555.215 469.514C555.215 469.514 547.56 464.043 544.483 463.08C541.406 462.117 536.171 460.091 533.632 455.547C531.094 451.003 530.614 446.607 535.55 445.885C540.485 445.163 543.99 450.934 548.321 452.003C548.321 452.003 550.725 451.434 552.009 452.833C552.009 452.833 553.83 450.686 556.389 451.537C558.949 452.387 558.098 454.941 559.078 455.451C559.078 455.451 561.472 454.78 563.632 457.623C563.632 457.623 566.284 457.438 568.411 459.976C568.411 459.976 570.342 459.767 571.119 460.297C571.896 460.826 572.479 462.406 573.754 462.78C575.028 463.154 575.73 462.052 576.925 462.64C578.12 463.228 579.236 464.031 580.611 464.393C581.986 464.757 583.298 463.588 584.742 463.637C586.186 463.685 586.275 464.496 587.719 464.544C589.163 464.592 589.379 463.748 590.947 463.988C592.516 464.227 592.797 464.915 594.07 465.289C595.344 465.663 596.635 464.293 598.166 465.153C599.698 466.012 599.506 467.197 600.556 467.703C601.607 468.209 603.82 466.851 605.376 467.428C606.93 468.003 606.285 470.059 607.963 470.622C609.641 471.185 626.595 477.284 636.468 475.467C636.468 475.467 642.112 475.683 643.87 476.299C645.979 477.038 649.569 479.889 651.659 480.684C653.917 481.543 659.002 482.285 661.046 482.979C663.628 483.86 670.876 487.722 670.876 487.722Z" fill="#689F38"/>
<path d="M344.341 527.251C344.341 527.251 334.765 529.043 324.915 529.043C319.749 529.043 308.437 526.285 304.371 526.818C299.641 527.438 290.429 530.537 285.658 530.537C274.71 530.537 265.518 526.818 265.518 526.818C265.923 523.629 264.593 520.684 265.518 517.366C265.986 515.687 268.538 513.656 269.117 511.974C269.912 509.667 268.596 506.528 269.568 504.261C270.595 501.866 273.919 500.347 275.1 498.055C276.191 495.94 274.635 492.302 275.82 490.325C276.894 488.534 280.703 488.388 281.827 486.748C282.792 485.341 282.577 480.712 283.563 479.44C285.114 477.437 287.872 478.9 289.419 477.307C304.744 461.534 343.224 477.307 343.224 477.307C343.224 477.307 348.435 497.37 344.341 527.251Z" fill="#457C28"/>
<path d="M291.465 495.656C291.465 495.656 288.466 509.028 283.845 514.416C280.742 518.032 290.43 530.537 285.66 530.537C274.711 530.537 265.519 526.818 265.519 526.818C265.924 523.629 264.594 520.684 265.519 517.366C265.987 515.687 268.539 513.656 269.118 511.974C269.913 509.667 268.597 506.528 269.569 504.261C270.596 501.866 273.92 500.347 275.101 498.055C276.192 495.94 274.636 492.302 275.821 490.325C276.895 488.534 280.704 488.388 281.828 486.748C282.793 485.341 282.579 480.712 283.564 479.44C285.115 477.437 287.873 478.9 289.42 477.307C304.745 461.534 343.225 477.307 343.225 477.307C343.225 477.307 295.558 465.775 291.465 495.656Z" fill="#517F2D"/>
<path d="M338.001 358.492C338.001 358.492 343.042 359.707 343.014 361.062C342.986 362.417 337.895 360.678 336.963 361.386C336.03 362.095 338.001 358.492 338.001 358.492Z" fill="#DEC270"/>
<path d="M336.065 370.291C336.065 370.291 339.652 372.068 339.353 372.908C339.053 373.749 334.401 371.754 334.401 371.754L336.065 370.291Z" fill="#DEC270"/>
<path d="M333.884 377.241C333.884 377.241 336.212 377.082 337.152 378.147C338.092 379.212 336.001 377.76 333.998 379.029C331.994 380.299 333.884 377.241 333.884 377.241Z" fill="#DEC270"/>
<path d="M335.027 381.773C335.027 381.773 337.978 381.312 339.52 382.537C339.52 382.537 335.573 383.62 334.575 384.036C333.575 384.451 335.027 381.773 335.027 381.773Z" fill="#DEC270"/>
<path d="M335.025 386.31C335.025 386.31 338.037 385.956 337.899 387.116C337.76 388.277 335.016 387.984 335.016 387.984C335.016 387.984 332.854 387.079 335.025 386.31Z" fill="#DEC270"/>
<path d="M335.009 389.893C335.009 389.893 342.024 391.599 341.845 392.61C341.665 393.62 338.3 393.802 335.008 392.963C331.716 392.124 335.009 389.893 335.009 389.893Z" fill="#DEC270"/>
<path d="M335.3 395.962C335.3 395.962 340.851 398.491 340.428 399.902C340.006 401.313 333.308 399.002 333.308 399.002L335.3 395.962Z" fill="#DEC270"/>
<path d="M331.838 402.422C331.838 402.422 334.768 404.135 334.725 405.005C334.683 405.875 330.806 404.044 329.588 405.251C328.372 406.456 329.769 402.262 331.838 402.422Z" fill="#DEC270"/>
<path d="M338.72 355.676C338.72 355.676 337.349 359.58 338.001 361.659C338.001 361.659 338.677 363.662 338.159 365.351C338.159 365.351 335.931 369.52 335.894 371.32C335.859 373.12 333.316 373.586 333.316 373.586C333.316 373.586 334.102 374.812 333.523 376.499C333.523 376.499 335.148 379.345 335.066 383.101C334.984 386.856 335.011 395.086 335.011 395.086C335.011 395.086 335.577 396.062 335.257 397.374C334.937 398.686 333.677 398.764 333.089 400.607C332.501 402.45 330.562 405.774 329.861 408.16C329.16 410.545 328.503 416.874 327.472 421.017C325.822 427.645 325.112 446.276 326.621 450.162C326.621 450.162 326.721 446.555 329.134 443.398C335.98 434.444 342.956 432.915 342.956 432.915L335.367 474.404L312.53 446.703L331.413 355.365L337.276 354.043L338.72 355.676Z" fill="#FFCCBC"/>
<path d="M324.744 464.61C324.744 464.61 319.285 444.132 321.015 436.269C321.015 436.269 322.532 435.369 322.805 434.696C323.078 434.023 321.437 434.456 321.545 432.777C321.651 431.097 322.994 427.216 322.304 426.434C321.615 425.652 321.512 424.49 322.126 424.151C322.126 424.151 322.275 423.515 321.922 423.116C321.569 422.716 320.78 419.866 322.349 419.804C322.349 419.804 323.109 418.021 322.707 417.564C322.304 417.108 321.577 415.822 322.497 414.912C322.497 414.912 321.77 413.627 321.639 413.135C321.508 412.642 323.054 412.094 323.222 411.135C323.391 410.177 322.709 409.864 323.837 408.265C324.965 406.667 324.703 405.681 324.703 405.681C324.703 405.681 324.51 403.622 326.227 402.922C326.227 402.922 326.579 400.79 327.953 400.392C327.953 400.392 327.552 398.212 329.348 397.141C329.348 397.141 328.959 396.471 328.492 396.172C328.492 396.172 328.595 394.562 328.95 394.046C328.95 394.046 328.686 392.252 329.765 391.404C329.765 391.404 330.218 389.386 329.664 388.759C329.11 388.131 329.501 387.079 330.087 386.362C330.672 385.645 330.576 384.615 330.073 384.045C329.57 383.475 329.523 382.502 330.045 381.943C330.566 381.384 329.96 379.891 329.96 379.891C329.96 379.891 329.155 378.979 329.969 378.061C330.783 377.143 330.624 374.548 330.228 373.984C330.228 373.984 332.182 371.254 331.427 370.399C331.427 370.399 333.329 369.334 333.562 368.218C333.562 368.218 333.012 366.676 333.705 365.966C333.705 365.966 332.766 363.753 334.195 362.497C334.195 362.497 333.973 360.059 334.894 359.148L334.115 357.806C334.115 357.806 335.867 356.57 335.87 355.654C335.87 355.654 337.499 354.302 338.718 355.672C338.718 355.672 338.473 350.02 334.297 350.662C330.121 351.303 324.683 359.111 324.683 359.111C324.683 359.111 322.435 359.572 321.987 361.859C321.538 364.146 320.826 367.422 320.826 367.422C320.826 367.422 320.403 369.308 322.054 370.319C323.704 371.329 318.907 378.574 321.331 383.257C321.331 383.257 319.614 386.47 320.196 388.418C320.196 388.418 318.416 392.633 318.954 393.673C318.954 393.673 314.258 394.583 316.272 400.951C316.272 400.951 312.419 406.042 312.693 408.072C312.967 410.103 303.978 420.771 304.175 423.998C304.175 423.998 301.032 430.161 301.215 431.512C301.215 431.512 294.236 438.905 295.249 444.059C295.249 444.059 291.052 447.359 291.782 453.253C292.513 459.146 290.178 463.541 289.872 465.528C287.51 480.824 294.503 489.265 306.29 493.753C322.563 499.949 338.718 489.394 343.225 485.094C361.435 467.717 352.756 445.985 352.756 445.985C352.756 445.985 356.471 434.18 354.325 430.037L342.773 444.541L324.744 464.61Z" fill="#558B2F"/>
<path d="M300.619 437.265C300.619 437.265 298.075 437.49 297.784 439.354C297.495 441.219 297.748 443.974 297.927 444.542C297.927 444.542 299.023 443.499 299.514 442.503C300.007 441.506 300.789 440.657 301.145 439.781C301.5 438.905 301.523 438.564 300.619 437.265Z" fill="#424242"/>
<path d="M333.706 365.967C333.706 365.967 338.678 367.867 339.311 369.088C339.943 370.308 333.563 368.22 333.563 368.22L332.447 366.955L333.706 365.967Z" fill="#FFF9C4"/>
<path d="M331.218 371.615C331.218 371.615 335.258 372.991 335.369 374.46L329.805 373.15L331.218 371.615Z" fill="#FFF9C4"/>
<path d="M329.969 378.063C329.969 378.063 333.195 378.792 333.156 379.38C333.12 379.968 330.858 379.251 329.96 379.894C329.062 380.536 328.797 378.527 329.969 378.063Z" fill="#FFF9C4"/>
<path d="M330.045 381.946C330.045 381.946 333.952 382.676 333.907 383.382C333.863 384.088 330.073 384.049 330.073 384.049C330.073 384.049 328.069 383.403 330.045 381.946Z" fill="#FFF9C4"/>
<path d="M330.088 386.365C330.088 386.365 334.006 387.4 334.08 388.114C334.152 388.826 329.667 388.761 329.667 388.761C329.667 388.761 327.824 387.204 330.088 386.365Z" fill="#FFF9C4"/>
<path d="M329.767 391.407C329.767 391.407 335.006 393.156 335.008 394.121C335.011 395.085 328.952 394.047 328.952 394.047C328.952 394.047 327.135 392.446 329.767 391.407Z" fill="#FFF9C4"/>
<path d="M329.348 397.142C329.348 397.142 335.178 400.576 334.743 401.846C334.307 403.116 331.62 399.793 327.955 400.392C324.289 400.992 329.348 397.142 329.348 397.142Z" fill="#FFF9C4"/>
<path d="M326.229 402.922C326.229 402.922 328.748 404.784 328.419 405.406C328.09 406.028 325.397 404.411 324.703 405.679C324.011 406.949 322.986 402.916 326.229 402.922Z" fill="#FFF9C4"/>
<path d="M323.838 408.264C323.838 408.264 326.571 409.472 326.463 410.232C326.355 410.993 323.224 411.132 323.224 411.132C323.224 411.132 321.395 409.022 323.838 408.264Z" fill="#FFF9C4"/>
<path d="M322.499 414.911C322.499 414.911 325.446 416.011 325.464 416.661C325.482 417.312 322.708 417.564 322.708 417.564C322.708 417.564 319.486 415.755 322.499 414.911Z" fill="#FFF9C4"/>
<path d="M322.349 419.802C322.349 419.802 325.108 421.301 324.905 421.701C324.702 422.102 321.922 423.114 321.922 423.114C321.922 423.114 319.009 420.923 322.349 419.802Z" fill="#FFF9C4"/>
<path d="M334.895 359.15C334.895 359.15 337.736 359.291 337.868 360.475C338 361.659 332.816 361.683 332.816 361.683L334.895 359.15Z" fill="#FFF9C4"/>
<path d="M376.075 373.745C376.075 373.745 379.308 375.952 378.58 376.896C377.854 377.84 376.843 378.043 376.843 378.043C376.843 378.043 375.181 376.007 376.075 373.745Z" fill="#DEC270"/>
<path d="M372.45 381.152C372.45 381.152 372.777 380.232 375.379 381.487C377.981 382.743 374.259 383.274 374.259 383.274C374.259 383.274 372.617 382.032 372.45 381.152Z" fill="#DEC270"/>
<path d="M368.574 385.983C368.574 385.983 371.17 385.808 372.737 386.997C374.304 388.186 370.987 388.649 370.987 388.649C370.987 388.649 368.564 387.067 368.574 385.983Z" fill="#DEC270"/>
<path d="M361.641 388.967C361.641 388.967 363.667 387.51 368.328 389.997C372.989 392.484 366.617 392.549 366.617 392.549C366.617 392.549 362.196 390.054 361.641 388.967Z" fill="#DEC270"/>
<path d="M363.922 395.813C363.922 395.813 365.997 395.44 367.222 396.501C368.446 397.562 365.632 398.088 365.632 398.088C365.632 398.088 364.13 396.962 363.922 395.813Z" fill="#DEC270"/>
<path d="M361.578 399.295C361.578 399.295 363.124 398.959 364.768 400.181C366.411 401.403 364.006 401.598 364.006 401.598C364.006 401.598 362.006 400.882 361.578 399.295Z" fill="#DEC270"/>
<path d="M348.598 417.012C348.598 417.012 350.684 417.194 352.352 418.48C354.023 419.767 350.012 420.027 350.012 420.027C350.012 420.027 347.833 417.83 348.598 417.012Z" fill="#DEC270"/>
<path d="M344.364 422.315C344.364 422.315 344.572 421.069 347.834 422.527C351.095 423.986 346.296 424.678 346.296 424.678C346.296 424.678 344.101 423.331 344.364 422.315Z" fill="#DEC270"/>
<path d="M357.644 409.374C357.644 409.374 358.042 408.585 360.164 409.42C362.288 410.255 358.944 411.334 358.944 411.334C358.944 411.334 357.282 410.237 357.644 409.374Z" fill="#DEC270"/>
<path d="M322.814 450.258C322.814 450.258 319.287 444.132 321.015 436.269C321.015 436.269 322.532 435.369 322.805 434.696C323.078 434.023 321.437 434.456 321.545 432.777C321.652 431.097 322.994 427.216 322.304 426.434C321.615 425.652 321.512 424.49 322.127 424.151C322.127 424.151 322.275 423.515 321.922 423.116C321.569 422.716 320.78 419.866 322.349 419.804C322.349 419.804 323.11 418.021 322.707 417.564C322.304 417.108 321.577 415.822 322.497 414.912C322.497 414.912 321.77 413.627 321.639 413.135C321.508 412.642 323.054 412.094 323.223 411.135C323.391 410.177 322.709 409.864 323.837 408.265C324.965 406.667 324.703 405.681 324.703 405.681C324.703 405.681 324.51 403.622 326.227 402.922C326.227 402.922 326.579 400.79 327.953 400.392C327.953 400.392 327.552 398.212 329.348 397.141C329.348 397.141 328.959 396.471 328.492 396.172C328.492 396.172 328.595 394.562 328.95 394.046C328.95 394.046 328.686 392.252 329.766 391.404C329.766 391.404 330.218 389.386 329.664 388.759C329.11 388.131 329.501 387.079 330.087 386.362C330.672 385.645 330.576 384.615 330.073 384.045C329.57 383.475 329.523 382.502 330.045 381.943C330.566 381.384 329.96 379.891 329.96 379.891C329.96 379.891 329.155 378.979 329.969 378.061C330.783 377.143 330.624 374.548 330.228 373.984C330.228 373.984 332.182 371.254 331.427 370.399C331.427 370.399 333.329 369.334 333.562 368.218C333.562 368.218 333.012 366.676 333.705 365.966C333.705 365.966 332.767 363.753 334.195 362.497C334.195 362.497 333.973 360.059 334.894 359.148L334.115 357.806C334.115 357.806 335.867 356.57 335.87 355.654C335.87 355.654 337.499 354.302 338.718 355.672C338.718 355.672 338.473 350.02 334.297 350.662C330.121 351.303 329.76 356.812 329.76 356.812C329.76 356.812 328.419 360.164 327.971 362.451C327.523 364.738 327.594 368.377 327.594 368.377C327.594 368.377 325.074 372.953 326.724 373.963C328.374 374.973 325.173 376.125 325.798 378.828C325.798 378.828 325.492 382.23 326.074 384.179C326.074 384.179 324.717 387.907 325.256 388.948C325.256 388.948 324.131 390.568 324.931 394.056C324.931 394.056 323.334 396.491 323.215 398.458L324.284 400.991C322.407 403.026 320.915 405.305 320.261 406.07C319.607 406.834 318.677 409.97 319.684 412.08C319.684 412.08 318.751 412.901 317.981 414.439C317.981 414.439 318.427 417.134 319.481 418.329C319.481 418.329 316.428 419.469 317.283 422.19C317.283 422.19 315.488 426.961 314.491 429.979C314.491 429.979 308.532 433.74 310.233 440.925C310.233 440.925 302.515 453.293 302.839 460.355C303.459 473.859 311.192 475.262 310.403 479.741C309.614 484.219 309.52 486.566 316.032 483.86C323.527 480.746 323.756 471.358 324.74 464.609L322.814 450.258Z" fill="#7CB342"/>
<path d="M310.115 479.634C308.719 483.963 308.304 486.275 315.126 484.484C322.977 482.422 332.702 482.067 339.496 477.966C346.291 473.866 354.393 454.631 355.116 452.718C357.389 446.702 370.661 423.7 370.661 423.7C370.661 423.7 377.896 409.116 381.26 402.666C381.26 402.666 383.353 394.695 384.887 392.325C386.422 389.954 385.475 385.659 384.637 381.174C383.799 376.689 381.654 373.455 377.919 375.729C374.184 378.003 375.06 383.856 372.739 386.998C372.739 386.998 370.797 387.959 370.717 389.621C370.717 389.621 368.282 389.191 367.034 391.196C365.784 393.202 367.793 394.448 367.417 395.34C367.417 395.34 365.426 396.226 365.564 399.352C365.564 399.352 363.671 400.709 363.662 403.612C363.662 403.612 362.242 404.55 362.016 405.343C361.79 406.137 362.283 407.527 361.632 408.492C360.983 409.457 359.891 409.107 359.415 410.172C358.939 411.236 358.638 412.401 357.913 413.416C357.189 414.431 355.648 414.376 354.701 415.216C353.753 416.057 354.15 416.654 353.202 417.493C352.255 418.333 351.635 417.885 350.712 418.923C349.788 419.961 349.985 420.582 349.336 421.548C348.687 422.514 347.048 422.31 346.495 423.746C345.943 425.182 346.739 425.874 346.315 426.803C345.891 427.732 343.635 428.054 342.909 429.313C342.184 430.57 344.404 432.351 342.957 432.914C341.493 433.483 339.519 448.167 321.922 456.825C320.163 457.689 320.092 462.434 319.129 464.138C318.088 465.981 315.074 469.325 314.085 470.938C312.835 472.975 310.115 479.634 310.115 479.634Z" fill="#689F38"/>
</g>
<defs>
<linearGradient id="paint0_linear" x1="557.382" y1="317.144" x2="667.36" y2="126.287" gradientUnits="userSpaceOnUse">
<stop stop-color="white"/>
<stop offset="0.5312" stop-color="#F9F9F9"/>
<stop offset="1" stop-color="#EEEEEE"/>
</linearGradient>
<linearGradient id="paint1_linear" x1="311.18" y1="338.472" x2="429.982" y2="132.301" gradientUnits="userSpaceOnUse">
<stop stop-color="white"/>
<stop offset="0.4129" stop-color="#F9F9F9"/>
<stop offset="0.9894" stop-color="#E6E6E6"/>
<stop offset="1" stop-color="#E6E6E6"/>
</linearGradient>
<linearGradient id="paint2_linear" x1="479.098" y1="411.202" x2="479.098" y2="161.549" gradientUnits="userSpaceOnUse">
<stop stop-color="white"/>
<stop offset="0.4129" stop-color="#F9F9F9"/>
<stop offset="0.9894" stop-color="#E6E6E6"/>
<stop offset="1" stop-color="#E6E6E6"/>
</linearGradient>
<linearGradient id="paint3_linear" x1="280.709" y1="445.04" x2="280.709" y2="115.305" gradientUnits="userSpaceOnUse">
<stop stop-color="white"/>
<stop offset="0.4129" stop-color="#F9F9F9"/>
<stop offset="0.9894" stop-color="#E6E6E6"/>
<stop offset="1" stop-color="#E6E6E6"/>
</linearGradient>
<linearGradient id="paint4_linear" x1="167.551" y1="421.107" x2="167.551" y2="197.122" gradientUnits="userSpaceOnUse">
<stop stop-color="white"/>
<stop offset="0.2987" stop-color="#F9F9F9"/>
<stop offset="0.7155" stop-color="#E6E6E6"/>
<stop offset="1" stop-color="#D6D6D6"/>
</linearGradient>
<linearGradient id="paint5_linear" x1="749.484" y1="437.65" x2="749.484" y2="87.4384" gradientUnits="userSpaceOnUse">
<stop stop-color="white"/>
<stop offset="0.4129" stop-color="#F9F9F9"/>
<stop offset="0.9894" stop-color="#E6E6E6"/>
<stop offset="1" stop-color="#E6E6E6"/>
</linearGradient>
<linearGradient id="paint6_linear" x1="851.682" y1="437.178" x2="851.682" y2="170.938" gradientUnits="userSpaceOnUse">
<stop stop-color="white"/>
<stop offset="0.2987" stop-color="#F9F9F9"/>
<stop offset="0.7155" stop-color="#E6E6E6"/>
<stop offset="1" stop-color="#D6D6D6"/>
</linearGradient>
<linearGradient id="paint7_linear" x1="616.864" y1="442.192" x2="616.864" y2="235.64" gradientUnits="userSpaceOnUse">
<stop stop-color="white"/>
<stop offset="0.2987" stop-color="#F9F9F9"/>
<stop offset="0.7155" stop-color="#E6E6E6"/>
<stop offset="1" stop-color="#D6D6D6"/>
</linearGradient>
<clipPath id="clip0">
<rect width="1016" height="516" fill="white"/>
</clipPath>
</defs>
</svg>
