<svg width="120" height="120" viewBox="0 0 120 120" fill="none" xmlns="http://www.w3.org/2000/svg">
<path d="M30 17.8125V102.188C30 107.344 34.2187 111.562 39.375 111.562H99.1875C104.344 111.562 108.562 107.344 108.562 102.188L108.656 27.1875C108.75 16.875 100.312 8.4375 90 8.4375H39.375C34.2187 8.4375 30 12.6562 30 17.8125Z" fill="white"/>
<path d="M84.375 102.188C84.375 107.344 80.1562 111.562 75 111.562H39.375H20.625C25.7812 111.562 30 107.344 30 102.188V95.625H84.375V102.188Z" fill="#BC54D6"/>
<path d="M108.75 27.1875H99.375C94.2188 27.1875 90 22.9688 90 17.8125V14.0625V8.4375C100.312 8.4375 108.75 16.875 108.75 27.1875Z" fill="white"/>
<path d="M75 114.375H20.625C19.0312 114.375 17.8125 113.156 17.8125 111.562C17.8125 109.969 19.0312 108.75 20.625 108.75C24.2812 108.75 27.1875 105.844 27.1875 102.188V95.625C27.1875 94.0312 28.4062 92.8125 30 92.8125H84.375C85.9688 92.8125 87.1875 94.0312 87.1875 95.625V102.188C87.1875 108.938 81.75 114.375 75 114.375ZM30.9375 108.75H75C78.6562 108.75 81.5625 105.844 81.5625 102.188V98.4375H32.8125V102.188C32.8125 104.625 32.0625 106.875 30.9375 108.75Z" fill="#BC54D6"/>
<path d="M6.5625 114.375C6.375 114.375 6.1875 114.375 6 114.281C5.8125 114.281 5.625 114.188 5.4375 114.094C5.25 114 5.15625 113.906 4.96875 113.813C4.78125 113.719 4.6875 113.625 4.59375 113.438C4.03125 113.063 3.75 112.313 3.75 111.563C3.75 111.375 3.75 111.188 3.84375 111C3.84375 110.813 3.9375 110.625 4.03125 110.438C4.125 110.25 4.21875 110.156 4.3125 109.969C4.40625 109.781 4.5 109.688 4.6875 109.5C4.875 109.313 4.96875 109.219 5.0625 109.125C5.25 109.031 5.34375 108.938 5.53125 108.844C5.71875 108.75 5.90625 108.75 6.09375 108.656C7.03125 108.469 7.96875 108.75 8.625 109.406C8.71875 109.5 8.90625 109.688 9 109.875C9.09375 110.063 9.1875 110.156 9.28125 110.344C9.375 110.531 9.375 110.719 9.46875 110.906C9.46875 111.094 9.5625 111.281 9.5625 111.469C9.5625 112.219 9.28125 112.969 8.71875 113.438C8.0625 114.094 7.3125 114.375 6.5625 114.375Z" fill="#BC54D6"/>
<path d="M84.375 98.4375C82.7812 98.4375 81.5625 97.2188 81.5625 95.625V86.25C81.5625 85.2188 80.7188 84.375 79.6875 84.375H67.9688C65.8125 84.375 63.8438 83.4375 62.4375 81.9375C61.0312 80.3438 60.2812 78.2812 60.5625 76.125L62.0625 61.5937C62.1562 60.1875 61.7812 58.875 60.8438 57.8438C59.9062 56.8125 58.6875 56.25 57.2812 56.25C55.875 56.25 54.6562 56.8125 53.7188 57.8438C52.7812 58.875 52.3125 60.1875 52.5 61.5937L54 76.125C54.1875 78.1875 53.5312 80.3438 52.125 81.9375C50.5312 83.4375 48.4688 84.375 46.4062 84.375H34.6875C33.6562 84.375 32.8125 85.2188 32.8125 86.25V95.625C32.8125 97.2188 31.5938 98.4375 30 98.4375C28.4062 98.4375 27.1875 97.2188 27.1875 95.625V86.25C27.1875 82.125 30.5625 78.75 34.6875 78.75H46.4062C47.1562 78.75 47.625 78.375 47.8125 78.0938C48 77.9063 48.375 77.3438 48.2812 76.6875L46.7813 62.1563C46.5 59.25 47.4375 56.25 49.4062 54.0938C51.375 51.9375 54.1875 50.625 57.1875 50.625C60.1875 50.625 63 51.8438 64.9688 54.0938C66.9375 56.25 67.875 59.25 67.5938 62.1563L66.0938 76.6875C66 77.4375 66.375 77.9063 66.5625 78.0938C66.75 78.2813 67.2188 78.75 67.9688 78.75H79.6875C83.8125 78.75 87.1875 82.125 87.1875 86.25V95.625C87.1875 97.2188 85.9688 98.4375 84.375 98.4375Z" fill="#444B54"/>
<path d="M111.469 102.188L111.562 39.375C111.562 37.7812 110.344 36.5625 108.75 36.5625C107.156 36.5625 105.938 37.7812 105.938 39.375L105.844 102.188C105.844 105.844 102.938 108.75 99.2813 108.75H93.75C92.1562 108.75 90.9375 109.969 90.9375 111.562C90.9375 113.156 92.1562 114.375 93.75 114.375H99.2813C105.938 114.375 111.375 108.938 111.469 102.188Z" fill="#444B54"/>
<path d="M90 5.625H39.375C32.625 5.625 27.1875 11.0625 27.1875 17.8125V69.375C27.1875 70.9688 28.4062 72.1875 30 72.1875C31.5938 72.1875 32.8125 70.9688 32.8125 69.375V17.8125C32.8125 14.1562 35.7188 11.25 39.375 11.25H87.1875V17.8125C87.1875 24.5625 92.625 30 99.375 30H108.375C108.469 30 108.562 30 108.75 30C109.875 30 110.906 29.25 111.375 28.3125C111.562 27.9375 111.656 27.5625 111.656 27.1875C111.656 27.0938 111.656 27 111.656 26.8125C111.562 21.1875 109.312 15.9375 105.375 11.9062C101.156 7.875 95.8125 5.625 90 5.625ZM92.8125 17.8125V11.5312C96 12.0938 98.9062 13.5938 101.25 15.9375C103.594 18.2812 105.094 21.1875 105.656 24.375H99.375C95.7188 24.375 92.8125 21.4688 92.8125 17.8125Z" fill="#444B54"/>
</svg>
