<svg width="128" height="129" viewBox="0 0 128 129" fill="none" xmlns="http://www.w3.org/2000/svg">
<path d="M104 51.3263C104 47.4286 102 44.0306 98.9 42.1317C99.8 40.8324 100.4 39.2334 100.4 37.5344C100.4 33.1369 96.8 29.539 92.4 29.539C92.3 29.539 92.2 29.539 92.1 29.539C92.3 28.8394 92.4 28.1398 92.4 27.3403C92.4 23.3426 89.1 20.0446 85.1 20.0446C83.5 20.0446 82 20.5443 80.7 21.5437C80.7 17.9458 77.8 15.0475 74.2 15.0475C70.6 15.0475 67.7 17.9458 67.7 21.5437C67.7 25.1416 67.7 67.1171 67.7 73.2135C67.7 74.6127 68 76.0119 68.5 77.2112H59.7C60.2 76.0119 60.5 74.6127 60.5 73.2135C60.5 67.217 60.5 25.2415 60.5 21.5437C60.5 17.9458 57.6 15.0475 54 15.0475C50.4 15.0475 47.5 17.9458 47.5 21.5437C46.3 20.6442 44.8 20.0446 43.1 20.0446C39.1 20.0446 35.8 23.3426 35.8 27.3403C35.8 28.1398 35.9 28.8394 36.1 29.539C36 29.539 35.9 29.539 35.8 29.539C31.4 29.539 27.8 33.1369 27.8 37.5344C27.8 39.2334 28.3 40.8324 29.3 42.1317C26 44.0306 24 47.4286 24 51.3263C24 55.224 26 58.622 29 60.5209C28.1 62.12 27.6 63.9189 27.6 65.9178C27.6 71.9143 32.5 76.8114 38.5 76.8114C38.7 76.8114 38.9 76.8114 39.1 76.8114C39.1 76.9114 39.2 77.1112 39.3 77.2112H38.2C43.8 82.3082 46.9 89.7039 46.9 97.2995V99.8979H64H81.1V97.1995C81.1 89.604 84.1 82.2083 89.8 77.1112H88.7C88.8 77.0113 88.8 76.8114 88.9 76.7115C89.1 76.7115 89.3 76.7115 89.5 76.7115C95.5 76.7115 100.4 71.8143 100.4 65.8178C100.4 63.9189 99.9 62.0201 99 60.421C102 58.5221 104 55.1241 104 51.3263Z" fill="#FFAB40"/>
<path d="M59.6 77.1112C60.1 75.9119 60.4 74.5127 60.4 73.1135C60.4 67.117 60.4 25.1416 60.4 21.4437C60.4 17.8458 57.5 14.9475 53.9 14.9475C50.3 14.9475 47.4 17.8458 47.4 21.4437C46.2 20.5442 44.7 19.9446 43 19.9446C39 19.9446 35.7 23.2427 35.7 27.2403C35.7 28.0399 35.8 28.7395 36 29.439C35.9 29.439 35.8 29.439 35.7 29.439C31.3 29.439 27.7 33.0369 27.7 37.4344C27.7 39.1334 28.2 40.7324 29.2 42.0317C26 44.0305 24 47.4285 24 51.3263C24 55.224 26 58.622 29 60.5209C28.1 62.12 27.6 63.9189 27.6 65.9177C27.6 71.9142 32.5 76.8114 38.5 76.8114C38.7 76.8114 38.9 76.8114 39.1 76.8114C39.1 76.9113 39.2 77.1112 39.3 77.2111H38.2C43.8 82.3082 46.9 89.7038 46.9 97.2994V99.8979H64V77.1112H59.6Z" fill="white"/>
<path d="M34.9 65.2183C27.2 65.2183 21 59.0219 21 51.3264C21 49.6274 22.3 48.3281 24 48.3281C25.7 48.3281 27 49.6274 27 51.3264C27 55.7238 30.5 59.2218 34.9 59.2218C39.3 59.2218 42.8 55.6239 42.8 51.3264V47.7285C42.8 46.0295 44.1 44.7302 45.8 44.7302C47.5 44.7302 48.8 46.0295 48.8 47.7285V51.3264C48.8 59.0219 42.6 65.2183 34.9 65.2183Z" fill="#454B54"/>
<path d="M42.9001 37.5343C37.2001 37.5343 32.6001 32.937 32.6001 27.2403C32.6001 25.5413 33.9001 24.2421 35.6001 24.2421C37.3001 24.2421 38.6001 25.5413 38.6001 27.2403C38.6001 29.6389 40.5001 31.5378 42.9001 31.5378C44.6001 31.5378 45.9001 32.837 45.9001 34.5361C45.9001 36.2351 44.6001 37.5343 42.9001 37.5343Z" fill="#454B54"/>
<path d="M104 51.3263C104 47.4286 102 44.0305 98.9001 42.1317C99.8001 40.8324 100.4 39.2333 100.4 37.5343C100.4 33.1369 96.8001 29.539 92.4001 29.539C92.3001 29.539 92.2001 29.539 92.1001 29.539C92.3001 28.8394 92.4001 28.1398 92.4001 27.3403C92.4001 23.3426 89.1001 20.0446 85.1001 20.0446C84.0001 20.0446 83.0001 20.2444 82.1001 20.7441C88.5001 28.7395 92.5001 40.0329 92.5001 52.6255C92.5001 64.4186 89.0001 75.1124 83.3001 83.0078C85.9001 81.7085 87.9001 79.5098 88.9001 76.8114C89.1001 76.8114 89.3001 76.8114 89.5001 76.8114C95.5001 76.8114 100.4 71.9143 100.4 65.9178C100.4 64.0189 99.9001 62.12 99.0001 60.5209C102 58.5221 104 55.1241 104 51.3263Z" fill="#EE9C35"/>
<path d="M92.0001 65.2181C84.3001 65.2181 78.1001 59.0218 78.1001 51.3263C78.1001 49.6272 79.4001 48.328 81.1001 48.328C82.8001 48.328 84.1001 49.6272 84.1001 51.3263C84.1001 55.7237 87.6001 59.2216 92.0001 59.2216C93.7001 59.2216 95.0001 60.5209 95.0001 62.2199C95.0001 63.9189 93.6001 65.2181 92.0001 65.2181Z" fill="#454B54"/>
<path d="M78.1001 30.3386C76.4001 30.3386 75.1001 29.0394 75.1001 27.3404C75.1001 21.6437 79.7001 17.0464 85.4001 17.0464C87.1001 17.0464 88.4001 18.3456 88.4001 20.0446C88.4001 21.7436 87.1001 23.0429 85.4001 23.0429C83.0001 23.0429 81.1001 24.9418 81.1001 27.3404C81.1001 28.9394 79.8001 30.3386 78.1001 30.3386Z" fill="#454B54"/>
<path d="M78.6 87.0055C70.9 87.0055 64.7 80.8091 64.7 73.1136V21.4438C64.7 16.1469 69 11.9493 74.2 11.9493C78 11.9493 81.2 14.1481 82.8 17.3462C83.6 17.1463 84.3 17.0464 85.1 17.0464C90.6 17.0464 95.2 21.4438 95.4 26.9406C100 28.2398 103.4 32.5373 103.4 37.5344C103.4 38.8336 103.2 40.1329 102.7 41.3322C105.4 43.9307 107 47.5286 107 51.4263C107 55.324 105.4 58.9219 102.6 61.5204C103.1 62.9196 103.3 64.4187 103.3 65.9178C103.3 73.1136 97.7999 79.1101 90.7 79.8097C88.4 84.1072 83.7 87.0055 78.6 87.0055ZM74.2 17.9458C72.2 17.9458 70.7 19.5449 70.7 21.4438V73.1136C70.7 77.511 74.2 81.009 78.6 81.009C82 81.009 84.9 78.9102 86.1 75.7121C86.5 74.4129 87.8 73.6133 89.1 73.7133H89.3C89.4 73.7133 89.5 73.7133 89.5 73.7133C93.9 73.7133 97.4 70.1154 97.4 65.8179C97.4 64.4187 97 63.1195 96.4 61.9202C95.6 60.521 96.1 58.822 97.4 57.9225C99.7 56.4234 101.1 53.9248 101.1 51.2264C101.1 48.528 99.7 46.0294 97.4 44.5303C96.7 44.1305 96.2 43.431 96.1 42.6314C95.9 41.8319 96.1 41.0324 96.6 40.3328C97.2 39.5332 97.5 38.5338 97.5 37.4345C97.5 34.6361 95.3 32.4374 92.5 32.4374H92.3C91.3 32.4374 90.4 32.0376 89.8 31.2381C89.2 30.4385 89 29.4391 89.3 28.5397C89.4 28.1399 89.5 27.6402 89.5 27.2404C89.5 24.8418 87.6 22.9429 85.2 22.9429C84.3 22.9429 83.4 23.2427 82.6 23.8424C81.7 24.542 80.5 24.6419 79.5 24.1422C78.5 23.6425 77.8 22.6431 77.8 21.4438C77.8 19.5449 76.2 17.9458 74.2 17.9458Z" fill="#454B54"/>
<path d="M49.5001 87.0055C47.8001 87.0055 46.5001 85.7062 46.5001 84.0072C46.5001 82.3082 47.8001 81.009 49.5001 81.009C53.9001 81.009 57.4001 77.4111 57.4001 73.1136V21.4438C57.4001 19.4449 55.8001 17.9458 53.9001 17.9458C51.9001 17.9458 50.4001 19.5449 50.4001 21.4438C50.4001 22.5431 49.8001 23.6425 48.7001 24.1422C47.7001 24.6419 46.5001 24.542 45.6001 23.8424C44.9001 23.2427 44.0001 22.9429 43.0001 22.9429C40.6001 22.9429 38.7001 24.8418 38.7001 27.2404C38.7001 27.6401 38.8001 28.1399 38.9001 28.5396C39.4001 30.1387 38.5001 31.8377 36.9001 32.3374C35.3001 32.8371 33.6001 31.9376 33.1001 30.3386C32.8001 29.3392 32.6001 28.2398 32.6001 27.2404C32.6001 21.5437 37.2001 16.9464 42.9001 16.9464C43.7001 16.9464 44.5001 17.0463 45.2001 17.2462C46.8001 14.0481 50.0001 11.8494 53.8001 11.8494C59.1001 11.8494 63.3001 16.1469 63.3001 21.3438V73.0136C63.4001 80.8091 57.1001 87.0055 49.5001 87.0055Z" fill="#454B54"/>
<path d="M38.6001 79.7097C32.8001 79.7097 27.6001 76.1118 25.6001 70.615C25.0001 69.0159 25.8001 67.3169 27.4001 66.7173C29.0001 66.1176 30.7001 66.9172 31.3001 68.5162C32.4001 71.6144 35.4001 73.7132 38.7001 73.7132C40.4001 73.7132 41.7001 75.0124 41.7001 76.7114C41.7001 78.4105 40.2001 79.7097 38.6001 79.7097Z" fill="#454B54"/>
<path d="M29 63.5192C28.4 63.5192 27.9 63.3193 27.4 63.0195C23.4 60.421 21 56.0236 21 51.3263C21 47.4286 22.6 43.8307 25.3 41.2322C24.9 40.0329 24.6 38.7336 24.6 37.4344C24.6 35.7354 25.9 34.4362 27.6 34.4362C29.3 34.4362 30.6 35.7354 30.6 37.4344C30.6 38.4338 30.9 39.4332 31.5 40.3327C32 41.0323 32.2 41.8318 32 42.6314C31.8 43.4309 31.4 44.1305 30.7 44.5303C28.4 46.0294 27 48.5279 27 51.2263C27 53.9248 28.4 56.4233 30.7 57.9224C32.1 58.8219 32.5 60.6209 31.6 62.02C31 63.0195 30 63.5192 29 63.5192Z" fill="#454B54"/>
<path d="M78 40.3327C77.2 40.3327 76.4 40.0328 75.9 39.4332C75.3 38.8335 75 38.134 75 37.3344C75 36.5349 75.3 35.7354 75.9 35.2357C77 34.1363 79 34.1363 80.1 35.2357C80.7 35.8353 81 36.5349 81 37.3344C81 38.134 80.7 38.9335 80.1 39.4332C79.6 40.0328 78.8 40.3327 78 40.3327Z" fill="#454B54"/>
<path d="M98.9 45.1299H95.3C93.6 45.1299 92.3 43.8307 92.3 42.1317C92.3 40.4327 93.6 39.1334 95.3 39.1334H98.9C100.6 39.1334 101.9 40.4327 101.9 42.1317C101.9 43.8307 100.6 45.1299 98.9 45.1299Z" fill="#454B54"/>
<path d="M32.7001 45.1299H29.1001C27.4001 45.1299 26.1001 43.8307 26.1001 42.1317C26.1001 40.4327 27.4001 39.1334 29.1001 39.1334H32.7001C34.4001 39.1334 35.7001 40.4327 35.7001 42.1317C35.7001 43.8307 34.4001 45.1299 32.7001 45.1299Z" fill="#454B54"/>
<path d="M81.0999 112.89H46.8999C45.1999 112.89 43.8999 111.591 43.8999 109.892V99.898C43.8999 98.199 45.1999 96.8997 46.8999 96.8997H78.0999C78.1999 88.4047 81.6999 80.4094 87.7999 74.9126C88.9999 73.8132 90.8999 73.9132 91.9999 75.1125C93.0999 76.3117 92.9999 78.2106 91.7999 79.31C86.8999 83.7074 84.0999 90.2036 84.0999 97.1996V99.898L83.9999 109.892C83.9999 111.591 82.6999 112.89 81.0999 112.89ZM49.8999 106.894H78.0999V102.896H49.8999V106.894Z" fill="#454B54"/>
<path d="M66 122.885H62C60.3 122.885 59 121.585 59 119.886C59 118.187 60.3 116.888 62 116.888H66C67.7 116.888 69 118.187 69 119.886C69 121.585 67.7 122.885 66 122.885Z" fill="#454B54"/>
</svg>
