<svg width="600" height="344" viewBox="0 0 600 344" fill="none" xmlns="http://www.w3.org/2000/svg">
<g clip-path="url(#clip0)">
<path d="M600 -58.5361H0V391.31H600V-58.5361Z" fill="white"/>
<path d="M452.25 176.134H480V69.67H452.25V176.134Z" fill="url(#paint0_linear)"/>
<path d="M452.25 176.134H480V69.67H452.25V176.134Z" fill="url(#paint1_linear)"/>
<path d="M365.25 203.124H404.25V80.1664H365.25V203.124Z" fill="url(#paint2_linear)"/>
<path d="M365.25 203.124H404.25V80.1664H365.25V203.124Z" fill="url(#paint3_linear)"/>
<path d="M413.25 200.125H452.25V89.1633H413.25V200.125Z" fill="url(#paint4_linear)"/>
<path d="M413.25 200.125H452.25V89.1633H413.25V200.125Z" fill="url(#paint5_linear)"/>
<path d="M513 89.9131H477V218.869H513V89.9131Z" fill="white"/>
<path d="M513 89.9131H477V218.869H513V89.9131Z" fill="url(#paint6_linear)"/>
<path d="M98.25 98.1603H61.5V227.116H98.25V98.1603Z" fill="white"/>
<path d="M61.5 227.116H98.25V98.1603H61.5V227.116Z" fill="url(#paint7_linear)"/>
<path d="M133.5 63.6721H84V191.128H133.5V63.6721Z" fill="white"/>
<path d="M84 191.128H133.5V63.6721H84V191.128Z" fill="url(#paint8_linear)"/>
<path d="M241.5 115.179C244.05 115.179 246.075 113.155 246.075 110.606C246.075 108.057 244.05 106.033 241.5 106.033C239.925 106.033 238.575 106.782 237.75 107.982C237.525 103.483 236.85 99.135 235.875 94.9364C237 95.9111 238.575 96.3609 240.075 95.9111C242.55 95.2363 243.975 92.7621 243.3 90.288C242.625 87.8138 240.15 86.3893 237.675 87.0641C236.1 87.5139 234.975 88.6385 234.525 90.138C233.175 85.7895 231.375 81.6659 229.275 77.7673C230.625 78.517 232.275 78.517 233.7 77.6923C235.875 76.4177 236.625 73.5687 235.35 71.3944C234.075 69.2202 231.225 68.4704 229.05 69.745C227.55 70.5697 226.8 72.1442 226.8 73.7186C224.325 69.82 221.475 66.2212 218.325 62.9223C219.825 63.2972 221.55 62.9223 222.75 61.7227C224.55 59.9234 224.55 56.9994 222.75 55.2C220.95 53.4006 218.025 53.4006 216.225 55.2C215.025 56.3996 214.65 58.124 215.025 59.6235C211.65 56.5495 208.05 53.7755 204.15 51.3013C205.725 51.2263 207.15 50.4766 208.05 49.0521C209.325 46.8778 208.575 44.0288 206.4 42.7542C204.225 41.4797 201.375 42.2294 200.1 44.4037C199.275 45.8282 199.35 47.5526 200.1 48.9021C196.125 46.8029 192 45.0784 187.65 43.7289C189.075 43.2791 190.2 42.0795 190.65 40.58C191.325 38.1058 189.825 35.6317 187.425 34.9569C184.95 34.2821 182.475 35.7816 181.8 38.1808C181.35 39.7553 181.8 41.3297 182.85 42.4543C178.575 41.4797 174.225 40.8799 169.725 40.7299C170.925 39.9052 171.675 38.5557 171.675 36.9812C171.675 34.4321 169.65 32.4078 167.1 32.4078C164.55 32.4078 162.525 34.4321 162.525 36.9812C162.525 38.5557 163.275 39.9052 164.475 40.7299C160.05 40.8799 155.775 41.4797 151.575 42.3794C152.4 41.2548 152.775 39.8302 152.4 38.4057C151.725 35.9316 149.25 34.5071 146.775 35.1818C144.3 35.8566 142.875 38.3307 143.55 40.8049C143.925 42.2294 144.9 43.2791 146.175 43.8039C142.125 45.0784 138.225 46.7279 134.475 48.6772C134.925 47.4776 134.85 46.0531 134.175 44.8535C132.9 42.6793 130.05 41.9295 127.875 43.2041C125.7 44.4786 124.95 47.3277 126.225 49.5019C126.9 50.7015 128.1 51.4513 129.375 51.6762C125.85 53.9254 122.55 56.3996 119.55 59.1736C119.55 57.974 119.175 56.6995 118.2 55.7998C116.4 54.0004 113.475 54.0004 111.675 55.7998C109.875 57.5992 109.875 60.5232 111.675 62.3225C112.575 63.2222 113.85 63.6721 115.05 63.6721C112.35 66.5961 109.875 69.82 107.7 73.1938C107.4 72.0692 106.65 71.0946 105.6 70.4948C103.425 69.2202 100.575 69.9699 99.3002 72.1442C98.0252 74.3184 98.7752 77.1675 100.95 78.442C102 79.0418 103.2 79.1918 104.325 78.8919C102.525 82.3407 100.95 86.0144 99.7502 89.7632C99.1502 88.8635 98.2502 88.1887 97.1252 87.8888C94.6502 87.214 92.1752 88.7135 91.5002 91.1127C90.8252 93.5869 92.3252 96.061 94.7252 96.7358C95.8502 97.0357 96.9752 96.8857 97.8752 96.4359C97.0502 100.185 96.5252 104.008 96.3752 107.907C95.6252 107.307 94.5752 106.857 93.5252 106.857C90.9752 106.857 88.9502 108.882 88.9502 111.431C88.9502 113.98 90.9752 116.004 93.5252 116.004C94.5752 116.004 95.6252 115.629 96.3752 114.955C96.6002 118.853 97.0502 122.602 97.8752 126.276C96.9752 125.901 96.0002 125.826 94.9502 126.051C92.4752 126.726 91.0502 129.2 91.7252 131.674C92.4002 134.148 94.8752 135.573 97.3502 134.898C98.3252 134.598 99.1502 133.998 99.7502 133.248C100.95 136.847 102.375 140.371 104.1 143.67C103.125 143.595 102.225 143.745 101.325 144.27C99.1502 145.544 98.4002 148.393 99.6752 150.567C100.95 152.742 103.8 153.491 105.975 152.217C106.875 151.692 107.475 150.942 107.925 150.043C110.025 153.191 112.275 156.19 114.825 158.965C113.925 159.114 113.025 159.564 112.275 160.239C110.475 162.038 110.475 164.962 112.275 166.762C114.075 168.561 117 168.561 118.8 166.762C119.55 166.012 119.925 165.112 120.075 164.138C122.925 166.612 125.925 168.936 129.075 170.96C128.25 171.335 127.425 172.01 126.975 172.835C125.7 175.009 126.45 177.858 128.625 179.133C130.8 180.407 133.65 179.657 134.925 177.483C135.45 176.583 135.6 175.609 135.525 174.634C138.9 176.284 142.35 177.783 146.025 178.908C145.275 179.507 144.75 180.332 144.45 181.307C143.775 183.781 145.275 186.255 147.675 186.93C150.15 187.605 152.625 186.105 153.3 183.706C153.6 182.656 153.45 181.682 153.075 180.782C156.75 181.532 160.575 181.982 164.4 182.132C163.8 182.881 163.425 183.856 163.425 184.981C163.425 187.53 165.45 189.554 168 189.554C170.55 189.554 172.575 187.53 172.575 184.981C172.575 183.856 172.2 182.881 171.525 182.057C175.425 181.832 179.25 181.232 183 180.407C182.55 181.382 182.4 182.431 182.7 183.556C183.375 186.03 185.85 187.455 188.325 186.78C190.8 186.105 192.225 183.631 191.55 181.157C191.25 180.032 190.5 179.133 189.6 178.533C193.35 177.258 197.025 175.684 200.475 173.809C200.25 174.934 200.4 176.059 201 177.108C202.275 179.283 205.125 180.032 207.3 178.758C209.475 177.483 210.225 174.634 208.95 172.46C208.35 171.335 207.3 170.66 206.175 170.361C209.55 168.111 212.7 165.637 215.625 162.863C215.625 164.063 216.075 165.262 216.975 166.162C218.775 167.961 221.7 167.961 223.5 166.162C225.3 164.363 225.3 161.439 223.5 159.639C222.525 158.665 221.25 158.29 220.05 158.29C222.825 155.216 225.3 151.917 227.475 148.318C227.7 149.593 228.45 150.717 229.65 151.392C231.825 152.667 234.675 151.917 235.95 149.743C237.225 147.568 236.475 144.719 234.3 143.445C233.1 142.695 231.675 142.695 230.4 143.145C232.275 139.396 233.85 135.423 235.125 131.374C235.65 132.648 236.7 133.623 238.125 133.998C240.6 134.673 243.075 133.173 243.75 130.774C244.425 128.3 242.925 125.826 240.525 125.151C239.1 124.776 237.6 125.151 236.55 125.976C237.45 121.777 237.9 117.504 238.05 113.08C238.65 114.43 240 115.179 241.5 115.179ZM167.25 176.359C165.15 176.359 163.125 176.284 161.1 176.059L166.5 117.729C166.725 117.729 167.025 117.804 167.25 117.804C167.475 117.804 167.775 117.804 168 117.729L173.4 176.059C171.375 176.284 169.275 176.359 167.25 176.359ZM181.275 174.784L170.475 116.829C172.125 115.779 173.25 113.905 173.25 111.806C173.25 108.507 170.55 105.808 167.25 105.808C163.95 105.808 161.25 108.507 161.25 111.806C161.25 113.905 162.375 115.779 164.025 116.829L153.225 174.784C124.35 168.336 102.675 142.545 102.675 111.806C102.675 76.1928 131.7 47.2527 167.325 47.2527C202.95 47.2527 231.975 76.2678 231.975 111.806C231.9 142.545 210.225 168.336 181.275 174.784Z" fill="white"/>
<path d="M241.5 115.179C244.05 115.179 246.075 113.155 246.075 110.606C246.075 108.057 244.05 106.033 241.5 106.033C239.925 106.033 238.575 106.782 237.75 107.982C237.525 103.483 236.85 99.135 235.875 94.9364C237 95.9111 238.575 96.3609 240.075 95.9111C242.55 95.2363 243.975 92.7621 243.3 90.288C242.625 87.8138 240.15 86.3893 237.675 87.0641C236.1 87.5139 234.975 88.6385 234.525 90.138C233.175 85.7895 231.375 81.6659 229.275 77.7673C230.625 78.517 232.275 78.517 233.7 77.6923C235.875 76.4177 236.625 73.5687 235.35 71.3944C234.075 69.2202 231.225 68.4704 229.05 69.745C227.55 70.5697 226.8 72.1442 226.8 73.7186C224.325 69.82 221.475 66.2212 218.325 62.9223C219.825 63.2972 221.55 62.9223 222.75 61.7227C224.55 59.9234 224.55 56.9994 222.75 55.2C220.95 53.4006 218.025 53.4006 216.225 55.2C215.025 56.3996 214.65 58.124 215.025 59.6235C211.65 56.5495 208.05 53.7755 204.15 51.3013C205.725 51.2263 207.15 50.4766 208.05 49.0521C209.325 46.8778 208.575 44.0288 206.4 42.7542C204.225 41.4797 201.375 42.2294 200.1 44.4037C199.275 45.8282 199.35 47.5526 200.1 48.9021C196.125 46.8029 192 45.0784 187.65 43.7289C189.075 43.2791 190.2 42.0795 190.65 40.58C191.325 38.1058 189.825 35.6317 187.425 34.9569C184.95 34.2821 182.475 35.7816 181.8 38.1808C181.35 39.7553 181.8 41.3297 182.85 42.4543C178.575 41.4797 174.225 40.8799 169.725 40.7299C170.925 39.9052 171.675 38.5557 171.675 36.9812C171.675 34.4321 169.65 32.4078 167.1 32.4078C164.55 32.4078 162.525 34.4321 162.525 36.9812C162.525 38.5557 163.275 39.9052 164.475 40.7299C160.05 40.8799 155.775 41.4797 151.575 42.3794C152.4 41.2548 152.775 39.8302 152.4 38.4057C151.725 35.9316 149.25 34.5071 146.775 35.1818C144.3 35.8566 142.875 38.3307 143.55 40.8049C143.925 42.2294 144.9 43.2791 146.175 43.8039C142.125 45.0784 138.225 46.7279 134.475 48.6772C134.925 47.4776 134.85 46.0531 134.175 44.8535C132.9 42.6793 130.05 41.9295 127.875 43.2041C125.7 44.4786 124.95 47.3277 126.225 49.5019C126.9 50.7015 128.1 51.4513 129.375 51.6762C125.85 53.9254 122.55 56.3996 119.55 59.1736C119.55 57.974 119.175 56.6995 118.2 55.7998C116.4 54.0004 113.475 54.0004 111.675 55.7998C109.875 57.5992 109.875 60.5232 111.675 62.3225C112.575 63.2222 113.85 63.6721 115.05 63.6721C112.35 66.5961 109.875 69.82 107.7 73.1938C107.4 72.0692 106.65 71.0946 105.6 70.4948C103.425 69.2202 100.575 69.9699 99.3002 72.1442C98.0252 74.3184 98.7752 77.1675 100.95 78.442C102 79.0418 103.2 79.1918 104.325 78.8919C102.525 82.3407 100.95 86.0144 99.7502 89.7632C99.1502 88.8635 98.2502 88.1887 97.1252 87.8888C94.6502 87.214 92.1752 88.7135 91.5002 91.1127C90.8252 93.5869 92.3252 96.061 94.7252 96.7358C95.8502 97.0357 96.9752 96.8857 97.8752 96.4359C97.0502 100.185 96.5252 104.008 96.3752 107.907C95.6252 107.307 94.5752 106.857 93.5252 106.857C90.9752 106.857 88.9502 108.882 88.9502 111.431C88.9502 113.98 90.9752 116.004 93.5252 116.004C94.5752 116.004 95.6252 115.629 96.3752 114.955C96.6002 118.853 97.0502 122.602 97.8752 126.276C96.9752 125.901 96.0002 125.826 94.9502 126.051C92.4752 126.726 91.0502 129.2 91.7252 131.674C92.4002 134.148 94.8752 135.573 97.3502 134.898C98.3252 134.598 99.1502 133.998 99.7502 133.248C100.95 136.847 102.375 140.371 104.1 143.67C103.125 143.595 102.225 143.745 101.325 144.27C99.1502 145.544 98.4002 148.393 99.6752 150.567C100.95 152.742 103.8 153.491 105.975 152.217C106.875 151.692 107.475 150.942 107.925 150.043C110.025 153.191 112.275 156.19 114.825 158.965C113.925 159.114 113.025 159.564 112.275 160.239C110.475 162.038 110.475 164.962 112.275 166.762C114.075 168.561 117 168.561 118.8 166.762C119.55 166.012 119.925 165.112 120.075 164.138C122.925 166.612 125.925 168.936 129.075 170.96C128.25 171.335 127.425 172.01 126.975 172.835C125.7 175.009 126.45 177.858 128.625 179.133C130.8 180.407 133.65 179.657 134.925 177.483C135.45 176.583 135.6 175.609 135.525 174.634C138.9 176.284 142.35 177.783 146.025 178.908C145.275 179.507 144.75 180.332 144.45 181.307C143.775 183.781 145.275 186.255 147.675 186.93C150.15 187.605 152.625 186.105 153.3 183.706C153.6 182.656 153.45 181.682 153.075 180.782C156.75 181.532 160.575 181.982 164.4 182.132C163.8 182.881 163.425 183.856 163.425 184.981C163.425 187.53 165.45 189.554 168 189.554C170.55 189.554 172.575 187.53 172.575 184.981C172.575 183.856 172.2 182.881 171.525 182.057C175.425 181.832 179.25 181.232 183 180.407C182.55 181.382 182.4 182.431 182.7 183.556C183.375 186.03 185.85 187.455 188.325 186.78C190.8 186.105 192.225 183.631 191.55 181.157C191.25 180.032 190.5 179.133 189.6 178.533C193.35 177.258 197.025 175.684 200.475 173.809C200.25 174.934 200.4 176.059 201 177.108C202.275 179.283 205.125 180.032 207.3 178.758C209.475 177.483 210.225 174.634 208.95 172.46C208.35 171.335 207.3 170.66 206.175 170.361C209.55 168.111 212.7 165.637 215.625 162.863C215.625 164.063 216.075 165.262 216.975 166.162C218.775 167.961 221.7 167.961 223.5 166.162C225.3 164.363 225.3 161.439 223.5 159.639C222.525 158.665 221.25 158.29 220.05 158.29C222.825 155.216 225.3 151.917 227.475 148.318C227.7 149.593 228.45 150.717 229.65 151.392C231.825 152.667 234.675 151.917 235.95 149.743C237.225 147.568 236.475 144.719 234.3 143.445C233.1 142.695 231.675 142.695 230.4 143.145C232.275 139.396 233.85 135.423 235.125 131.374C235.65 132.648 236.7 133.623 238.125 133.998C240.6 134.673 243.075 133.173 243.75 130.774C244.425 128.3 242.925 125.826 240.525 125.151C239.1 124.776 237.6 125.151 236.55 125.976C237.45 121.777 237.9 117.504 238.05 113.08C238.65 114.43 240 115.179 241.5 115.179ZM167.25 176.359C165.15 176.359 163.125 176.284 161.1 176.059L166.5 117.729C166.725 117.729 167.025 117.804 167.25 117.804C167.475 117.804 167.775 117.804 168 117.729L173.4 176.059C171.375 176.284 169.275 176.359 167.25 176.359ZM181.275 174.784L170.475 116.829C172.125 115.779 173.25 113.905 173.25 111.806C173.25 108.507 170.55 105.808 167.25 105.808C163.95 105.808 161.25 108.507 161.25 111.806C161.25 113.905 162.375 115.779 164.025 116.829L153.225 174.784C124.35 168.336 102.675 142.545 102.675 111.806C102.675 76.1928 131.7 47.2527 167.325 47.2527C202.95 47.2527 231.975 76.2678 231.975 111.806C231.9 142.545 210.225 168.336 181.275 174.784Z" fill="url(#paint9_linear)"/>
<path d="M475.5 36.6813V51.6762H467.25V221.868H524.7L475.5 36.6813Z" fill="white"/>
<path d="M475.5 36.6813V51.6762H467.25V221.868H524.7L475.5 36.6813Z" fill="url(#paint10_linear)"/>
<path d="M120 154.391V145.394L117.75 138.646L115.5 145.394V150.642H108V145.394L105.75 138.646L103.5 145.394V154.391H94.5V145.394L92.25 138.646L90 145.394V150.642H82.5V145.394L80.25 138.646L78 145.394V154.391H61.5V221.118H133.5V154.391H120Z" fill="white"/>
<path d="M120 154.391V145.394L117.75 138.646L115.5 145.394V150.642H108V145.394L105.75 138.646L103.5 145.394V154.391H94.5V145.394L92.25 138.646L90 145.394V150.642H82.5V145.394L80.25 138.646L78 145.394V154.391H61.5V221.118H133.5V154.391H120Z" fill="url(#paint11_linear)"/>
<path d="M120 154.391V145.394L117.75 138.646L115.5 145.394V150.642H108V145.394L105.75 138.646L103.5 145.394V154.391H94.5V145.394L92.25 138.646L90 145.394V150.642H82.5V145.394L80.25 138.646L78 145.394V154.391H61.5V221.118H133.5V154.391H120Z" fill="url(#paint12_radial)"/>
<path d="M149.25 110.906V104.158L144 97.1107V88.3387L138 71.1695L132 88.3387V97.1856L126.75 104.083V110.831H124.5V134.823H126.75V214.296H149.25V134.898H151.5V110.906H149.25Z" fill="white"/>
<path d="M149.25 110.906V104.158L144 97.1107V88.3387L138 71.1695L132 88.3387V97.1856L126.75 104.083V110.831H124.5V134.823H126.75V214.296H149.25V134.898H151.5V110.906H149.25ZM138.225 130.399C134.1 130.399 130.725 127.025 130.725 122.902C130.725 118.778 134.1 115.404 138.225 115.404C142.35 115.404 145.725 118.778 145.725 122.902C145.725 127.025 142.35 130.399 138.225 130.399Z" fill="url(#paint13_linear)"/>
<path d="M410.999 184.831C411.899 184.981 412.724 185.056 413.624 185.205L414.299 179.283C381.824 175.459 354.149 152.442 347.249 146.294V146.144V130.399L344.624 119.153L341.999 130.399L337.499 115.404L332.999 130.399L330.374 119.153L327.749 130.399V141.645H290.999V140.146L286.499 137.147V137.072L281.999 140.146V141.645H245.249V130.399L242.624 119.153L239.999 130.399L235.499 115.404L230.999 130.399L228.374 119.153L225.749 130.399V146.144V146.294C218.849 152.442 191.324 175.459 158.699 179.283L159.374 185.205C160.274 185.131 161.174 184.981 161.999 184.831V195.627H158.999V201.625H225.749V226.366H245.249V205.374L280.349 179.133L277.349 174.634L245.249 190.379V148.393H327.749V190.379L295.349 174.634L292.349 179.133L327.749 205.374V226.366H345.749V201.625H413.999V195.627H410.999V184.831ZM172.499 195.627H164.999V184.381C167.549 183.931 170.024 183.331 172.499 182.731V195.627ZM182.999 195.627H175.499V181.907C178.049 181.157 180.524 180.332 182.999 179.432V195.627ZM193.499 195.627H185.999V178.233C188.549 177.183 191.099 176.134 193.499 174.934V195.627ZM203.999 195.627H196.499V173.509C199.124 172.16 201.599 170.81 203.999 169.461V195.627ZM214.499 195.627H206.999V167.587C209.699 165.937 212.174 164.288 214.499 162.713V195.627ZM225.749 154.391V195.552V195.627H217.499V160.614C220.799 158.215 223.574 156.04 225.749 154.241V154.391ZM355.499 195.627H347.249V195.552V154.391V154.241C349.424 156.04 352.199 158.29 355.499 160.614V195.627ZM365.999 195.627H358.499V162.713C360.824 164.288 363.299 165.937 365.999 167.587V195.627ZM376.499 195.627H368.999V169.386C371.399 170.735 373.874 172.16 376.499 173.435V195.627ZM386.999 195.627H379.499V174.934C381.899 176.059 384.449 177.183 386.999 178.233V195.627ZM397.499 195.627H389.999V179.357C392.474 180.257 394.949 181.082 397.499 181.832V195.627ZM407.999 195.627H400.499V182.731C402.974 183.406 405.449 183.931 407.999 184.381V195.627Z" fill="white"/>
<path d="M410.999 184.831C411.899 184.981 412.724 185.056 413.624 185.205L414.299 179.283C381.824 175.459 354.149 152.442 347.249 146.294V146.144V130.399L344.624 119.153L341.999 130.399L337.499 115.404L332.999 130.399L330.374 119.153L327.749 130.399V141.645H290.999V140.146L286.499 137.147V137.072L281.999 140.146V141.645H245.249V130.399L242.624 119.153L239.999 130.399L235.499 115.404L230.999 130.399L228.374 119.153L225.749 130.399V146.144V146.294C218.849 152.442 191.324 175.459 158.699 179.283L159.374 185.205C160.274 185.131 161.174 184.981 161.999 184.831V195.627H158.999V201.625H225.749V226.366H245.249V205.374L280.349 179.133L277.349 174.634L245.249 190.379V148.393H327.749V190.379L295.349 174.634L292.349 179.133L327.749 205.374V226.366H345.749V201.625H413.999V195.627H410.999V184.831ZM172.499 195.627H164.999V184.381C167.549 183.931 170.024 183.331 172.499 182.731V195.627ZM182.999 195.627H175.499V181.907C178.049 181.157 180.524 180.332 182.999 179.432V195.627ZM193.499 195.627H185.999V178.233C188.549 177.183 191.099 176.134 193.499 174.934V195.627ZM203.999 195.627H196.499V173.509C199.124 172.16 201.599 170.81 203.999 169.461V195.627ZM214.499 195.627H206.999V167.587C209.699 165.937 212.174 164.288 214.499 162.713V195.627ZM225.749 154.391V195.552V195.627H217.499V160.614C220.799 158.215 223.574 156.04 225.749 154.241V154.391ZM355.499 195.627H347.249V195.552V154.391V154.241C349.424 156.04 352.199 158.29 355.499 160.614V195.627ZM365.999 195.627H358.499V162.713C360.824 164.288 363.299 165.937 365.999 167.587V195.627ZM376.499 195.627H368.999V169.386C371.399 170.735 373.874 172.16 376.499 173.435V195.627ZM386.999 195.627H379.499V174.934C381.899 176.059 384.449 177.183 386.999 178.233V195.627ZM397.499 195.627H389.999V179.357C392.474 180.257 394.949 181.082 397.499 181.832V195.627ZM407.999 195.627H400.499V182.731C402.974 183.406 405.449 183.931 407.999 184.381V195.627Z" fill="url(#paint14_linear)"/>
<path d="M410.999 184.831C411.899 184.981 412.724 185.056 413.624 185.205L414.299 179.283C381.824 175.459 354.149 152.442 347.249 146.294V146.144V130.399L344.624 119.153L341.999 130.399L337.499 115.404L332.999 130.399L330.374 119.153L327.749 130.399V141.645H290.999V140.146L286.499 137.147V137.072L281.999 140.146V141.645H245.249V130.399L242.624 119.153L239.999 130.399L235.499 115.404L230.999 130.399L228.374 119.153L225.749 130.399V146.144V146.294C218.849 152.442 191.324 175.459 158.699 179.283L159.374 185.205C160.274 185.131 161.174 184.981 161.999 184.831V195.627H158.999V201.625H225.749V226.366H245.249V205.374L280.349 179.133L277.349 174.634L245.249 190.379V148.393H327.749V190.379L295.349 174.634L292.349 179.133L327.749 205.374V226.366H345.749V201.625H413.999V195.627H410.999V184.831ZM172.499 195.627H164.999V184.381C167.549 183.931 170.024 183.331 172.499 182.731V195.627ZM182.999 195.627H175.499V181.907C178.049 181.157 180.524 180.332 182.999 179.432V195.627ZM193.499 195.627H185.999V178.233C188.549 177.183 191.099 176.134 193.499 174.934V195.627ZM203.999 195.627H196.499V173.509C199.124 172.16 201.599 170.81 203.999 169.461V195.627ZM214.499 195.627H206.999V167.587C209.699 165.937 212.174 164.288 214.499 162.713V195.627ZM225.749 154.391V195.552V195.627H217.499V160.614C220.799 158.215 223.574 156.04 225.749 154.241V154.391ZM355.499 195.627H347.249V195.552V154.391V154.241C349.424 156.04 352.199 158.29 355.499 160.614V195.627ZM365.999 195.627H358.499V162.713C360.824 164.288 363.299 165.937 365.999 167.587V195.627ZM376.499 195.627H368.999V169.386C371.399 170.735 373.874 172.16 376.499 173.435V195.627ZM386.999 195.627H379.499V174.934C381.899 176.059 384.449 177.183 386.999 178.233V195.627ZM397.499 195.627H389.999V179.357C392.474 180.257 394.949 181.082 397.499 181.832V195.627ZM407.999 195.627H400.499V182.731C402.974 183.406 405.449 183.931 407.999 184.381V195.627Z" fill="url(#paint15_radial)"/>
<path d="M444.75 122.152C444.75 144.719 444.75 221.118 444.75 221.118H393.75C393.75 221.118 393.75 176.808 393.75 122.152C393.75 67.4958 405.15 23.1859 419.25 23.1859C433.35 23.1859 444.75 67.4958 444.75 122.152Z" fill="white"/>
<path d="M444.75 122.152C444.75 144.719 444.75 221.118 444.75 221.118H393.75C393.75 221.118 393.75 176.808 393.75 122.152C393.75 67.4958 405.15 23.1859 419.25 23.1859C433.35 23.1859 444.75 67.4958 444.75 122.152Z" fill="url(#paint16_linear)"/>
<path d="M600 -58.5361H0V285.596H600V-58.5361Z" fill="url(#paint17_radial)"/>
<path opacity="0.2" d="M492.225 276.599C492.225 284.847 485.475 291.594 477.225 291.594H106.725C98.3996 291.594 91.7246 284.847 91.7246 276.599H492.225Z" fill="url(#paint18_linear)"/>
<path d="M201.826 122.752C201.151 124.026 200.101 125.151 196.801 127.175C196.801 127.175 195.451 127.85 196.126 131.149H184.276C184.276 131.149 186.151 130.024 187.351 127.175C188.026 125.601 187.726 123.727 186.676 122.377C185.326 120.578 183.601 117.579 183.601 110.681C183.601 102.809 189.301 100.185 194.101 100.185C200.851 100.185 204.076 104.758 204.076 113.38C204.076 116.379 203.476 119.528 201.826 122.752Z" fill="#FFCCBC"/>
<path d="M184.575 122.152L183.075 118.403C183.075 118.403 182.325 114.355 182.325 110.756C182.325 102.884 186.975 98.9101 194.1 98.9101C200.1 98.9101 202.725 102.884 203.4 106.782L198.825 110.156C198.825 110.156 197.325 110.906 197.325 112.78C197.25 114.055 196.35 114.355 195.825 114.655C195.225 112.181 194.325 111.656 193.5 111.656C193.05 111.656 192.525 111.731 192.075 112.106C191.475 112.63 191.325 113.53 191.325 114.43C191.325 115.854 192 117.054 192.825 117.654C192.825 119.228 192.075 121.327 192.075 121.327L189.825 122.152H184.575Z" fill="#3E2723"/>
<path d="M219 269.627C211.2 269.852 210.675 265.353 210.675 265.353L204.075 266.703L205.575 274.425C205.575 274.425 206.1 277.049 208.65 276.524C214.35 275.4 224.325 273.375 224.325 273.375C224.325 273.375 224.1 269.552 219 269.627Z" fill="#424242"/>
<path d="M202.2 134.148C202.2 134.148 204 137.972 205.575 139.396C205.575 143.145 202.95 159.639 202.95 159.639L199.2 140.896L200.7 132.648L202.2 134.148Z" fill="#93756B"/>
<path d="M185.175 120.653C185.175 120.653 186.975 119.603 188.925 119.678C189.75 119.678 190.575 119.903 191.25 120.503C194.925 123.427 198.975 123.427 199.575 127.025C199.875 128.525 204.15 129.874 204.15 133.548C204.15 134.748 204.075 135.048 203.25 136.397C201.9 138.646 201.375 141.645 201.375 141.645H185.25V120.653H185.175Z" fill="#7986CB"/>
<path d="M191.25 125.151C191.25 125.151 196.575 126.426 198.975 131.824C199.575 133.173 201 139.171 201 142.395H191.25V125.151Z" fill="#5C6BC0"/>
<path d="M163.95 275.1C161.101 271.951 160.276 271.126 156.826 268.652C155.551 267.752 154.8 266.253 155.775 264.303C156.975 261.904 159.6 258.231 159.6 258.231L165.675 259.43C165.675 259.43 165.825 259.505 165.225 261.305C164.625 263.104 165.45 268.577 167.4 270.152C170.325 272.401 172.65 274.425 172.575 276.599C172.575 276.599 171.45 276.599 170.1 276.599C168.375 276.524 165.15 276.374 163.95 275.1Z" fill="#424242"/>
<path d="M171.825 183.931C171.825 183.931 169.725 209.422 169.65 224.567C166.575 235.063 157.575 258.605 157.575 258.605L166.875 263.854C182.625 235.888 187.2 232.364 192.15 212.346C193.5 207.098 188.025 185.505 188.025 185.505L171.825 183.931Z" fill="#5D65A0"/>
<path d="M198.825 186.105L212.25 265.878L202.425 268.127C202.425 268.127 193.575 244.21 191.85 227.041C188.475 214.071 182.25 200.2 179.925 183.931C205.575 186.555 198.825 186.105 198.825 186.105Z" fill="#495099"/>
<path d="M201.45 146.744C200.4 145.169 196.5 132.649 196.5 132.649L186.75 130.174L184.05 127.925L181.5 128.9C181.5 128.9 172.5 133.398 172.5 146.894C172.5 150.717 172.5 160.389 172.5 160.389L173.25 167.886L175.425 173.06C164.55 197.051 148.575 230.865 148.575 230.865C148.575 230.865 156.675 240.612 178.8 240.612C199.425 240.612 212.25 234.614 212.25 234.614C207.9 204.774 207 163.388 207 163.388C207 163.388 206.7 154.391 201.45 146.744Z" fill="#8D6E63"/>
<path d="M179.701 136.097C174.001 138.122 171.151 152.892 170.401 160.089C169.501 168.411 186.601 191.128 186.601 191.128L191.4 183.256C191.4 183.256 183.226 165.037 183.151 161.888C183.151 160.164 183.601 158.065 184.576 155.516C187.276 148.393 188.326 144.419 187.276 140.221C186.076 135.797 182.701 134.973 179.701 136.097Z" fill="#A1887F"/>
<path d="M183.075 118.403C183.075 122.002 181.575 124.027 181.575 128.9L196.65 133.023C188.775 122.227 183.075 118.403 183.075 118.403Z" fill="#8D6E63"/>
<path d="M196.575 132.648C195.375 137.447 191.325 138.646 191.325 138.646C191.325 138.646 195.15 143.97 199.575 150.192C205.2 158.14 207 163.388 207 163.388C206.85 147.568 198.375 137.447 196.575 132.648Z" fill="#A1887F"/>
<path d="M196.575 132.649C190.575 130.849 188.325 128.9 188.325 128.9C187.575 121.627 183.075 118.403 183.075 118.403C183.075 118.403 191.775 122.452 196.575 132.649Z" fill="#A1887F"/>
<path d="M191.325 95.1613L193.65 97.7104C193.65 97.7104 193.875 95.4612 195.825 94.4116" stroke="#880E4F" stroke-width="2" stroke-miterlimit="10" stroke-linecap="round" stroke-linejoin="round"/>
<path d="M205.575 108.657C205.5 102.509 200.175 97.4105 193.575 97.4105C186.975 97.4105 181.575 102.509 181.575 108.657L175.65 111.281C175.65 111.281 176.175 112.405 179.775 112.405C184.575 112.405 187.575 110.156 187.575 109.406L193.575 110.156H199.575C199.575 110.156 202.575 112.405 207.375 112.405C210.975 112.405 211.575 111.281 211.575 111.281L205.575 108.657Z" fill="#8D6E63"/>
<path d="M198.825 103.783C198.825 107.157 199.575 110.156 199.575 110.156H187.575C187.575 110.156 188.325 107.157 188.325 103.783C188.325 100.26 190.425 97.4105 193.575 97.4105C196.725 97.4105 198.825 100.26 198.825 103.783Z" fill="#A1887F"/>
<path d="M201.825 176.134C202.654 176.134 203.325 175.462 203.325 174.634C203.325 173.806 202.654 173.135 201.825 173.135C200.997 173.135 200.325 173.806 200.325 174.634C200.325 175.462 200.997 176.134 201.825 176.134Z" fill="#5D4037"/>
<path d="M201.825 167.137C202.654 167.137 203.325 166.465 203.325 165.637C203.325 164.809 202.654 164.138 201.825 164.138C200.997 164.138 200.325 164.809 200.325 165.637C200.325 166.465 200.997 167.137 201.825 167.137Z" fill="#5D4037"/>
<path d="M186.975 194.877L183.15 192.553L191.925 178.383L195.825 180.707L186.975 194.877Z" fill="#5D4037"/>
<path d="M366.825 239.037C366.825 239.037 366 249.458 364.65 252.233C363.3 255.007 359.7 258.605 359.25 260.405C358.8 262.204 357.825 266.478 357.375 269.102C357.225 269.852 357.075 271.051 357.075 272.101C357.075 273.525 357.375 275.25 358.5 276.074C359.175 276.524 360.3 276.674 361.35 276.674H363C363.825 276.674 364.5 275.999 364.5 275.175C364.5 273.525 363.15 272.176 361.5 272.176C361.5 269.852 363.375 262.654 364.875 261.679C369.75 258.68 371.925 257.181 371.925 257.181C371.925 257.181 376.875 253.732 376.35 252.158C375.525 249.384 366.825 239.037 366.825 239.037Z" fill="#6D4C41"/>
<path d="M408.001 272.85C408.001 272.85 408.751 276.599 412.126 276.599H414.751C415.576 276.599 416.251 275.924 416.251 275.1C416.251 273.45 414.901 272.101 413.251 272.101H412.501C411.076 272.101 408.151 242.936 408.151 242.936L399.676 245.86L408.001 272.85Z" fill="#6D4C41"/>
<path d="M402.6 246.385C402.6 246.385 397.425 247.959 394.2 247.584C388.8 246.984 386.1 245.71 386.1 245.71C386.1 245.71 386.175 249.908 382.2 255.306C379.425 258.905 376.2 262.579 376.35 264.004C376.575 265.953 379.35 272.101 379.35 272.101H380.85C382.5 272.101 383.85 273.45 383.85 275.1C383.85 275.924 383.175 276.599 382.35 276.599C381.75 276.599 380.925 276.599 379.875 276.599C378.45 276.599 377.55 277.124 374.7 272.775C371.7 268.127 370.2 265.428 369.75 263.554C369.3 261.679 371.475 259.655 371.925 254.107C371.925 254.107 363.675 245.86 363.675 236.713C363.675 229.515 363.675 227.641 363.675 227.641C363.675 227.641 361.8 228.391 359.025 228.391C355.65 228.391 350.7 227.491 347.325 224.042C338.4 215.27 343.5 202.6 343.5 202.6C343.5 202.6 342.075 221.568 355.95 222.318C359.1 222.468 364.425 221.043 367.875 219.844C370.725 218.869 373.125 217.894 378.525 217.819C379.95 217.819 381.525 217.819 383.4 217.894C395.925 218.494 405.15 223.967 409.2 224.342C420.45 225.317 419.85 228.99 427.05 238.062C428.325 239.637 430.35 240.612 431.85 242.261C433.125 243.76 433.875 247.359 435.45 248.334C438.45 250.133 438.45 253.432 438.825 255.082C439.725 259.73 440.85 261.079 443.175 264.978L443.25 270.151C442.875 270.526 438.45 272.251 435.45 272.251C433.725 272.251 429.6 268.802 426.45 265.278C423.45 261.979 420.45 259.655 420.45 257.406C420.45 252.757 421.125 249.458 413.25 250.733L402.6 246.385Z" fill="#8D6E63"/>
<path d="M427.125 248.109C423.6 248.109 419.325 250.358 419.325 255.307C419.325 265.353 419.325 266.103 417.675 268.952C416.475 271.051 417 274.35 420.6 274.35C423 274.35 425.7 272.926 427.05 269.852C427.425 269.027 427.5 268.052 427.5 267.302C427.5 264.378 425.325 262.204 425.25 258.231C425.25 256.881 425.325 255.157 426 253.282C426.825 251.033 428.25 249.908 428.25 249.309C428.325 248.709 428.325 248.109 427.125 248.109Z" fill="#3E2723"/>
<path d="M443.4 264.678C443.4 264.678 441.825 265.803 441.825 267.002C441.825 268.202 443.625 270.001 443.625 270.001C443.625 270.001 444.825 269.402 444.825 267.602C444.825 267.002 443.4 264.678 443.4 264.678Z" fill="#5D4037"/>
<path d="M386.25 245.86L396 250.358C396 250.358 403.65 246.31 404.25 242.111C404.25 242.111 393.75 237.912 388.875 234.764C386.1 232.964 382.5 233.114 382.5 233.114C382.5 233.114 386.25 236.788 386.25 245.86Z" fill="#795548"/>
<path d="M417 250.208C415.725 250.433 410.85 255.606 404.25 256.806C400.95 257.406 401.175 261.679 401.175 265.353C401.175 271.276 396.675 272.101 394.575 272.101C392.85 272.101 391.5 271.351 391.5 269.627V269.102C391.5 267.827 392.55 266.853 393.75 266.853H395.1C395.7 266.853 396.225 266.553 396.45 266.028C396.675 265.578 396.675 265.128 396.525 264.678C395.775 262.654 394.425 256.806 394.425 254.332C394.425 252.832 394.725 251.483 395.925 250.283C397.2 249.009 402.3 245.785 404.1 242.036L408.975 248.334L417 250.208Z" fill="#8D6E63"/>
<path d="M417.676 252.607L416.176 252.233C415.726 252.158 415.501 251.708 415.576 251.258C417.676 243.311 424.201 238.812 427.126 236.938C427.501 236.713 427.951 236.863 428.176 237.238L429.001 238.587C429.226 238.962 429.076 239.412 428.776 239.637C425.026 242.036 420.301 245.785 418.651 252.008C418.426 252.457 418.051 252.682 417.676 252.607Z" fill="#FFAB40"/>
<path d="M432.075 254.857C432.075 254.857 432.225 254.107 433.8 254.107C435.3 254.107 435.825 255.681 435.825 256.431C435.825 257.256 435.075 257.856 434.325 257.856C433.575 257.856 432.825 257.256 432.825 256.731C432.825 255.981 433.575 255.606 433.575 255.606C433.575 255.606 433.8 254.857 432.075 254.857Z" fill="#795548"/>
</g>
<defs>
<linearGradient id="paint0_linear" x1="466.125" y1="69.67" x2="466.125" y2="176.134" gradientUnits="userSpaceOnUse">
<stop stop-color="#F6F6F6" stop-opacity="0.1"/>
<stop offset="0.3453" stop-color="#FBFBFB" stop-opacity="0.4108"/>
<stop offset="1" stop-color="white"/>
</linearGradient>
<linearGradient id="paint1_linear" x1="466.125" y1="69.67" x2="466.125" y2="176.134" gradientUnits="userSpaceOnUse">
<stop stop-color="#F5F5F5"/>
<stop offset="0.3762" stop-color="#FBFBFB"/>
<stop offset="1" stop-color="white"/>
</linearGradient>
<linearGradient id="paint2_linear" x1="384.75" y1="80.1664" x2="384.75" y2="203.124" gradientUnits="userSpaceOnUse">
<stop stop-color="#F6F6F6" stop-opacity="0.1"/>
<stop offset="0.3453" stop-color="#FBFBFB" stop-opacity="0.4108"/>
<stop offset="1" stop-color="white"/>
</linearGradient>
<linearGradient id="paint3_linear" x1="384.75" y1="80.1664" x2="384.75" y2="203.124" gradientUnits="userSpaceOnUse">
<stop stop-color="#F5F5F5"/>
<stop offset="0.3762" stop-color="#FBFBFB"/>
<stop offset="1" stop-color="white"/>
</linearGradient>
<linearGradient id="paint4_linear" x1="432.75" y1="89.1633" x2="432.75" y2="200.125" gradientUnits="userSpaceOnUse">
<stop stop-color="#F6F6F6" stop-opacity="0.1"/>
<stop offset="0.3453" stop-color="#FBFBFB" stop-opacity="0.4108"/>
<stop offset="1" stop-color="white"/>
</linearGradient>
<linearGradient id="paint5_linear" x1="432.75" y1="89.1633" x2="432.75" y2="200.125" gradientUnits="userSpaceOnUse">
<stop stop-color="#F5F5F5"/>
<stop offset="0.3762" stop-color="#FBFBFB"/>
<stop offset="1" stop-color="white"/>
</linearGradient>
<linearGradient id="paint6_linear" x1="495" y1="89.9131" x2="495" y2="218.869" gradientUnits="userSpaceOnUse">
<stop stop-color="#F5F5F5"/>
<stop offset="0.3762" stop-color="#FBFBFB"/>
<stop offset="1" stop-color="white"/>
</linearGradient>
<linearGradient id="paint7_linear" x1="79.875" y1="98.1603" x2="79.875" y2="227.116" gradientUnits="userSpaceOnUse">
<stop stop-color="#F5F5F5"/>
<stop offset="0.3762" stop-color="#FBFBFB"/>
<stop offset="1" stop-color="white"/>
</linearGradient>
<linearGradient id="paint8_linear" x1="108.75" y1="63.6721" x2="108.75" y2="191.128" gradientUnits="userSpaceOnUse">
<stop stop-color="#F5F5F5"/>
<stop offset="0.3762" stop-color="#FBFBFB"/>
<stop offset="1" stop-color="white"/>
</linearGradient>
<linearGradient id="paint9_linear" x1="167.513" y1="32.4078" x2="167.513" y2="190.079" gradientUnits="userSpaceOnUse">
<stop stop-color="#BDBDBD" stop-opacity="0.2"/>
<stop offset="0.0535" stop-color="#C4C4C4" stop-opacity="0.2428"/>
<stop offset="0.2731" stop-color="#DEDEDE" stop-opacity="0.4185"/>
<stop offset="0.5001" stop-color="#F0F0F0" stop-opacity="0.6001"/>
<stop offset="0.7371" stop-color="#FBFBFB" stop-opacity="0.7897"/>
<stop offset="1" stop-color="white"/>
</linearGradient>
<linearGradient id="paint10_linear" x1="495.975" y1="36.6813" x2="495.975" y2="221.868" gradientUnits="userSpaceOnUse">
<stop stop-color="#E0E0E0" stop-opacity="0.7"/>
<stop offset="1" stop-color="white" stop-opacity="0.4"/>
</linearGradient>
<linearGradient id="paint11_linear" x1="97.5" y1="138.646" x2="97.5" y2="221.118" gradientUnits="userSpaceOnUse">
<stop stop-color="#E0E0E0" stop-opacity="0.85"/>
<stop offset="1" stop-color="white" stop-opacity="0.4"/>
</linearGradient>
<radialGradient id="paint12_radial" cx="0" cy="0" r="1" gradientUnits="userSpaceOnUse" gradientTransform="translate(141.618 170.911) scale(94.8602 94.5908)">
<stop stop-color="#F6F6F6" stop-opacity="0"/>
<stop offset="1" stop-color="white"/>
</radialGradient>
<linearGradient id="paint13_linear" x1="138" y1="71.1695" x2="138" y2="214.296" gradientUnits="userSpaceOnUse">
<stop stop-color="#BDBDBD" stop-opacity="0.4"/>
<stop offset="1" stop-color="white"/>
</linearGradient>
<linearGradient id="paint14_linear" x1="286.499" y1="115.404" x2="286.499" y2="226.366" gradientUnits="userSpaceOnUse">
<stop stop-color="#BDBDBD"/>
<stop offset="1" stop-color="white"/>
</linearGradient>
<radialGradient id="paint15_radial" cx="0" cy="0" r="1" gradientUnits="userSpaceOnUse" gradientTransform="translate(286.499 170.885) scale(98.5218 98.4881)">
<stop stop-color="#F6F6F6" stop-opacity="0"/>
<stop offset="1" stop-color="white"/>
</radialGradient>
<linearGradient id="paint16_linear" x1="419.25" y1="23.1859" x2="419.25" y2="221.118" gradientUnits="userSpaceOnUse">
<stop stop-color="#E0E0E0" stop-opacity="0.7"/>
<stop offset="1" stop-color="white" stop-opacity="0.4"/>
</linearGradient>
<radialGradient id="paint17_radial" cx="0" cy="0" r="1" gradientUnits="userSpaceOnUse" gradientTransform="translate(299.997 113.53) rotate(0.269627) scale(267.768 478.38)">
<stop stop-color="white" stop-opacity="0"/>
<stop offset="0.8625" stop-color="white" stop-opacity="0.8625"/>
<stop offset="1" stop-color="white"/>
</radialGradient>
<linearGradient id="paint18_linear" x1="291.975" y1="291.594" x2="291.975" y2="276.599" gradientUnits="userSpaceOnUse">
<stop stop-color="white"/>
<stop offset="1" stop-color="#E0E0E0"/>
</linearGradient>
<clipPath id="clip0">
<rect width="600" height="344" fill="white"/>
</clipPath>
</defs>
</svg>
