<svg width="128" height="128" viewBox="0 0 128 128" fill="none" xmlns="http://www.w3.org/2000/svg">
<path d="M90 124H38C32.5 124 28 119.5 28 114V14C28 8.5 32.5 4 38 4H90C95.5 4 100 8.5 100 14V114C100 119.5 95.5 124 90 124Z" fill="white"/>
<path d="M68.7 69L77.4 57C78.4 55.7 78.1 53.8 76.7 52.8C75.4 51.8 73.5 52.1 72.5 53.5L65 63.9L57.4 53.5C56.4 52.2 54.5 51.9 53.2 52.8C51.9 53.8 51.6 55.7 52.5 57L61.2 69L52.5 81C51.5 82.3 51.8 84.2 53.2 85.2C53.7 85.6 54.4 85.8 55 85.8C55.9 85.8 56.8 85.4 57.4 84.6L65 74.1L72.6 84.5C73.2 85.3 74.1 85.7 75 85.7C75.6 85.7 76.2 85.5 76.8 85.1C78.1 84.1 78.4 82.2 77.5 80.9L68.7 69Z" fill="#444B54"/>
<path d="M90 1H38C30.8 1 25 6.8 25 14V114C25 121.2 30.8 127 38 127H90C97.2 127 103 121.2 103 114V14C103 6.8 97.2 1 90 1ZM97 114C97 117.9 93.9 121 90 121H38C34.1 121 31 117.9 31 114V14C31 10.1 34.1 7 38 7H46V10C46 11.7 47.3 13 49 13H79C80.7 13 82 11.7 82 10V7H90C93.9 7 97 10.1 97 14V114Z" fill="#444B54"/>
</svg>
