<svg width="169" height="48" viewBox="0 0 169 48" fill="none" xmlns="http://www.w3.org/2000/svg">
<path d="M5.04 21.09C5.56 22.97 6.97 23.91 9.27 23.91C10.75 23.91 11.87 23.41 12.63 22.41L15.75 24.21C14.27 26.35 12.09 27.42 9.21 27.42C6.73 27.42 4.74 26.67 3.24 25.17C1.74 23.67 0.99 21.78 0.99 19.5C0.99 17.24 1.73 15.36 3.21 13.86C4.69 12.34 6.59 11.58 8.91 11.58C11.11 11.58 12.92 12.34 14.34 13.86C15.78 15.38 16.5 17.26 16.5 19.5C16.5 20 16.45 20.53 16.35 21.09H5.04ZM4.98 18.09H12.63C12.41 17.07 11.95 16.31 11.25 15.81C10.57 15.31 9.79 15.06 8.91 15.06C7.87 15.06 7.01 15.33 6.33 15.87C5.65 16.39 5.2 17.13 4.98 18.09ZM30.4545 6H34.3245V27H30.4545V25.23C29.3145 26.69 27.6945 27.42 25.5945 27.42C23.5745 27.42 21.8445 26.66 20.4045 25.14C18.9845 23.6 18.2745 21.72 18.2745 19.5C18.2745 17.28 18.9845 15.41 20.4045 13.89C21.8445 12.35 23.5745 11.58 25.5945 11.58C27.6945 11.58 29.3145 12.31 30.4545 13.77V6ZM23.3145 22.56C24.1145 23.34 25.1145 23.73 26.3145 23.73C27.5145 23.73 28.5045 23.34 29.2845 22.56C30.0645 21.76 30.4545 20.74 30.4545 19.5C30.4545 18.26 30.0645 17.25 29.2845 16.47C28.5045 15.67 27.5145 15.27 26.3145 15.27C25.1145 15.27 24.1145 15.67 23.3145 16.47C22.5345 17.25 22.1445 18.26 22.1445 19.5C22.1445 20.74 22.5345 21.76 23.3145 22.56ZM41.1338 21.09C41.6538 22.97 43.0638 23.91 45.3638 23.91C46.8438 23.91 47.9638 23.41 48.7238 22.41L51.8438 24.21C50.3638 26.35 48.1838 27.42 45.3038 27.42C42.8238 27.42 40.8338 26.67 39.3338 25.17C37.8338 23.67 37.0837 21.78 37.0837 19.5C37.0837 17.24 37.8238 15.36 39.3038 13.86C40.7838 12.34 42.6838 11.58 45.0038 11.58C47.2038 11.58 49.0138 12.34 50.4338 13.86C51.8738 15.38 52.5938 17.26 52.5938 19.5C52.5938 20 52.5438 20.53 52.4438 21.09H41.1338ZM41.0738 18.09H48.7238C48.5038 17.07 48.0438 16.31 47.3438 15.81C46.6638 15.31 45.8838 15.06 45.0038 15.06C43.9638 15.06 43.1038 15.33 42.4238 15.87C41.7438 16.39 41.2938 17.13 41.0738 18.09ZM63.6354 11.58C65.2754 11.58 66.6254 12.13 67.6854 13.23C68.7654 14.33 69.3054 15.85 69.3054 17.79V27H65.4354V18.27C65.4354 17.27 65.1654 16.51 64.6254 15.99C64.0854 15.45 63.3654 15.18 62.4654 15.18C61.4654 15.18 60.6654 15.49 60.0654 16.11C59.4654 16.73 59.1654 17.66 59.1654 18.9V27H55.2954V12H59.1654V13.68C60.1054 12.28 61.5954 11.58 63.6354 11.58Z" fill="#1C1C1C"/>
<path d="M84.8152 4.50192L89.0001 4.50002L75.6725 41.1436L71.5 41L84.8152 4.50192Z" fill="#64B5F6"/>
<path d="M95.34 27.26C95.34 27.66 95.6 27.99 96.12 28.25C96.66 28.49 97.31 28.71 98.07 28.91C98.83 29.09 99.59 29.33 100.35 29.63C101.11 29.91 101.75 30.39 102.27 31.07C102.81 31.75 103.08 32.6 103.08 33.62C103.08 35.16 102.5 36.35 101.34 37.19C100.2 38.01 98.77 38.42 97.05 38.42C93.97 38.42 91.87 37.23 90.75 34.85L94.11 32.96C94.55 34.26 95.53 34.91 97.05 34.91C98.43 34.91 99.12 34.48 99.12 33.62C99.12 33.22 98.85 32.9 98.31 32.66C97.79 32.4 97.15 32.17 96.39 31.97C95.63 31.77 94.87 31.52 94.11 31.22C93.35 30.92 92.7 30.45 92.16 29.81C91.64 29.15 91.38 28.33 91.38 27.35C91.38 25.87 91.92 24.71 93 23.87C94.1 23.01 95.46 22.58 97.08 22.58C98.3 22.58 99.41 22.86 100.41 23.42C101.41 23.96 102.2 24.74 102.78 25.76L99.48 27.56C99 26.54 98.2 26.03 97.08 26.03C96.58 26.03 96.16 26.14 95.82 26.36C95.5 26.58 95.34 26.88 95.34 27.26ZM113.709 26.72H110.319V32.96C110.319 33.48 110.449 33.86 110.709 34.1C110.969 34.34 111.349 34.48 111.849 34.52C112.349 34.54 112.969 34.53 113.709 34.49V38C111.049 38.3 109.169 38.05 108.069 37.25C106.989 36.45 106.449 35.02 106.449 32.96V26.72H103.839V23H106.449V19.97L110.319 18.8V23H113.709V26.72ZM128.749 36.14C127.209 37.66 125.329 38.42 123.109 38.42C120.889 38.42 119.009 37.66 117.469 36.14C115.949 34.6 115.189 32.72 115.189 30.5C115.189 28.28 115.949 26.41 117.469 24.89C119.009 23.35 120.889 22.58 123.109 22.58C125.329 22.58 127.209 23.35 128.749 24.89C130.289 26.41 131.059 28.28 131.059 30.5C131.059 32.72 130.289 34.6 128.749 36.14ZM120.199 33.47C120.979 34.25 121.949 34.64 123.109 34.64C124.269 34.64 125.239 34.25 126.019 33.47C126.799 32.69 127.189 31.7 127.189 30.5C127.189 29.3 126.799 28.31 126.019 27.53C125.239 26.75 124.269 26.36 123.109 26.36C121.949 26.36 120.979 26.75 120.199 27.53C119.439 28.31 119.059 29.3 119.059 30.5C119.059 31.7 119.439 32.69 120.199 33.47ZM137.652 25.58C138.012 24.62 138.602 23.9 139.422 23.42C140.262 22.94 141.192 22.7 142.212 22.7V27.02C141.032 26.88 139.972 27.12 139.032 27.74C138.112 28.36 137.652 29.39 137.652 30.83V38H133.782V23H137.652V25.58ZM161.065 22.58C162.785 22.58 164.155 23.14 165.175 24.26C166.215 25.38 166.735 26.88 166.735 28.76V38H162.865V29.03C162.865 28.13 162.645 27.43 162.205 26.93C161.765 26.43 161.145 26.18 160.345 26.18C159.465 26.18 158.775 26.47 158.275 27.05C157.795 27.63 157.555 28.47 157.555 29.57V38H153.685V29.03C153.685 28.13 153.465 27.43 153.025 26.93C152.585 26.43 151.965 26.18 151.165 26.18C150.305 26.18 149.615 26.47 149.095 27.05C148.595 27.63 148.345 28.47 148.345 29.57V38H144.475V23H148.345V24.59C149.245 23.25 150.635 22.58 152.515 22.58C154.355 22.58 155.715 23.3 156.595 24.74C157.595 23.3 159.085 22.58 161.065 22.58Z" fill="#1C1C1C"/>
</svg>
