<svg width="1947" height="284" viewBox="0 0 1947 284" fill="none" xmlns="http://www.w3.org/2000/svg">
<path d="M63.0148 202.857H203.708C205.294 195.3 206.086 187.345 206.086 178.992C206.086 118.93 163.284 73.9832 105.421 73.9832C42.8025 73.9832 0 119.725 0 178.992C0 238.258 42.0099 284 109.781 284C147.431 284 176.759 270.078 196.178 243.031L148.62 215.585C140.693 224.336 126.822 230.7 110.573 230.7C88.7756 230.7 70.5449 223.541 63.0148 202.857ZM61.8259 158.308C67.3744 138.022 82.4345 126.885 105.025 126.885C122.859 126.885 140.693 135.238 147.035 158.308H61.8259ZM381.734 0V98.2465C368.655 83.1317 349.236 73.9832 322.682 73.9832C270.764 73.9832 227.962 119.725 227.962 178.992C227.962 238.258 270.764 284 322.682 284C349.236 284 368.655 274.852 381.734 259.737V278.431H441.182V0H381.734ZM334.572 227.518C307.226 227.518 287.41 208.824 287.41 178.992C287.41 149.16 307.226 130.465 334.572 130.465C361.918 130.465 381.734 149.16 381.734 178.992C381.734 208.824 361.918 227.518 334.572 227.518ZM537.902 202.857H678.596C680.181 195.3 680.974 187.345 680.974 178.992C680.974 118.93 638.171 73.9832 580.308 73.9832C517.69 73.9832 474.887 119.725 474.887 178.992C474.887 238.258 516.897 284 584.668 284C622.318 284 651.646 270.078 671.066 243.031L623.507 215.585C615.581 224.336 601.71 230.7 585.461 230.7C563.663 230.7 545.432 223.541 537.902 202.857ZM536.713 158.308C542.262 138.022 557.322 126.885 579.912 126.885C597.747 126.885 615.581 135.238 621.922 158.308H536.713ZM830.813 73.9832C804.656 73.9832 784.84 83.5294 774.139 98.2465V79.5518H714.691V278.431H774.139V169.843C774.139 141.602 789.199 128.874 810.997 128.874C830.02 128.874 845.477 140.409 845.477 165.07V278.431H904.925V156.319C904.925 102.622 870.841 73.9832 830.813 73.9832ZM1002.03 137.625C1002.03 130.465 1008.37 126.487 1018.67 126.487C1031.75 126.487 1039.68 133.647 1045.22 143.989L1095.95 116.543C1079.31 88.3025 1050.77 73.9832 1018.67 73.9832C977.454 73.9832 940.992 95.8599 940.992 139.216C940.992 208.028 1038.49 196.493 1038.49 218.37C1038.49 226.325 1031.35 230.7 1017.09 230.7C999.648 230.7 988.551 222.347 983.399 207.232L931.877 236.667C947.333 268.885 977.454 284 1017.09 284C1059.89 284 1099.52 264.51 1099.52 218.768C1099.52 145.182 1002.03 160.297 1002.03 137.625ZM1239.52 136.829V79.5518H1198.7V23.8656L1139.25 41.7647V79.5518H1107.54V136.829H1139.25V207.232C1139.25 262.919 1161.84 286.387 1239.52 278.431V224.336C1213.36 225.927 1198.7 224.336 1198.7 207.232V136.829H1239.52ZM1364.42 284C1422.68 284 1469.45 238.258 1469.45 178.992C1469.45 119.725 1422.68 73.9832 1364.42 73.9832C1306.16 73.9832 1259.4 119.725 1259.4 178.992C1259.4 238.258 1306.16 284 1364.42 284ZM1364.42 225.927C1338.66 225.927 1318.85 207.232 1318.85 178.992C1318.85 150.751 1338.66 132.056 1364.42 132.056C1390.18 132.056 1410 150.751 1410 178.992C1410 207.232 1390.18 225.927 1364.42 225.927ZM1562.52 114.952V79.5518H1503.07V278.431H1562.52V188.538C1562.52 149.16 1597.39 139.216 1621.96 143.193V75.5742C1597 75.5742 1570.44 88.3025 1562.52 114.952ZM1871.7 73.9832C1843.56 73.9832 1825.33 84.3249 1814.23 100.235C1803.14 83.5294 1785.7 73.9832 1762.31 73.9832C1735.76 73.9832 1718.32 84.3249 1709.21 97.8487V79.5518H1649.76V278.431H1709.21V166.263C1709.21 142.796 1720.31 128.874 1740.12 128.874C1759.14 128.874 1768.66 141.602 1768.66 161.49V278.431H1828.1V166.263C1828.1 142.796 1839.2 128.874 1859.02 128.874C1878.04 128.874 1887.55 141.602 1887.55 161.49V278.431H1947V156.319C1947 106.599 1917.28 73.9832 1871.7 73.9832Z" fill="#1C1C1C"/>
</svg>
