<svg width="128" height="128" viewBox="0 0 128 128" fill="none" xmlns="http://www.w3.org/2000/svg">
<path d="M64 112C90.5097 112 112 90.5097 112 64C112 37.4903 90.5097 16 64 16C37.4903 16 16 37.4903 16 64C16 90.5097 37.4903 112 64 112Z" fill="white"/>
<path d="M64 103C85.5391 103 103 85.5391 103 64C103 42.4609 85.5391 25 64 25C42.4609 25 25 42.4609 25 64C25 85.5391 42.4609 103 64 103Z" fill="#D65454"/>
<path d="M64 112C90.5097 112 112 90.5097 112 64C112 37.4903 90.5097 16 64 16C37.4903 16 16 37.4903 16 64C16 90.5097 37.4903 112 64 112Z" stroke="#444B54" stroke-width="6" stroke-miterlimit="10"/>
<path d="M68.7 64.5L80 53.2C81.2 52 81.2 50.1 80 49C78.8 47.8 76.9 47.8 75.8 49L64.5 60.3L53.2 48.9C52 47.7 50.1 47.7 49 48.9C47.8 50.1 47.8 52 49 53.1L60.3 64.5L48.9 75.8C47.7 77 47.7 78.9 48.9 80C49.5 80.6 50.3 80.9 51 80.9C51.7 80.9 52.5 80.6 53.1 80L64.5 68.7L75.8 80C76.4 80.6 77.2 80.9 77.9 80.9C78.6 80.9 79.4 80.6 80 80C81.2 78.8 81.2 76.9 80 75.8L68.7 64.5Z" fill="white"/>
</svg>
