<svg width="128" height="128" viewBox="0 0 128 128" fill="none" xmlns="http://www.w3.org/2000/svg">
<path d="M64 112C90.5097 112 112 90.5097 112 64C112 37.4903 90.5097 16 64 16C37.4903 16 16 37.4903 16 64C16 90.5097 37.4903 112 64 112Z" fill="white"/>
<path d="M64 103C85.5391 103 103 85.5391 103 64C103 42.4609 85.5391 25 64 25C42.4609 25 25 42.4609 25 64C25 85.5391 42.4609 103 64 103Z" fill="#C8C8C8"/>
<path d="M63.0246 72.2C64.1746 72.2 64.9746 71.3 65.1746 70.2L65.3746 67.9C70.9246 66.95 75.4746 64.1 75.4746 57.8V57.7C75.4746 51.45 70.7246 47.55 63.7246 47.55C59.1246 47.55 55.7746 49.2 53.1246 51.7C52.4246 52.3 52.1246 53.1 52.1246 53.85C52.1246 55.35 53.3746 56.6 54.9246 56.6C55.6246 56.6 56.2746 56.3 56.7746 55.9C58.7746 54.1 60.9246 53.15 63.5746 53.15C67.1746 53.15 69.3246 55.1 69.3246 57.9V58C69.3246 61.15 66.7246 62.95 62.0246 63.4C60.6746 63.55 59.8746 64.55 60.0746 65.9L60.5746 70.2C60.7246 71.35 61.5746 72.2 62.7246 72.2H63.0246ZM59.1746 79.3V79.8C59.1746 81.75 60.6746 83.25 62.7246 83.25C64.7746 83.25 66.2746 81.75 66.2746 79.8V79.3C66.2746 77.35 64.7746 75.85 62.7246 75.85C60.6746 75.85 59.1746 77.35 59.1746 79.3Z" fill="white"/>
<path d="M64 112C90.5097 112 112 90.5097 112 64C112 37.4903 90.5097 16 64 16C37.4903 16 16 37.4903 16 64C16 90.5097 37.4903 112 64 112Z" stroke="#444B54" stroke-width="6" stroke-miterlimit="10"/>
</svg>
