<svg width="137" height="135" viewBox="0 0 137 135" fill="none" xmlns="http://www.w3.org/2000/svg">
<path d="M111.5 121.7H32.5C30.8 121.7 29.5 120.4 29.5 118.7C29.5 117 30.8 115.7 32.5 115.7H111.5C115.4 115.7 118.5 112.6 118.5 108.7V37C118.5 35.3 119.8 34 121.5 34C123.2 34 124.5 35.3 124.5 37V108.6C124.5 115.8 118.7 121.7 111.5 121.7Z" fill="#444B54"/>
<path d="M124 134.7H45C43.3 134.7 42 133.4 42 131.7C42 130 43.3 128.7 45 128.7H124C127.9 128.7 131 125.6 131 121.7V50C131 48.3 132.3 47 134 47C135.7 47 137 48.3 137 50V121.6C137 128.8 131.2 134.7 124 134.7Z" fill="#444B54"/>
<path d="M97.5 105.7H18.5C13 105.7 8.5 101.2 8.5 100.7V29C8.5 18.5 13 14 18.5 14H97.5C103 14 107.5 18.5 107.5 29V100.6C107.5 101.2 103 105.7 97.5 105.7Z" fill="#CADBEA"/>
<path d="M98 105.7H19C13.5 105.7 9 101.2 9 95.7V34H108V95.6C108 101.2 103.5 105.7 98 105.7Z" fill="white"/>
<path d="M49.3164 70.6484H50.9277V72.9238H49.3164V76H46.4941V72.9238H40.6641L40.5371 71.1465L46.4648 61.7812H49.3164V70.6484ZM43.3496 70.6484H46.4941V65.6289L46.3086 65.9512L43.3496 70.6484ZM63.0371 71.0488H57.5391V68.7734H63.0371V71.0488ZM76.7676 70.3164C76.0319 71.0391 75.1725 71.4004 74.1895 71.4004C72.9329 71.4004 71.9271 70.9707 71.1719 70.1113C70.4167 69.2454 70.0391 68.0801 70.0391 66.6152C70.0391 65.6842 70.2409 64.8314 70.6445 64.0566C71.0547 63.2754 71.6243 62.6699 72.3535 62.2402C73.0827 61.804 73.903 61.5859 74.8145 61.5859C75.752 61.5859 76.5853 61.8203 77.3145 62.2891C78.0436 62.7578 78.61 63.4316 79.0137 64.3105C79.4173 65.1895 79.6224 66.1953 79.6289 67.3281V68.373C79.6289 70.7428 79.0397 72.6048 77.8613 73.959C76.6829 75.3132 75.013 76.0358 72.8516 76.127L72.1582 76.1367V73.7832L72.7832 73.7734C75.2376 73.6628 76.5658 72.5104 76.7676 70.3164ZM74.8828 69.2422C75.3385 69.2422 75.7292 69.125 76.0547 68.8906C76.3867 68.6562 76.6374 68.373 76.8066 68.041V66.8789C76.8066 65.9219 76.6243 65.1797 76.2598 64.6523C75.8952 64.125 75.4069 63.8613 74.7949 63.8613C74.2285 63.8613 73.763 64.1217 73.3984 64.6426C73.0339 65.1569 72.8516 65.8047 72.8516 66.5859C72.8516 67.3607 73.0273 67.9987 73.3789 68.5C73.737 68.9948 74.2383 69.2422 74.8828 69.2422Z" fill="#CADBEA"/>
<path d="M97.5 108.7H18.5C11.3 108.7 5.5 102.9 5.5 95.7V34C5.5 32.3 6.8 31 8.5 31C10.2 31 11.5 32.3 11.5 34V95.6C11.5 99.5 14.6 102.6 18.5 102.6H97.5C101.4 102.6 104.5 99.5 104.5 95.6V34C104.5 32.3 105.8 31 107.5 31C109.2 31 110.5 32.3 110.5 34V95.6C110.5 102.8 104.7 108.7 97.5 108.7Z" fill="#444B54"/>
<path d="M107.5 37C105.8 37 104.5 35.7 104.5 34V24C104.5 20.1 101.4 17 97.5 17H18.5C14.6 17 11.5 20.1 11.5 24V34C11.5 35.7 10.2 37 8.5 37C6.8 37 5.5 35.7 5.5 34V24C5.5 16.8 11.3 11 18.5 11H97.5C104.7 11 110.5 16.8 110.5 24V34C110.5 35.7 109.2 37 107.5 37Z" fill="#444B54"/>
<path d="M18.4998 27.0001C18.2998 27.0001 18.0998 27.0001 17.8998 26.9001C17.6998 26.9001 17.4998 26.8001 17.2998 26.7001C17.0998 26.6001 16.9998 26.5001 16.7998 26.4001C16.5998 26.3001 16.4998 26.2001 16.2998 26.0001C16.0998 25.8001 15.9998 25.7001 15.8998 25.5001C15.7998 25.3001 15.6998 25.2001 15.5998 25.0001C15.4998 24.8001 15.4998 24.6001 15.3998 24.4001C15.2998 24.2001 15.2998 24.0001 15.2998 23.8001C15.2998 23.0001 15.5998 22.2001 16.1998 21.7001C16.2998 21.6001 16.4998 21.4001 16.6998 21.3001C16.8998 21.2001 16.9998 21.1001 17.1998 21.0001C17.3998 20.9001 17.5998 20.9001 17.7998 20.8001C18.7998 20.6001 19.7998 20.9001 20.4998 21.6001C21.0998 22.2001 21.3998 22.9001 21.3998 23.7001C21.3998 23.9001 21.3998 24.1001 21.2998 24.3001C21.1998 24.5001 21.1998 24.7001 21.0998 24.9001C20.9998 25.1001 20.8998 25.3001 20.7998 25.4001C20.6998 25.6001 20.5998 25.7001 20.3998 25.9001C20.0998 26.7001 19.2998 27.0001 18.4998 27.0001Z" fill="white"/>
<path d="M28.5 26.9998C27.7 26.9998 26.9 26.6998 26.4 26.0998C25.8 25.4998 25.5 24.7998 25.5 23.9998C25.5 23.1998 25.8 22.3998 26.4 21.8998C26.5 21.7998 26.7 21.5998 26.9 21.4998C27.1 21.3998 27.2 21.2998 27.4 21.1998C27.6 21.0998 27.8 21.0998 28 20.9998C28.4 20.8998 28.8 20.8998 29.2 20.9998C29.4 20.9998 29.6 21.0998 29.8 21.1998C30 21.2998 30.2 21.3998 30.3 21.4998C30.5 21.5998 30.6 21.6998 30.8 21.8998C31.4 22.4998 31.7 23.1998 31.7 23.9998C31.7 24.7998 31.4 25.5998 30.8 26.0998C30.1 26.6998 29.3 26.9998 28.5 26.9998Z" fill="white"/>
<path d="M38.4998 27.0001C38.2998 27.0001 38.0998 27.0001 37.8998 26.9001C37.6998 26.9001 37.4998 26.8001 37.2998 26.7001C37.0998 26.6001 36.9998 26.5001 36.7998 26.4001C36.5998 26.3001 36.4998 26.2001 36.2998 26.0001C36.0998 25.8001 35.9998 25.7001 35.8998 25.5001C35.7998 25.3001 35.6998 25.2001 35.5998 25.0001C35.4998 24.8001 35.4998 24.6001 35.3998 24.4001C35.2998 24.2001 35.2998 24.0001 35.2998 23.8001C35.2998 23.0001 35.5998 22.2001 36.1998 21.7001C36.2998 21.6001 36.4998 21.4001 36.6998 21.3001C36.8998 21.2001 36.9998 21.1001 37.1998 21.0001C37.3998 20.9001 37.5998 20.9001 37.7998 20.8001C38.7998 20.6001 39.7998 20.9001 40.4998 21.6001C41.0998 22.2001 41.3998 22.9001 41.3998 23.7001C41.3998 23.9001 41.3998 24.1001 41.2998 24.3001C41.1998 24.5001 41.1998 24.7001 41.0998 24.9001C40.9998 25.1001 40.8998 25.3001 40.7998 25.4001C40.6998 25.6001 40.5998 25.7001 40.3998 25.9001C40.0998 26.7001 39.2998 27.0001 38.4998 27.0001Z" fill="white"/>
</svg>
