<svg width="128" height="128" viewBox="0 0 128 128" fill="none" xmlns="http://www.w3.org/2000/svg">
<path d="M111.5 121.7H32.5C30.8 121.7 29.5 120.4 29.5 118.7C29.5 117 30.8 115.7 32.5 115.7H111.5C115.4 115.7 118.5 112.6 118.5 108.7V37C118.5 35.3 119.8 34 121.5 34C123.2 34 124.5 35.3 124.5 37V108.6C124.5 115.8 118.7 121.7 111.5 121.7Z" fill="#444B54"/>
<path d="M97.5 105.7H18.5C13 105.7 8.5 101.2 8.5 100.7V29C8.5 18.5 13 14 18.5 14H97.5C103 14 107.5 18.5 107.5 29V100.6C107.5 101.2 103 105.7 97.5 105.7Z" fill="#CADBEA"/>
<path d="M98 105.7H19C13.5 105.7 9 101.2 9 95.7V34H108V95.6C108 101.2 103.5 105.7 98 105.7Z" fill="white"/>
<path d="M47.8223 76H45V65.1211L41.6309 66.166V63.8711L47.5195 61.7617H47.8223V76ZM63.0371 71.0488H57.5391V68.7734H63.0371V71.0488ZM68.0566 67.6406H69.5605C70.2767 67.6406 70.8073 67.4616 71.1523 67.1035C71.4974 66.7454 71.6699 66.2702 71.6699 65.6777C71.6699 65.1048 71.4974 64.6589 71.1523 64.3398C70.8138 64.0208 70.3451 63.8613 69.7461 63.8613C69.2057 63.8613 68.7533 64.0111 68.3887 64.3105C68.0241 64.6035 67.8418 64.9876 67.8418 65.4629H65.0195C65.0195 64.7207 65.2181 64.0566 65.6152 63.4707C66.0189 62.8783 66.5788 62.416 67.2949 62.084C68.0176 61.752 68.8118 61.5859 69.6777 61.5859C71.1816 61.5859 72.36 61.9473 73.2129 62.6699C74.0658 63.3861 74.4922 64.3757 74.4922 65.6387C74.4922 66.2897 74.2936 66.8887 73.8965 67.4355C73.4993 67.9824 72.9785 68.4023 72.334 68.6953C73.1348 68.9818 73.7305 69.4115 74.1211 69.9844C74.5182 70.5573 74.7168 71.2344 74.7168 72.0156C74.7168 73.2786 74.2546 74.291 73.3301 75.0527C72.4121 75.8145 71.1947 76.1953 69.6777 76.1953C68.2585 76.1953 67.0964 75.821 66.1914 75.0723C65.293 74.3236 64.8438 73.334 64.8438 72.1035H67.666C67.666 72.6374 67.8646 73.0736 68.2617 73.4121C68.6654 73.7507 69.1602 73.9199 69.7461 73.9199C70.4167 73.9199 70.9408 73.7441 71.3184 73.3926C71.7025 73.0345 71.8945 72.5625 71.8945 71.9766C71.8945 70.5573 71.1133 69.8477 69.5508 69.8477H68.0566V67.6406Z" fill="#CADBEA"/>
<path d="M97.5 108.7H18.5C11.3 108.7 5.5 102.9 5.5 95.7V34C5.5 32.3 6.8 31 8.5 31C10.2 31 11.5 32.3 11.5 34V95.6C11.5 99.5 14.6 102.6 18.5 102.6H97.5C101.4 102.6 104.5 99.5 104.5 95.6V34C104.5 32.3 105.8 31 107.5 31C109.2 31 110.5 32.3 110.5 34V95.6C110.5 102.8 104.7 108.7 97.5 108.7Z" fill="#444B54"/>
<path d="M107.5 37C105.8 37 104.5 35.7 104.5 34V24C104.5 20.1 101.4 17 97.5 17H18.5C14.6 17 11.5 20.1 11.5 24V34C11.5 35.7 10.2 37 8.5 37C6.8 37 5.5 35.7 5.5 34V24C5.5 16.8 11.3 11 18.5 11H97.5C104.7 11 110.5 16.8 110.5 24V34C110.5 35.7 109.2 37 107.5 37Z" fill="#444B54"/>
<path d="M18.4998 27.0001C18.2998 27.0001 18.0998 27.0001 17.8998 26.9001C17.6998 26.9001 17.4998 26.8001 17.2998 26.7001C17.0998 26.6001 16.9998 26.5001 16.7998 26.4001C16.5998 26.3001 16.4998 26.2001 16.2998 26.0001C16.0998 25.8001 15.9998 25.7001 15.8998 25.5001C15.7998 25.3001 15.6998 25.2001 15.5998 25.0001C15.4998 24.8001 15.4998 24.6001 15.3998 24.4001C15.2998 24.2001 15.2998 24.0001 15.2998 23.8001C15.2998 23.0001 15.5998 22.2001 16.1998 21.7001C16.2998 21.6001 16.4998 21.4001 16.6998 21.3001C16.8998 21.2001 16.9998 21.1001 17.1998 21.0001C17.3998 20.9001 17.5998 20.9001 17.7998 20.8001C18.7998 20.6001 19.7998 20.9001 20.4998 21.6001C21.0998 22.2001 21.3998 22.9001 21.3998 23.7001C21.3998 23.9001 21.3998 24.1001 21.2998 24.3001C21.1998 24.5001 21.1998 24.7001 21.0998 24.9001C20.9998 25.1001 20.8998 25.3001 20.7998 25.4001C20.6998 25.6001 20.5998 25.7001 20.3998 25.9001C20.0998 26.7001 19.2998 27.0001 18.4998 27.0001Z" fill="white"/>
<path d="M28.5 26.9998C27.7 26.9998 26.9 26.6998 26.4 26.0998C25.8 25.4998 25.5 24.7998 25.5 23.9998C25.5 23.1998 25.8 22.3998 26.4 21.8998C26.5 21.7998 26.7 21.5998 26.9 21.4998C27.1 21.3998 27.2 21.2998 27.4 21.1998C27.6 21.0998 27.8 21.0998 28 20.9998C28.4 20.8998 28.8 20.8998 29.2 20.9998C29.4 20.9998 29.6 21.0998 29.8 21.1998C30 21.2998 30.2 21.3998 30.3 21.4998C30.5 21.5998 30.6 21.6998 30.8 21.8998C31.4 22.4998 31.7 23.1998 31.7 23.9998C31.7 24.7998 31.4 25.5998 30.8 26.0998C30.1 26.6998 29.3 26.9998 28.5 26.9998Z" fill="white"/>
<path d="M38.4998 27.0001C38.2998 27.0001 38.0998 27.0001 37.8998 26.9001C37.6998 26.9001 37.4998 26.8001 37.2998 26.7001C37.0998 26.6001 36.9998 26.5001 36.7998 26.4001C36.5998 26.3001 36.4998 26.2001 36.2998 26.0001C36.0998 25.8001 35.9998 25.7001 35.8998 25.5001C35.7998 25.3001 35.6998 25.2001 35.5998 25.0001C35.4998 24.8001 35.4998 24.6001 35.3998 24.4001C35.2998 24.2001 35.2998 24.0001 35.2998 23.8001C35.2998 23.0001 35.5998 22.2001 36.1998 21.7001C36.2998 21.6001 36.4998 21.4001 36.6998 21.3001C36.8998 21.2001 36.9998 21.1001 37.1998 21.0001C37.3998 20.9001 37.5998 20.9001 37.7998 20.8001C38.7998 20.6001 39.7998 20.9001 40.4998 21.6001C41.0998 22.2001 41.3998 22.9001 41.3998 23.7001C41.3998 23.9001 41.3998 24.1001 41.2998 24.3001C41.1998 24.5001 41.1998 24.7001 41.0998 24.9001C40.9998 25.1001 40.8998 25.3001 40.7998 25.4001C40.6998 25.6001 40.5998 25.7001 40.3998 25.9001C40.0998 26.7001 39.2998 27.0001 38.4998 27.0001Z" fill="white"/>
</svg>
