<svg width="60" height="60" viewBox="0 0 60 60" fill="none" xmlns="http://www.w3.org/2000/svg">
<path d="M16.4062 53.4375H54.0469V7.96875C54.0469 6.65625 53.0156 5.625 51.7031 5.625H4.82812C3.51562 5.625 2.48438 6.65625 2.48438 7.96875V39.9844L16.4062 53.4375Z" fill="#DDE9F1"/>
<path d="M54.0469 15H2.48438V7.96875C2.48438 6.65625 3.51562 5.625 4.82812 5.625H51.7031C53.0156 5.625 54.0469 6.65625 54.0469 7.96875V15Z" fill="white"/>
<path d="M54.0469 43.125C53.25 43.125 52.6406 42.5156 52.6406 41.7188V7.96875C52.6406 7.45312 52.2188 7.03125 51.7031 7.03125H4.82812C4.3125 7.03125 3.89062 7.45312 3.89062 7.96875V38.9062C3.89062 39.7031 3.28125 40.3125 2.48438 40.3125C1.6875 40.3125 1.07812 39.7031 1.07812 38.9062V7.96875C1.07812 5.90625 2.76562 4.21875 4.82812 4.21875H51.7031C53.7656 4.21875 55.4531 5.90625 55.4531 7.96875V41.7188C55.4531 42.5156 54.8438 43.125 54.0469 43.125Z" fill="#454B54"/>
<path d="M49.3594 9.375H32.9531C32.1562 9.375 31.5469 9.98438 31.5469 10.7812C31.5469 11.5781 32.1562 12.1875 32.9531 12.1875H49.3594C50.1562 12.1875 50.7656 11.5781 50.7656 10.7812C50.7656 9.98438 50.1562 9.375 49.3594 9.375Z" fill="#7CA5C6"/>
<path d="M15.5625 9.79688C15.2813 10.0781 15.1406 10.4063 15.1406 10.7813C15.1406 11.1563 15.2813 11.5313 15.5625 11.7656C15.8438 12.0469 16.1719 12.1875 16.5469 12.1875C16.9219 12.1875 17.2969 12.0469 17.5313 11.7656C17.8125 11.4844 17.9531 11.1563 17.9531 10.7813C17.9531 10.4063 17.8125 10.0313 17.5313 9.79688C17.0156 9.28125 16.0781 9.28125 15.5625 9.79688Z" fill="#7CA5C6"/>
<path d="M10.875 9.79688C10.5938 10.0781 10.4531 10.4063 10.4531 10.7813C10.4531 11.1563 10.5938 11.5313 10.875 11.7656C11.1563 12.0469 11.4844 12.1875 11.8594 12.1875C12.2344 12.1875 12.6094 12.0469 12.8438 11.7656C13.125 11.4844 13.2656 11.1563 13.2656 10.7813C13.2656 10.4063 13.125 10.0313 12.8438 9.79688C12.3281 9.28125 11.3906 9.28125 10.875 9.79688Z" fill="#7CA5C6"/>
<path d="M6.1875 9.79688C5.90625 10.0781 5.76562 10.4063 5.76562 10.7813C5.76562 11.1563 5.90625 11.5313 6.1875 11.7656C6.46875 12.0469 6.79688 12.1875 7.17188 12.1875C7.54688 12.1875 7.92187 12.0469 8.15625 11.7656C8.4375 11.4844 8.57812 11.1563 8.57812 10.7813C8.57812 10.4063 8.4375 10.0313 8.15625 9.79688C7.64062 9.28125 6.70312 9.28125 6.1875 9.79688Z" fill="#7CA5C6"/>
<path d="M2.53125 38.8125C4.64063 39.0938 6.28125 40.9219 6.28125 43.0781C6.28125 43.5937 6.1875 44.0625 6.04688 44.5312C7.64063 44.5312 8.90625 45.8437 8.90625 47.3906C8.90625 47.5781 8.90625 47.7187 8.85938 47.9062C9.70313 47.3906 10.7344 47.1094 11.8125 47.1094C15 47.1094 17.5781 49.6875 17.5781 52.875L2.57812 52.9219L2.53125 38.8125Z" fill="white"/>
<path d="M17.5312 54.2812C16.7343 54.2812 16.125 53.6718 16.125 52.875C16.125 50.4843 14.1562 48.5156 11.7656 48.5156C10.9687 48.5156 10.2187 48.75 9.56247 49.125C9.09372 49.4062 8.48434 49.4062 8.06247 49.0781C7.59372 48.75 7.40622 48.2343 7.49997 47.6718C7.49997 47.5781 7.54684 47.4843 7.54684 47.3906C7.54684 46.5937 6.89059 45.9375 6.09372 45.9375C5.62497 45.9375 5.20309 45.7031 4.96872 45.3281C4.64059 44.9531 4.54684 44.4843 4.68747 44.0625C4.78122 43.7343 4.87497 43.4062 4.87497 43.0781C4.87497 41.6718 3.79684 40.5 2.29684 40.3125C1.54684 40.2187 0.984343 39.5156 1.07809 38.7187C1.21872 37.9687 1.92184 37.4062 2.67184 37.5C5.57809 37.875 7.68747 40.2187 7.68747 43.0781C7.68747 43.2187 7.68747 43.3125 7.68747 43.4531C8.76559 43.9218 9.60934 44.8125 10.0312 45.9375C10.5937 45.7968 11.2031 45.7031 11.7656 45.7031C15.7031 45.7031 18.9375 48.9375 18.9375 52.875C18.9375 53.6718 18.3281 54.2812 17.5312 54.2812Z" fill="#454B54"/>
<path d="M23.1094 53.6719H54.8906V50.1563C54.8906 48.1875 53.2969 46.6406 51.375 46.6406H38.8125L38.4375 46.7813C36.9844 47.4844 35.2969 46.4531 35.2969 44.8125H34.2188C28.4531 44.8125 25.2656 48.3281 23.1094 53.6719Z" fill="#F16677"/>
<path d="M27.1406 47.5312C27.0938 47.5312 27.0938 47.5312 27.0469 47.5312C27.0469 47.5312 27.0469 47.5312 27 47.5312C26.8125 47.7188 26.5781 47.9062 26.3906 48.1406C25.0313 49.5937 24 51.4687 23.1094 53.6719H33.2344C33.2344 50.2969 30.5156 47.5312 27.1406 47.5312Z" fill="#D85C6B"/>
<path d="M53.7656 47.5781C50.8125 48.0469 48.6094 50.5781 48.6094 53.625H54.8906V50.1562C54.8906 49.125 54.4687 48.2344 53.7656 47.5781Z" fill="#D85C6B"/>
<path d="M54.9377 55.0781H23.1096C22.6408 55.0781 22.2189 54.8438 21.9377 54.4688C21.6564 54.0938 21.6096 53.5781 21.7971 53.1563C23.4846 48.9844 26.5783 43.4531 34.1721 43.4531H34.2658C35.0627 43.4531 35.6721 44.0625 35.6721 44.8594C35.6721 45.6563 35.0627 46.2656 34.2658 46.2656H34.2189C30.2346 46.2656 27.4221 48.1406 25.3127 52.2656H53.5314V50.1563C53.5314 48.9844 52.5939 48.0469 51.4221 48.0469H40.1721C39.7033 48.0469 39.2814 47.8125 39.0471 47.4844L37.5939 45.4688C37.1252 44.8594 37.2658 43.9688 37.9221 43.5C38.5314 43.0313 39.4221 43.1719 39.8908 43.8281L40.9221 45.2813H51.469C54.1877 45.2813 56.3908 47.4844 56.3908 50.2031V53.7188C56.3439 54.4219 55.6877 55.0781 54.9377 55.0781Z" fill="#454B54"/>
<path d="M27.0938 57.1875C29.0354 57.1875 30.6094 55.6135 30.6094 53.6719C30.6094 51.7302 29.0354 50.1562 27.0938 50.1562C25.1521 50.1562 23.5781 51.7302 23.5781 53.6719C23.5781 55.6135 25.1521 57.1875 27.0938 57.1875Z" fill="white"/>
<path d="M43.4062 52.0312C44.4936 52.0312 45.375 51.1498 45.375 50.0625C45.375 48.9752 44.4936 48.0938 43.4062 48.0938C42.3189 48.0938 41.4375 48.9752 41.4375 50.0625C41.4375 51.1498 42.3189 52.0312 43.4062 52.0312Z" fill="white"/>
<path d="M27.0938 58.5938C24.375 58.5938 22.1719 56.3906 22.1719 53.6719C22.1719 50.9531 24.375 48.75 27.0938 48.75C29.8125 48.75 32.0156 50.9531 32.0156 53.6719C32.0156 56.3906 29.8125 58.5938 27.0938 58.5938ZM27.0938 51.5156C25.9219 51.5156 24.9844 52.4531 24.9844 53.625C24.9844 54.7969 25.9219 55.7344 27.0938 55.7344C28.2656 55.7344 29.2031 54.7969 29.2031 53.625C29.2031 52.4531 28.2656 51.5156 27.0938 51.5156Z" fill="#454B54"/>
<path d="M54.75 57.1875C56.6916 57.1875 58.2656 55.6135 58.2656 53.6719C58.2656 51.7302 56.6916 50.1562 54.75 50.1562C52.8084 50.1562 51.2344 51.7302 51.2344 53.6719C51.2344 55.6135 52.8084 57.1875 54.75 57.1875Z" fill="white"/>
<path d="M54.75 58.5938C52.0312 58.5938 49.8281 56.3906 49.8281 53.6719C49.8281 50.9531 52.0312 48.75 54.75 48.75C57.4688 48.75 59.6719 50.9531 59.6719 53.6719C59.6719 56.3906 57.4688 58.5938 54.75 58.5938ZM54.75 51.5156C53.5781 51.5156 52.6406 52.4531 52.6406 53.625C52.6406 54.7969 53.5781 55.7344 54.75 55.7344C55.9219 55.7344 56.8594 54.7969 56.8594 53.625C56.8594 52.4531 55.9219 51.5156 54.75 51.5156Z" fill="#454B54"/>
<path d="M18.8906 55.0781H10.7813C9.98438 55.0781 9.375 54.4688 9.375 53.6719C9.375 52.875 9.98438 52.2656 10.7813 52.2656H18.8906C19.6875 52.2656 20.2969 52.875 20.2969 53.6719C20.2969 54.4688 19.6875 55.0781 18.8906 55.0781Z" fill="#454B54"/>
<path d="M54.75 58.5938H13.5937C12.7969 58.5938 12.1875 57.9844 12.1875 57.1875C12.1875 56.3906 12.7969 55.7812 13.5937 55.7812H54.75C55.5469 55.7812 56.1562 56.3906 56.1562 57.1875C56.1562 57.9844 55.5469 58.5938 54.75 58.5938Z" fill="#454B54"/>
<path d="M6.5625 58.5937C6.1875 58.5937 5.8125 58.4531 5.57812 58.1719C5.29687 57.8906 5.15625 57.5625 5.15625 57.1875C5.15625 56.8125 5.29687 56.4375 5.57812 56.2031C6.09375 55.6875 7.03125 55.6875 7.54688 56.2031C7.82813 56.4844 7.96875 56.8125 7.96875 57.1875C7.96875 57.5625 7.82813 57.9375 7.54688 58.1719C7.3125 58.4531 6.9375 58.5937 6.5625 58.5937Z" fill="#454B54"/>
</svg>
