<svg width="128" height="129" viewBox="0 0 128 129" fill="none" xmlns="http://www.w3.org/2000/svg">
<g clip-path="url(#clip0)">
<path d="M66.565 118.451C88.7033 112.522 101.783 89.5644 95.7803 67.1725C89.7771 44.7806 66.9641 31.4341 44.8258 37.3623C22.6876 43.2904 9.60745 66.2484 15.6106 88.6403C21.6137 111.032 44.4268 124.379 66.565 118.451Z" fill="white"/>
<path d="M95.9001 67.6179C89.9001 45.231 67.1001 31.8388 44.9001 37.8353C42.8001 38.435 40.7 39.1345 38.8 40.034C55.5 38.335 71.6 46.93 79.7 61.7214C79.6 61.7214 79.5 61.7214 79.4001 61.8213C76.2001 62.7208 74.3 65.9189 75.2 69.117C76.1 72.3152 79.3 74.2141 82.5 73.3146C83 73.2146 83.5 73.0148 83.9001 72.7149C88.3001 92.4034 78.2001 112.092 60.4001 120.087C62.5001 119.887 64.7001 119.488 66.8001 118.888C88.8001 112.991 101.9 90.0048 95.9001 67.6179Z" fill="#C7D7E2"/>
<path d="M50 95.3018C54.1421 95.3018 57.5 91.9459 57.5 87.8062C57.5 83.6665 54.1421 80.3105 50 80.3105C45.8579 80.3105 42.5 83.6665 42.5 87.8062C42.5 91.9459 45.8579 95.3018 50 95.3018Z" fill="#C7D7E2"/>
<path d="M46.7 59.9225C48.9091 59.9225 50.7 58.1326 50.7 55.9248C50.7 53.7169 48.9091 51.9271 46.7 51.9271C44.4908 51.9271 42.7 53.7169 42.7 55.9248C42.7 58.1326 44.4908 59.9225 46.7 59.9225Z" fill="#C7D7E2"/>
<path d="M56.4001 122.986C56.0001 122.986 55.6001 122.986 55.2001 122.986C53.5001 122.986 52.2001 121.586 52.3001 119.887C52.3001 118.288 53.7001 116.989 55.3001 116.989H55.4001C69.6001 117.389 82.8001 109.993 89.8001 97.8002C94.8001 89.2052 96.2001 79.2111 93.8001 69.5167C93.4001 67.9177 94.4001 66.3186 96.0001 65.9188C97.6001 65.5191 99.2001 66.5185 99.6001 68.1176C102.3 79.311 100.7 90.9042 95.0001 100.798C87.1001 114.59 72.4001 122.986 56.4001 122.986Z" fill="#454B54"/>
<path d="M31.6 114.89C31 114.89 30.4 114.69 29.8 114.291C11.1 100.799 5.60001 75.7132 17.1 55.8248C23.1 45.5308 32.7 38.1351 44.3 35.1369C55.9 32.1386 68 33.7377 78.4 39.7342C82 41.833 85.4 44.4314 88.3 47.4297C89.5 48.629 89.4 50.5279 88.2 51.6272C87 52.8265 85.1 52.7266 84 51.5273C81.5 48.9288 78.6 46.7301 75.4 44.8312C66.4 39.6342 55.9 38.2351 45.9 40.8335C35.9 43.432 27.5 49.8283 22.4 58.7231C12.5 75.9131 17.3 97.7003 33.5 109.394C34.8 110.393 35.1 112.192 34.2 113.591C33.5 114.491 32.6 114.89 31.6 114.89Z" fill="#454B54"/>
<path d="M30.1 123.485C26.4 123.485 23.2 122.486 20.7 120.387C15.9 116.389 14.5 109.393 16.5 99.999C16.8 98.3999 18.4 97.3005 20.1 97.7003C21.7 98.0001 22.8 99.5992 22.4 101.298C20.9 108.194 21.7 113.391 24.6 115.89C31.5 121.686 51.7 112.891 70.7 90.6044C88 70.1164 93 44.9311 93.1 44.6313C93.4 43.0322 95 41.9329 96.6 42.2327C98.2 42.5325 99.3 44.1316 99 45.7307C98.8 46.83 93.6 72.7149 75.2 94.3023C59.6 112.692 42.2 123.485 30.1 123.485Z" fill="#54D679"/>
<path d="M76.1001 22.2443C75.3001 22.2443 74.5001 21.9445 74.0001 21.3448C73.4001 20.7452 73.1001 20.0456 73.1001 19.246C73.1001 18.4465 73.4001 17.647 74.0001 17.1473C75.1001 16.0479 77.1001 16.0479 78.2001 17.1473C78.8001 17.7469 79.1001 18.4465 79.1001 19.246C79.1001 20.0456 78.8001 20.8451 78.2001 21.3448C77.6001 21.8445 76.9001 22.2443 76.1001 22.2443Z" fill="#54D679"/>
<path d="M116.6 55.2251C115.8 55.2251 115 54.9253 114.5 54.3257C113.9 53.726 113.6 53.0264 113.6 52.2269C113.6 51.4273 113.9 50.6278 114.5 50.1281C115.6 49.0287 117.6 49.0287 118.7 50.1281C119.3 50.7278 119.6 51.4273 119.6 52.2269C119.6 53.0264 119.3 53.8259 118.7 54.3257C118.2 54.9253 117.4 55.2251 116.6 55.2251Z" fill="#54D679"/>
<path d="M105.9 35.5366L103.1 33.7376C102.4 33.2379 102 32.4384 102.2 31.5389L103.5 23.9434C103.8 22.1444 103.5 20.3455 102.6 18.7464C102 17.747 100.7 17.5471 99.7999 18.2467C98.3999 19.446 97.4999 21.0451 97.0999 22.844L95.7999 30.4396C95.5999 31.339 94.9999 31.9387 94.0999 32.1386L90.9999 32.7382C90.0999 32.9381 89.4999 33.6377 89.2999 34.4372L88.8999 36.636L94.4999 37.6354L95.9999 37.9352L99.3999 38.5348L100.9 38.8347L106.5 39.8341L106.9 37.8353C107 36.8358 106.7 36.0363 105.9 35.5366Z" fill="#54D679"/>
</g>
<defs>
<clipPath id="clip0">
<rect width="128" height="127.925" fill="white" transform="translate(0 0.956787)"/>
</clipPath>
</defs>
</svg>
