<svg width="726" height="467" viewBox="0 0 726 467" fill="none" xmlns="http://www.w3.org/2000/svg">
<g clip-path="url(#clip0)">
<path d="M507.272 163.144V115.455H421.564V163.144H412.885V320.302H515.951V163.144H507.272Z" fill="url(#paint0_linear)"/>
<path d="M563.47 151.222L546.546 97.0298H543.725L541.066 61.3073L538.083 97.0298H535.263L518.338 151.222H512.697V351.734H569.112V151.222H563.47Z" fill="url(#paint1_linear)"/>
<path d="M249.064 87.2752V60.179H170.951V356.069H287.036V87.2752H249.064Z" fill="url(#paint2_linear)"/>
<path d="M95.0078 181.57V215.169H70.0549V362.572H183.97V120.874L95.0078 181.57Z" fill="url(#paint3_linear)"/>
<path d="M430.244 335.476V184.821H412.885V134.964H400.951V102.449H384.678L373.829 15.7412L361.895 102.449H346.706V134.964H334.772V184.821H317.414V336.56H302.225V360.405H445.432V335.476H430.244Z" fill="url(#paint4_linear)"/>
<path d="M325.008 126.294H239.3V343.063H325.008V126.294Z" fill="url(#paint5_linear)"/>
<path d="M145.998 192.408H136.234V385.333H145.998V192.408Z" fill="url(#paint6_linear)"/>
<path d="M124.3 192.408H114.536V385.333H124.3V192.408Z" fill="url(#paint7_linear)"/>
<path d="M167.696 192.408H157.932V385.333H167.696V192.408Z" fill="url(#paint8_linear)"/>
<path opacity="0.2" d="M649.395 422.666C649.395 434.658 639.667 444.38 627.668 444.38H91.7813C79.7822 444.38 70.0549 434.659 70.0549 422.666H649.395Z" fill="url(#paint9_linear)"/>
<path d="M652.649 180.463V162.038L614.802 146.91L577.791 162.038V180.463H562.602V396.149H667.838V180.463H652.649Z" fill="url(#paint10_linear)"/>
<path d="M658.074 194.599H573.451V200.018H658.074V194.599Z" fill="url(#paint11_linear)"/>
<path d="M658.074 205.437H573.451V210.856H658.074V205.437Z" fill="url(#paint12_linear)"/>
<path d="M658.074 216.276H573.451V221.695H658.074V216.276Z" fill="url(#paint13_linear)"/>
<path d="M658.074 227.114H573.451V232.533H658.074V227.114Z" fill="url(#paint14_linear)"/>
<path d="M658.074 237.952H573.451V243.371H658.074V237.952Z" fill="url(#paint15_linear)"/>
<path d="M658.074 248.79H573.451V254.209H658.074V248.79Z" fill="url(#paint16_linear)"/>
<path d="M658.074 259.629H573.451V265.048H658.074V259.629Z" fill="url(#paint17_linear)"/>
<path d="M658.074 270.467H573.451V275.886H658.074V270.467Z" fill="url(#paint18_linear)"/>
<path d="M658.074 281.305H573.451V286.725H658.074V281.305Z" fill="url(#paint19_linear)"/>
<path d="M658.074 292.144H573.451V297.563H658.074V292.144Z" fill="url(#paint20_linear)"/>
<path d="M658.074 302.982H573.451V308.402H658.074V302.982Z" fill="url(#paint21_linear)"/>
<path d="M421.565 395.607H297.885V421.619H421.565V395.607Z" fill="#E0E0E0"/>
<path d="M359.725 403.194C393.878 403.194 421.565 399.797 421.565 395.607C421.565 391.417 393.878 388.02 359.725 388.02C325.572 388.02 297.885 391.417 297.885 395.607C297.885 399.797 325.572 403.194 359.725 403.194Z" fill="#B0BEC5"/>
<path d="M359.85 429.206C394.003 429.206 421.689 425.809 421.689 421.619C421.689 417.429 394.003 414.032 359.85 414.032C325.697 414.032 298.01 417.429 298.01 421.619C298.01 425.809 325.697 429.206 359.85 429.206Z" fill="#E0E0E0"/>
<path d="M488.255 167.999H436.753V182.089H488.255V167.999Z" fill="#BDBDBD"/>
<path d="M430.244 161.496H407.461V167.999H430.244V161.496Z" fill="#BDBDBD"/>
<path d="M430.244 182.089H407.461V188.592H430.244V182.089Z" fill="#BDBDBD"/>
<path d="M494.203 170.515L484.177 180.531L541.23 237.528L551.255 227.512L494.203 170.515Z" fill="#BDBDBD"/>
<path d="M491.013 188.044C497.604 188.044 502.947 182.706 502.947 176.121C502.947 169.537 497.604 164.199 491.013 164.199C484.422 164.199 479.079 169.537 479.079 176.121C479.079 182.706 484.422 188.044 491.013 188.044Z" fill="#78909C"/>
<path d="M490.998 182.089C494.594 182.089 497.508 179.178 497.508 175.586C497.508 171.994 494.594 169.083 490.998 169.083C487.403 169.083 484.489 171.994 484.489 175.586C484.489 179.178 487.403 182.089 490.998 182.089Z" fill="#E0E0E0"/>
<path d="M444.347 166.419H440.008V184.8H444.347V166.419Z" fill="#78909C"/>
<path d="M451.942 166.373H447.602V184.799H451.942V166.373Z" fill="#78909C"/>
<path d="M436.753 158.786H430.244V192.386H436.753V158.786Z" fill="#78909C"/>
<path d="M490.998 178.837C492.796 178.837 494.253 177.382 494.253 175.586C494.253 173.79 492.796 172.334 490.998 172.334C489.201 172.334 487.744 173.79 487.744 175.586C487.744 177.382 489.201 178.837 490.998 178.837Z" fill="#90A4AE"/>
<path d="M490.598 174.502C490.598 174.502 470.929 254.761 546.329 233.07" stroke="#90A4AE" stroke-width="3" stroke-miterlimit="10"/>
<path d="M557.178 235.242H534.395V407.529H557.178V235.242Z" fill="#BDBDBD"/>
<path d="M546.329 250.913C555.915 250.913 563.687 243.149 563.687 233.572C563.687 223.994 555.915 216.23 546.329 216.23C536.742 216.23 528.97 223.994 528.97 233.572C528.97 243.149 536.742 250.913 546.329 250.913Z" fill="#78909C"/>
<path d="M546.329 242.785C551.721 242.785 556.093 238.417 556.093 233.03C556.093 227.643 551.721 223.275 546.329 223.275C540.936 223.275 536.564 227.643 536.564 233.03C536.564 238.417 540.936 242.785 546.329 242.785Z" fill="#E0E0E0"/>
<path d="M546.329 237.359C548.725 237.359 550.668 235.431 550.668 233.053C550.668 230.674 548.725 228.747 546.329 228.747C543.932 228.747 541.989 230.674 541.989 233.053C541.989 235.431 543.932 237.359 546.329 237.359Z" fill="#90A4AE"/>
<path d="M560.432 281.261H531.14V289.976H560.432V281.261Z" fill="#78909C"/>
<path d="M560.432 319.196H531.14V327.911H560.432V319.196Z" fill="#78909C"/>
<path d="M563.687 429.748H527.885V423.245L531.14 419.452V405.904H560.433V419.271L563.687 423.245V429.748Z" fill="#78909C"/>
<path d="M420.635 216.23C420.635 221.216 419.395 228.696 419.395 228.696H421.007C421.007 228.696 428.074 224.955 428.074 221.839V221.216C428.074 219.72 427.33 218.474 426.214 217.601C425.347 216.978 425.347 215.606 426.214 214.859C427.331 213.987 428.074 212.616 428.074 211.245V210.621C428.074 207.505 421.007 203.765 421.007 203.765H419.395C419.395 203.766 420.635 211.245 420.635 216.23ZM423.115 219.097C424.974 219.097 425.595 219.72 425.595 221.341V221.714C425.595 222.961 424.727 224.083 423.611 224.582C422.743 224.832 421.875 224.208 421.875 223.336L423.115 219.097ZM423.611 208.128C424.851 208.502 425.595 209.624 425.595 210.996V211.246C425.595 212.866 424.975 213.489 423.115 213.489L421.875 209.376C421.875 208.377 422.743 207.755 423.611 208.128Z" fill="#DD2C00"/>
<path d="M420.521 204.85C420.521 204.85 416.867 199.993 418.954 193.518C420.011 190.242 421.564 186.777 421.564 184.345C421.564 180.028 419.395 180.622 419.395 182.089" stroke="#DD2C00" stroke-width="2" stroke-miterlimit="10"/>
<path d="M421.006 226.527C415.055 237.332 428.481 242.074 421.868 255.791" stroke="#DD2C00" stroke-width="2" stroke-miterlimit="10" stroke-linecap="round"/>
<path d="M313.199 201.643C313.199 201.643 296.925 205.978 275.227 233.074C253.529 260.17 202.685 271.575 176.647 265.072C150.609 258.569 120.085 272.093 113.576 293.77C113.576 293.77 142.194 291.286 136.641 317.774C130.607 346.563 146.123 363.136 155.887 365.304C165.651 367.471 190.604 367.471 201.453 354.465C212.302 341.459 239.425 337.124 244.85 351.214L267.576 338.367C267.575 338.367 319.708 199.475 313.199 201.643Z" fill="#C62828"/>
<path d="M227.626 203.023L170.573 260.02L180.599 270.036L237.652 213.039L227.626 203.023Z" fill="#BDBDBD"/>
<path d="M319.443 179.898L296.905 183.256L297.865 189.688L320.403 186.331L319.443 179.898Z" fill="#BDBDBD"/>
<path d="M291.427 190.649L229.873 199.819L231.961 213.809L293.515 204.639L291.427 190.649Z" fill="#BDBDBD"/>
<path d="M322.484 200.269L299.946 203.627L300.906 210.059L323.444 206.701L322.484 200.269Z" fill="#BDBDBD"/>
<path d="M187.225 278.551H164.442V417.284H187.225V278.551Z" fill="#BDBDBD"/>
<path d="M193.734 429.748H157.932V423.245L161.187 419.452V405.904H190.479V419.271L193.734 423.245V429.748Z" fill="#78909C"/>
<path d="M190.479 301.899H161.187V310.525H190.479V301.899Z" fill="#78909C"/>
<path d="M190.479 318.112H161.187V326.783H190.479V318.112Z" fill="#78909C"/>
<path d="M230.632 219.481C237.223 219.481 242.566 214.143 242.566 207.558C242.566 200.974 237.223 195.636 230.632 195.636C224.041 195.636 218.698 200.974 218.698 207.558C218.698 214.143 224.041 219.481 230.632 219.481Z" fill="#78909C"/>
<path d="M230.621 214.604C234.216 214.604 237.13 211.693 237.13 208.101C237.13 204.51 234.216 201.598 230.621 201.598C227.026 201.598 224.112 204.51 224.112 208.101C224.112 211.693 227.026 214.604 230.621 214.604Z" fill="#E0E0E0"/>
<path d="M230.621 211.353C232.418 211.353 233.876 209.897 233.876 208.101C233.876 206.306 232.418 204.85 230.621 204.85C228.823 204.85 227.366 206.306 227.366 208.101C227.366 209.897 228.823 211.353 230.621 211.353Z" fill="#90A4AE"/>
<path d="M230.51 207.018C230.51 207.018 251.904 319.508 175.958 265.426" stroke="#90A4AE" stroke-width="3" stroke-miterlimit="10"/>
<path d="M175.291 283.429C184.878 283.429 192.649 275.665 192.649 266.087C192.649 256.51 184.878 248.746 175.291 248.746C165.704 248.746 157.932 256.51 157.932 266.087C157.932 275.665 165.704 283.429 175.291 283.429Z" fill="#78909C"/>
<path d="M175.291 276.384C180.683 276.384 185.055 272.016 185.055 266.629C185.055 261.242 180.683 256.875 175.291 256.875C169.898 256.875 165.527 261.242 165.527 266.629C165.527 272.016 169.898 276.384 175.291 276.384Z" fill="#E0E0E0"/>
<path d="M175.291 270.958C177.688 270.958 179.63 269.03 179.63 266.652C179.63 264.274 177.688 262.346 175.291 262.346C172.894 262.346 170.951 264.274 170.951 266.652C170.951 269.03 172.894 270.958 175.291 270.958Z" fill="#90A4AE"/>
<path d="M287.887 188.441L283.594 189.08L286.315 207.308L290.607 206.668L287.887 188.441Z" fill="#78909C"/>
<path d="M280.373 189.56L276.081 190.2L278.802 208.428L283.094 207.788L280.373 189.56Z" fill="#78909C"/>
<path d="M296.508 180.06L290.069 181.019L294.871 213.183L301.309 212.224L296.508 180.06Z" fill="#78909C"/>
<path d="M312.114 201.643C312.114 201.643 278.484 317.221 244.725 351.169C234.418 361.533 241.628 368.802 243.765 370.723C254.489 379.349 270.887 378.31 270.887 378.31C270.887 378.31 321.878 328.453 324.048 224.404C324.164 218.818 320.883 200.559 314.284 200.559C312.114 200.559 312.114 201.643 312.114 201.643Z" fill="#B71C1C"/>
<path d="M338.027 266.629C338.027 266.629 337.295 297.463 340.321 336.002C340.646 340.135 340.986 343.616 341.406 347.918H355.51C359.85 306.754 359.85 286.172 359.85 286.172V266.674L338.027 266.629Z" fill="#1565C0"/>
<path d="M381.423 266.629C381.423 266.629 382.441 297.02 379.364 335.844C379.05 339.803 378.694 343.85 378.293 347.962H364.189C359.849 306.776 359.849 286.183 359.849 286.183V266.674L381.423 266.629Z" fill="#1565C0"/>
<path d="M381.548 226.54L370.699 201.633C365.339 200.629 359.85 189.721 359.85 189.721C359.85 189.721 354.36 200.629 349 201.633L338.151 226.54L341.406 251.447L338.151 266.607L356.632 285.798C358.354 287.698 361.345 287.698 363.067 285.798L381.548 266.607L378.168 251.455L381.548 226.54Z" fill="#64B5F6"/>
<path d="M367.444 393.308C367.444 393.308 367.444 396.691 370.598 396.691C377.694 396.691 390.203 396.691 390.203 396.691C390.203 396.691 389.905 391.202 383.598 390.772C375.037 390.188 376.052 387.38 376.122 384.769C376.393 374.732 378.292 347.918 378.292 347.918H364.188L367.444 393.308Z" fill="#B71C1C"/>
<path d="M352.255 393.308C352.255 393.308 352.255 396.691 349.101 396.691C342.005 396.691 329.496 396.691 329.496 396.691C329.496 396.691 329.794 391.202 336.101 390.772C344.662 390.188 343.648 387.38 343.577 384.769C343.306 374.732 341.407 347.918 341.407 347.918H355.511L352.255 393.308Z" fill="#B71C1C"/>
<path d="M370.699 201.643C363.06 196.224 366.182 184.301 366.182 184.301H353.143C353.143 184.301 356.515 196.224 348.876 201.643C349.564 201.811 356.515 203.81 359.788 205.978C363.06 203.81 370.261 201.812 370.699 201.643Z" fill="#1565C0"/>
<path d="M384.819 255.835H378.869C377.585 255.835 376.615 256.999 376.848 258.262L378.073 264.885C378.433 266.834 380.596 267.859 382.335 266.906L390.228 261.254L386.423 256.549C386.013 256.095 385.431 255.835 384.819 255.835Z" fill="#FFCCBC"/>
<path d="M334.881 255.835H340.83C342.115 255.835 343.085 256.999 342.851 258.262L341.626 264.885C341.266 266.834 339.103 267.859 337.364 266.906L329.471 261.254L333.276 256.549C333.686 256.095 334.269 255.835 334.881 255.835Z" fill="#FFCCBC"/>
<path d="M371.659 169.987C371.659 175.799 368.404 191.845 359.725 191.845C351.046 191.845 347.791 175.798 347.791 169.987C347.791 164.175 353.134 159.463 359.725 159.463C366.316 159.463 371.659 164.174 371.659 169.987Z" fill="#FFCCBC"/>
<path d="M370.699 201.643C381.943 204.451 391.915 209.872 399.01 219.029L407.083 230.531C411.018 235.608 410.302 242.871 405.451 247.085L390.226 261.254L384.801 255.835L395.084 241.481C395.946 240.488 395.701 238.959 394.573 238.282L381.546 226.571L370.699 201.643Z" fill="#1565C0"/>
<path d="M349.001 201.643C337.757 204.451 327.784 209.872 320.689 219.029L312.362 230.524C308.427 235.602 309.143 242.865 313.994 247.079L329.473 261.254L334.898 255.835L324.361 241.474C323.5 240.481 323.744 238.952 324.872 238.276L338.154 226.571L349.001 201.643Z" fill="#1565C0"/>
<path d="M373.829 167.163C373.829 161.922 371.314 157.125 365.408 155.889L363.796 153.39H359.768C355.122 153.39 349.001 155.378 346.615 161.881C343.813 169.512 348.401 177.448 348.401 177.448L348.138 173.74C348.325 172.017 349.491 170.555 351.132 169.99L365.364 165.083L369.344 168.611C370.41 169.558 371.077 170.872 371.21 172.292L371.049 177.448C371.049 177.446 373.829 172.537 373.829 167.163Z" fill="#424242"/>
<path d="M369.489 179.921C371.286 179.921 372.744 178.223 372.744 176.128C372.744 174.033 371.286 172.334 369.489 172.334C367.691 172.334 366.234 174.033 366.234 176.128C366.234 178.223 367.691 179.921 369.489 179.921Z" fill="#FFCCBC"/>
<path d="M349.961 179.921C351.758 179.921 353.215 178.223 353.215 176.128C353.215 174.033 351.758 172.334 349.961 172.334C348.163 172.334 346.706 174.033 346.706 176.128C346.706 178.223 348.163 179.921 349.961 179.921Z" fill="#FFCCBC"/>
</g>
<defs>
<linearGradient id="paint0_linear" x1="464.418" y1="320.302" x2="464.418" y2="115.455" gradientUnits="userSpaceOnUse">
<stop stop-color="white" stop-opacity="0"/>
<stop offset="0.3493" stop-color="#FAFAFA" stop-opacity="0.3493"/>
<stop offset="0.7742" stop-color="#EBEBEB" stop-opacity="0.7742"/>
<stop offset="1" stop-color="#E0E0E0"/>
</linearGradient>
<linearGradient id="paint1_linear" x1="540.904" y1="351.734" x2="540.904" y2="61.3073" gradientUnits="userSpaceOnUse">
<stop stop-color="white" stop-opacity="0"/>
<stop offset="0.3493" stop-color="#FAFAFA" stop-opacity="0.3493"/>
<stop offset="0.7742" stop-color="#EBEBEB" stop-opacity="0.7742"/>
<stop offset="1" stop-color="#E0E0E0"/>
</linearGradient>
<linearGradient id="paint2_linear" x1="228.994" y1="356.069" x2="228.994" y2="60.179" gradientUnits="userSpaceOnUse">
<stop stop-color="white" stop-opacity="0"/>
<stop offset="1" stop-color="#EEEEEE"/>
</linearGradient>
<linearGradient id="paint3_linear" x1="127.012" y1="362.572" x2="127.012" y2="120.874" gradientUnits="userSpaceOnUse">
<stop stop-color="white" stop-opacity="0"/>
<stop offset="0.3493" stop-color="#FAFAFA" stop-opacity="0.3493"/>
<stop offset="0.7742" stop-color="#EBEBEB" stop-opacity="0.7742"/>
<stop offset="1" stop-color="#E0E0E0"/>
</linearGradient>
<linearGradient id="paint4_linear" x1="373.829" y1="360.405" x2="373.829" y2="15.7412" gradientUnits="userSpaceOnUse">
<stop stop-color="white" stop-opacity="0"/>
<stop offset="1" stop-color="#EEEEEE"/>
</linearGradient>
<linearGradient id="paint5_linear" x1="282.154" y1="343.063" x2="282.154" y2="126.294" gradientUnits="userSpaceOnUse">
<stop stop-color="white" stop-opacity="0"/>
<stop offset="1" stop-color="#E0E0E0"/>
</linearGradient>
<linearGradient id="paint6_linear" x1="141.116" y1="385.333" x2="141.116" y2="192.408" gradientUnits="userSpaceOnUse">
<stop stop-color="white" stop-opacity="0"/>
<stop offset="1" stop-color="#FAFAFA"/>
</linearGradient>
<linearGradient id="paint7_linear" x1="119.418" y1="385.333" x2="119.418" y2="192.408" gradientUnits="userSpaceOnUse">
<stop stop-color="white" stop-opacity="0"/>
<stop offset="1" stop-color="#FAFAFA"/>
</linearGradient>
<linearGradient id="paint8_linear" x1="162.814" y1="385.333" x2="162.814" y2="192.408" gradientUnits="userSpaceOnUse">
<stop stop-color="white" stop-opacity="0"/>
<stop offset="1" stop-color="#FAFAFA"/>
</linearGradient>
<linearGradient id="paint9_linear" x1="359.725" y1="444.38" x2="359.725" y2="422.666" gradientUnits="userSpaceOnUse">
<stop stop-color="white"/>
<stop offset="1" stop-color="#E0E0E0"/>
</linearGradient>
<linearGradient id="paint10_linear" x1="615.22" y1="396.149" x2="615.22" y2="146.91" gradientUnits="userSpaceOnUse">
<stop stop-color="white" stop-opacity="0"/>
<stop offset="1" stop-color="#EEEEEE"/>
</linearGradient>
<linearGradient id="paint11_linear" x1="615.763" y1="308.041" x2="615.763" y2="196.044" gradientUnits="userSpaceOnUse">
<stop stop-color="white" stop-opacity="0"/>
<stop offset="1" stop-color="white"/>
</linearGradient>
<linearGradient id="paint12_linear" x1="615.763" y1="308.041" x2="615.763" y2="196.044" gradientUnits="userSpaceOnUse">
<stop stop-color="white" stop-opacity="0"/>
<stop offset="1" stop-color="white"/>
</linearGradient>
<linearGradient id="paint13_linear" x1="615.763" y1="308.041" x2="615.763" y2="196.044" gradientUnits="userSpaceOnUse">
<stop stop-color="white" stop-opacity="0"/>
<stop offset="1" stop-color="white"/>
</linearGradient>
<linearGradient id="paint14_linear" x1="615.763" y1="308.041" x2="615.763" y2="196.043" gradientUnits="userSpaceOnUse">
<stop stop-color="white" stop-opacity="0"/>
<stop offset="1" stop-color="white"/>
</linearGradient>
<linearGradient id="paint15_linear" x1="615.763" y1="308.041" x2="615.763" y2="196.043" gradientUnits="userSpaceOnUse">
<stop stop-color="white" stop-opacity="0"/>
<stop offset="1" stop-color="white"/>
</linearGradient>
<linearGradient id="paint16_linear" x1="615.763" y1="308.041" x2="615.763" y2="196.043" gradientUnits="userSpaceOnUse">
<stop stop-color="white" stop-opacity="0"/>
<stop offset="1" stop-color="white"/>
</linearGradient>
<linearGradient id="paint17_linear" x1="615.763" y1="308.041" x2="615.763" y2="196.043" gradientUnits="userSpaceOnUse">
<stop stop-color="white" stop-opacity="0"/>
<stop offset="1" stop-color="white"/>
</linearGradient>
<linearGradient id="paint18_linear" x1="615.763" y1="308.041" x2="615.763" y2="196.044" gradientUnits="userSpaceOnUse">
<stop stop-color="white" stop-opacity="0"/>
<stop offset="1" stop-color="white"/>
</linearGradient>
<linearGradient id="paint19_linear" x1="615.763" y1="308.041" x2="615.763" y2="196.044" gradientUnits="userSpaceOnUse">
<stop stop-color="white" stop-opacity="0"/>
<stop offset="1" stop-color="white"/>
</linearGradient>
<linearGradient id="paint20_linear" x1="615.763" y1="308.041" x2="615.763" y2="196.043" gradientUnits="userSpaceOnUse">
<stop stop-color="white" stop-opacity="0"/>
<stop offset="1" stop-color="white"/>
</linearGradient>
<linearGradient id="paint21_linear" x1="615.763" y1="308.041" x2="615.763" y2="196.043" gradientUnits="userSpaceOnUse">
<stop stop-color="white" stop-opacity="0"/>
<stop offset="1" stop-color="white"/>
</linearGradient>
<clipPath id="clip0">
<rect width="726" height="467" fill="white"/>
</clipPath>
</defs>
</svg>
