<svg width="747" height="495" viewBox="0 0 747 495" fill="none" xmlns="http://www.w3.org/2000/svg">
<g clip-path="url(#clip0)">
<path d="M747 -34H0V526H747V-34Z" fill="white"/>
<path d="M747 64H0V526H747V64Z" fill="url(#paint0_radial)"/>
<path d="M747 366.4H0V526H747V366.4Z" fill="white"/>
<path opacity="0.2" d="M529.436 391.6C529.436 401.394 521.064 409.333 510.736 409.333H281.084C270.756 409.333 262.384 401.394 262.384 391.6H529.436Z" fill="url(#paint1_linear)"/>
<path opacity="0.2" d="M227.86 378.533C227.86 388.327 219.488 396.267 209.16 396.267H123.255C112.927 396.267 104.555 388.327 104.555 378.533H227.86Z" fill="url(#paint2_linear)"/>
<path d="M173.678 376.667H197.955C198.491 376.667 198.926 376.221 198.892 375.687C198.819 374.581 197.955 372 194.259 372C194.259 372 192.805 372.187 190.935 372.459C187.684 372.933 185.15 370.4 184.883 370.133L173.678 376.667Z" fill="#6D4C41"/>
<path d="M207.295 377.432C207.221 378.011 206.959 378.533 206.371 378.533H202.876C202.213 378.533 201.597 378.188 201.26 377.619L200.943 377.077C200.822 376.816 200.756 376.545 200.756 376.256V373.867C199.822 370.133 197.955 363.6 197.955 363.6C196.144 358.159 196.116 353.828 196.116 353.576C193.987 358.411 191.82 360.585 191.82 360.585C191.587 370.852 182.744 373.596 183.015 373.867C183.286 374.137 186.75 374.595 188.618 374.324C190.485 374.063 191.932 373.867 191.932 373.867C196.069 373.867 197.021 376.349 197.021 377.488C197.021 378.02 196.629 378.533 196.087 378.533H161.539C157.906 378.533 154.909 377.749 152.005 376.993C149.521 376.34 147.187 375.733 144.731 375.733C140.193 375.733 139.194 376.937 139.073 377.115C138.867 377.945 138.12 378.533 137.261 378.533C137.187 378.533 137.103 378.524 137.028 378.515C136.001 378.384 135.282 377.451 135.412 376.433C135.506 375.687 136.402 372 144.731 372C147.663 372 150.352 372.7 152.948 373.381C155.619 374.081 158.383 374.8 161.539 374.8C161.604 374.8 161.669 374.8 161.726 374.809H161.819C163.64 374.809 164.34 373.213 164.34 371.571C164.34 361.304 166.73 355.471 170.101 349.833C173.678 343.841 182.1 337.663 182.1 337.663C183.967 334.191 187.152 334.004 187.684 331.867C188.216 329.729 186.162 327.153 183.949 323.467C181.148 318.8 182.128 312.892 182.128 312.892C182.352 313.191 182.585 313.471 182.828 313.732C188.646 320.079 193.899 321.905 195.27 323.029C195.495 323.213 206.654 331.549 206.738 336.533C206.822 341.359 205.649 345.008 204.538 346.716C204.51 346.772 204.491 346.8 204.491 346.8C203.782 347.873 203.557 348.732 203.557 350.02V354.267C203.557 358 202.782 361.192 203.557 363.6C204.566 366.755 204.491 374.8 204.491 374.8C206.359 374.8 207.389 376.667 207.295 377.432Z" fill="#8D6E63"/>
<path d="M198.631 319.344C199.024 318.283 202.107 316.059 204.508 314.992C206.909 313.925 207.176 312.592 207.176 312.592L207.709 308.859C209.309 300.859 212.778 294.459 212.778 294.459C212.778 293.392 212.778 291.792 213.579 291.258C214.379 290.724 214.379 289.925 215.713 288.592C216.13 288.175 216.521 288.019 216.861 288.001C217.61 287.962 218.833 288.793 219.883 289.764C221.046 290.838 220.365 295.466 216.246 298.459C215.168 299.243 215.029 300.399 214.762 305.733C214.495 311.067 213.044 316.326 213.044 316.326C210.377 320.859 208.242 328.059 207.175 330.192C207.175 330.192 207.292 333.733 207.292 336.533C207.292 336.533 201.369 323.496 198.631 319.344Z" fill="#6D4C41"/>
<path d="M189.551 319.733C189.551 319.733 190.28 320.461 191.811 321.833C193.753 323.569 196.993 326.351 201.69 330C209.646 336.179 205.052 345.708 204.538 346.716C205.649 345.008 207.377 341.359 207.293 336.533C207.208 331.549 200.803 323.345 199.626 319.089C199.293 317.867 199.218 317.941 199.293 317.867L199.032 317.895L189.551 319.733Z" fill="#A1887F"/>
<path d="M191.811 321.833C192.922 321.973 194.043 321.917 195.154 321.6C196.141 321.32 198.268 319.956 199.939 318.217C200.781 317.341 200.76 314.654 200.76 314.525C200.76 313.204 200.449 312.75 200.449 312.75C200.72 311.686 200.103 310.988 200.103 310.988C198.235 310.988 196.849 310.656 196.849 310.656C196.849 310.656 196.637 310.329 195.834 309.797C195.041 309.256 189.568 309.566 189.568 309.566C190.1 307.428 188.618 303.867 188.618 303.867C188.618 303.867 188.216 306.265 187.684 307.6C187.152 308.935 185.816 310.4 185.816 310.4C184.752 311.735 183.949 311.333 183.015 313.2C182.931 313.368 182.866 313.545 182.828 313.732C182.259 316.541 186.759 321.236 191.811 321.833Z" fill="#8D6E63"/>
<path d="M200.449 312.751C200.72 311.686 200.103 310.988 200.103 310.988C199.356 311.178 198.977 311.975 198.977 311.975C200.041 312.151 200.449 312.751 200.449 312.751Z" fill="#795548"/>
<path d="M182.469 309.467C182.469 309.467 184.425 309.718 185.823 311.477C186.379 312.177 186.935 312.559 187.403 312.765C188.095 313.069 188.486 313.803 188.366 314.549L187.896 317.479C187.777 318.215 186.968 318.618 186.315 318.259C185.587 317.858 184.627 317.171 183.586 316.001C181.35 313.488 182.189 310.975 182.469 309.467Z" fill="#795548"/>
<path d="M193.67 313.471C193.947 312.734 194.081 311.756 194.746 311.719C195.411 311.681 196.016 312.022 196.053 312.688C196.062 312.85 195.989 313.149 195.989 313.149C195.708 313.626 195.037 313.392 193.67 313.471Z" fill="#795548"/>
<path d="M389.795 127.249C389.795 127.249 386.572 126.219 386.572 121.089C386.572 118.071 387.002 110.43 388.16 107.042C388.63 105.666 390.579 105.674 391.047 107.05L396.706 126.279L389.795 127.249Z" fill="#FFCCBC"/>
<path d="M492.181 346.775L498.652 349.397C498.652 349.397 502.532 350.968 501.006 354.731C498.449 361.035 494.486 370.81 493.326 373.67C493.126 374.164 492.56 374.384 492.073 374.164C490.594 373.497 487.97 371.563 489.091 366.437C491.572 356.383 488.749 355.239 488.749 355.239L492.181 346.775Z" fill="#424242"/>
<path d="M430.297 366.364L431.991 373.134C431.991 373.134 433.007 377.194 429.067 378.179C422.464 379.829 412.226 382.387 409.232 383.136C408.714 383.265 408.203 382.938 408.094 382.415C407.761 380.827 407.779 377.569 412.582 375.454C422.171 371.533 421.432 368.58 421.432 368.58L430.297 366.364Z" fill="#424242"/>
<path d="M481.594 245.067C481.594 245.067 486.041 246.156 489.377 249.423C491.6 251.6 489.184 258.133 484.929 258.133C479.37 258.133 477.146 249.423 477.146 249.423L481.594 245.067Z" fill="#FFCCBC"/>
<path d="M416.452 162.933C416.452 162.933 433.26 162.888 433.26 175.067C433.26 192.319 415.786 196.506 415.786 196.506L410.85 162.933H416.452Z" fill="#FFCCBC"/>
<path d="M422.055 168.533C419.376 172.593 420.343 174.677 420.502 177.831C420.605 179.858 417.816 181.283 417.816 181.283L419.847 183.313C419.847 183.313 422.055 178.839 425.323 178.835C428.369 178.831 428.162 182.874 426.699 184.336C425.237 185.797 419.847 189.402 419.847 189.402L422.893 194.476C427.564 191.94 434.194 185.408 434.194 175.067C434.194 162.888 416.801 162 416.801 162H410.85V163.906C410.85 163.906 415.699 167.63 422.055 168.533Z" fill="#444B54"/>
<path d="M412.74 264.503L416.802 317.278L419.848 369.281L432.032 367.251C432.032 367.251 438.124 329.456 437.109 319.307C436.813 316.352 433.047 308.143 433.047 308.143L412.74 264.503Z" fill="#595959"/>
<path d="M404.617 258.414C404.617 258.414 412.441 284.919 431.927 321.286C432.658 322.651 433.716 323.82 434.996 324.69L487.768 357.65L493.114 347.153C459.609 311.632 445.231 309.159 445.231 309.159C445.231 309.159 444.216 268.563 436.093 250.295C419.847 249.28 404.617 258.414 404.617 258.414Z" fill="#7F7F7F"/>
<path d="M477.721 251.31C477.721 251.31 455.296 236.55 454.368 236.086C452.337 235.072 435.077 226.953 435.077 226.953L437.929 207.733L458.43 223.908C458.43 223.908 463.507 224.923 482.798 245.221L477.721 251.31Z" fill="#7986CB"/>
<path d="M397.918 125.219C397.918 125.219 408.818 151.136 410.872 159.726C412.542 166.705 416.41 178.257 418.832 181.283C421.765 184.947 438.863 202.496 438.863 209.6C438.863 217.719 436.295 235.617 440.41 264.566C434.318 264.566 419.848 265.519 407.663 274.652C407.663 274.652 400.708 243.2 400.708 220.664C400.708 201.199 403.38 189.067 403.38 189.067C403.38 189.067 396.844 166.667 395.91 160.133C395.09 154.399 394.042 151.733 388.78 127.249L397.918 125.219Z" fill="#9FA8DA"/>
<path d="M357.47 126.417C356.983 123.438 355.793 114.651 354.125 111.483C353.447 110.197 351.522 110.507 351.274 111.939L348.914 133.048C346.421 145.2 342.141 163.66 342.141 163.66C342.141 163.66 344.465 169.749 351.28 166.892C354.308 155.471 354.799 133.087 354.799 133.087C354.799 133.087 358.346 131.764 357.47 126.417Z" fill="#FFE0B2"/>
<path d="M351.281 166.893C347.854 179.819 329.575 204.595 329.575 204.595L314.674 193.842L342.141 163.66C342.141 163.66 345.474 167.845 351.281 166.893Z" fill="#F59399"/>
<path d="M297.918 336.136L293.442 341.366C293.442 341.366 290.759 344.502 293.601 346.669C298.329 350.273 305.639 355.846 307.86 357.54C308.267 357.85 308.838 357.772 309.159 357.374C310.154 356.142 311.665 353.326 308.589 349.872C302.361 343.293 304.313 341.011 304.313 341.011L297.918 336.136Z" fill="#424242"/>
<path d="M270.123 294.591L263.291 292.837C263.291 292.837 259.195 291.785 258.492 295.199C257.326 300.861 255.524 309.608 254.968 312.306C254.864 312.809 255.186 313.288 255.686 313.404C257.261 313.768 260.549 313.936 262.336 309.759C265.559 301.509 268.54 302.274 268.54 302.274L270.123 294.591Z" fill="#424242"/>
<path d="M327.746 255.333L332.05 307.74C332.104 309.686 331.286 311.555 329.821 312.837L304.753 342.133L297.215 336.958C297.215 336.958 311.406 312.733 316.541 308.533C317.526 305.664 316.541 296.4 316.541 296.4L327.746 255.333Z" fill="#8D6E63"/>
<path d="M314.679 162.229C321.914 162.304 331.487 164.095 331.487 180.895C331.487 182.757 330.576 188.139 326.218 188.139C321.86 188.139 304.869 183.199 304.869 172.85C304.869 163.619 310.369 162.184 314.679 162.229Z" fill="#FFE0B2"/>
<path d="M323.077 192.8C323.077 190 323.71 188.165 326.368 186.267C329.657 183.918 314.17 183.086 314.17 183.086C314.17 183.086 313.533 186.48 312.662 191.044C310.853 200.524 326.812 203.067 327.388 201.558C325.04 199.25 323.077 196.553 323.077 192.8Z" fill="#FFE0B2"/>
<path d="M306.518 248.856C305.959 250.621 305.462 252.525 305.132 254.576C303.788 262.92 304.403 275.867 307.204 298.267C301.835 294.883 268.98 294.298 268.98 294.298L267.481 303.129L310.819 312.896C313.828 313.338 316.745 311.647 317.855 308.817C317.855 308.817 327.747 274 329.615 250.667C319.343 250.667 306.434 248.837 306.518 248.856Z" fill="#A1887F"/>
<path d="M327.388 201.558C322.144 201.2 317.475 196.533 312.662 191.044C310.853 200.524 308.036 215.057 307.825 214.76C307.825 214.76 310.229 223.347 310.783 227.994C311.724 235.883 306.434 248.837 306.518 248.855C317.475 252.533 324.945 255.333 329.277 254.241C329.407 253.025 329.521 251.831 329.614 250.667C330.585 238.536 331.948 225.409 331.948 225.409C332.237 221.686 335.216 215.2 335.216 211.467C335.216 207.561 330.877 204.989 327.388 201.558Z" fill="#F59399"/>
<path d="M299.773 234.956C299.773 234.956 305.87 246.428 312.725 255.046C315.68 258.762 318.409 259.153 318.409 263.461C318.409 265.695 316.522 266.518 314.227 266.518C310.919 266.518 309.071 266.518 309.071 262.761C309.071 260.607 308.73 260.933 307.797 258.133C306.264 253.535 294.32 246 289.463 237.091C297.459 224.165 299.773 234.956 299.773 234.956Z" fill="#FFE0B2"/>
<path d="M310.952 193.858C316.664 193.858 320.241 200.164 314.229 208.667C309.66 215.13 307.207 218.763 303.958 224.533C300.897 229.97 299.773 234.956 299.773 234.956C299.773 234.956 298.599 230.212 289.463 237.091C289.463 237.091 291.148 221.402 295.554 212.4C299.961 203.398 305.641 193.858 310.952 193.858Z" fill="#F59399"/>
<path d="M276.879 215.2C278.871 211.482 272.962 207.688 276.879 202.133C280.758 196.632 286.217 198.4 286.217 191.867C286.217 187.694 288.084 180.667 294.621 179.733C298.432 179.189 300.459 177.958 301.157 175.067C303.645 164.744 308.627 161.067 316.246 161.076C319.517 161.08 323.415 161.458 325.744 164.186C326.143 164.653 326.339 165.268 326.287 165.879C325.061 180.09 318.013 174.753 316.763 190.771C316.163 198.452 301.81 210.398 296.488 216.133C295.106 217.623 290.143 223.905 286.968 222.491C281.89 220.231 279.895 224.041 277.13 222.122C275.016 220.656 274.93 218.841 276.879 215.2Z" fill="#424242"/>
<path d="M242.643 166.535C242.643 171.246 246.464 175.067 251.179 175.067" stroke="white" stroke-width="4" stroke-miterlimit="10"/>
<path d="M178.5 199.341C183.061 198.148 185.79 193.486 184.597 188.928" stroke="white" stroke-width="4" stroke-miterlimit="10"/>
<path d="M131.659 302.933C133.442 307.295 138.426 309.385 142.789 307.602" stroke="white" stroke-width="4" stroke-miterlimit="10"/>
<path d="M394.976 338.867C396.76 343.228 401.743 345.318 406.107 343.535" stroke="white" stroke-width="4" stroke-miterlimit="10"/>
<path d="M572.551 328.833C576.832 330.805 581.902 328.936 583.876 324.658" stroke="white" stroke-width="4" stroke-miterlimit="10"/>
<path d="M319.416 128.3C322.85 131.529 328.25 131.364 331.481 127.933" stroke="white" stroke-width="4" stroke-miterlimit="10"/>
<path d="M526.998 194.667C525.642 199.179 528.203 203.937 532.717 205.292" stroke="white" stroke-width="4" stroke-miterlimit="10"/>
<path d="M360.427 270.788C364.657 272.869 369.772 271.127 371.854 266.899" stroke="white" stroke-width="4" stroke-miterlimit="10"/>
<path d="M478.08 165.282C481.513 168.51 486.914 168.346 490.145 164.915" stroke="white" stroke-width="4" stroke-miterlimit="10"/>
<path d="M516.266 151.352C520.307 148.926 521.616 143.685 519.189 139.646" stroke="white" stroke-width="4" stroke-miterlimit="10"/>
<path d="M139.129 258.305C143.681 259.53 148.364 256.833 149.589 252.283" stroke="white" stroke-width="4" stroke-miterlimit="10"/>
<path d="M501.424 308.955C505.976 310.18 510.659 307.483 511.884 302.933" stroke="white" stroke-width="4" stroke-miterlimit="10"/>
<path d="M440.277 131.051C438.198 135.28 439.942 140.391 444.172 142.47" stroke="white" stroke-width="4" stroke-miterlimit="10"/>
<path d="M270.221 281.393C273.451 277.961 273.287 272.563 269.854 269.333" stroke="white" stroke-width="4" stroke-miterlimit="10"/>
<path d="M357.286 322.062L352.948 326.398L357.286 330.734L361.624 326.398L357.286 322.062Z" fill="white"/>
<path d="M231.894 332.522L227.556 336.858L231.894 341.194L236.232 336.858L231.894 332.522Z" fill="white"/>
<path d="M566.717 284.546L562.38 288.881L566.717 293.217L571.055 288.881L566.717 284.546Z" fill="white"/>
<path d="M577.923 222.014L573.585 226.35L577.923 230.686L582.261 226.35L577.923 222.014Z" fill="white"/>
<path d="M222.83 206.331L218.492 210.667L222.83 215.002L227.168 210.667L222.83 206.331Z" fill="white"/>
<path d="M170.541 275.123L166.203 279.459L170.541 283.795L174.878 279.459L170.541 275.123Z" fill="white"/>
<path d="M292.586 157.992L288.249 162.328L292.586 166.664L296.924 162.328L292.586 157.992Z" fill="white"/>
<path d="M384.364 220.058L380.027 224.394L384.364 228.73L388.702 224.394L384.364 220.058Z" fill="white"/>
<path d="M273.589 317.4C273.589 317.4 276.39 320.2 274.523 323C272.687 325.751 275.456 328.6 275.456 328.6" stroke="white" stroke-width="4" stroke-miterlimit="10"/>
<path d="M531.304 243.667C531.304 243.667 534.105 246.467 532.238 249.267C530.402 252.018 533.171 254.867 533.171 254.867" stroke="white" stroke-width="4" stroke-miterlimit="10"/>
<path d="M476.212 209.133C476.212 209.133 479.014 211.933 477.146 214.733C475.31 217.485 478.08 220.333 478.08 220.333" stroke="white" stroke-width="4" stroke-miterlimit="10"/>
<path d="M459.405 269.333C459.405 269.333 462.206 272.133 460.339 274.933C458.503 277.685 461.272 280.533 461.272 280.533" stroke="white" stroke-width="4" stroke-miterlimit="10"/>
<path d="M379.271 139.464C379.271 139.464 382.073 142.264 380.205 145.064C378.369 147.815 381.139 150.664 381.139 150.664" stroke="white" stroke-width="4" stroke-miterlimit="10"/>
<path d="M251.179 231.533C251.179 231.533 253.98 234.333 252.113 237.133C250.277 239.885 253.046 242.733 253.046 242.733" stroke="white" stroke-width="4" stroke-miterlimit="10"/>
<path d="M218.498 273.533C218.498 273.533 221.299 276.333 219.431 279.133C217.596 281.885 220.365 284.733 220.365 284.733" stroke="white" stroke-width="4" stroke-miterlimit="10"/>
<path d="M388.44 286.6C388.44 286.6 391.241 289.4 389.374 292.2C387.538 294.951 390.308 297.8 390.308 297.8" stroke="white" stroke-width="4" stroke-miterlimit="10"/>
<path d="M359.494 202.6C359.494 202.6 362.295 205.4 360.427 208.2C358.592 210.951 361.361 213.8 361.361 213.8" stroke="white" stroke-width="4" stroke-miterlimit="10"/>
<path d="M194.22 233.867C194.22 233.867 197.021 236.667 195.154 239.467C193.318 242.218 196.088 245.067 196.088 245.067" stroke="white" stroke-width="4" stroke-miterlimit="10"/>
<path d="M383.771 379.467C385.544 380.64 390.435 381.449 395.61 380.871" stroke="#EEEEEE" stroke-width="4" stroke-miterlimit="10"/>
<path d="M559.316 378.082C561.37 377.528 565.211 374.396 568.2 370.133" stroke="#EEEEEE" stroke-width="4" stroke-miterlimit="10"/>
<path d="M351.253 376.955C353.375 376.806 357.746 374.469 361.498 370.86" stroke="#EEEEEE" stroke-width="4" stroke-miterlimit="10"/>
<path d="M477.948 385.013L474.345 380.05L479.893 378.533L482.914 381.411L477.948 385.013Z" fill="#EEEEEE"/>
<path d="M531.172 385.013L527.569 380.05L533.117 378.533L536.138 381.411L531.172 385.013Z" fill="#EEEEEE"/>
<path d="M312.509 381.333L308.906 376.37L314.455 374.854L317.475 377.732L312.509 381.333Z" fill="#EEEEEE"/>
<path d="M447.773 370.309C447.773 370.309 449.72 374.906 444.977 373.674C439.34 372.211 440.94 378.533 440.94 378.533" stroke="#EEEEEE" stroke-width="4" stroke-miterlimit="10"/>
<path d="M267.941 376.949C267.941 376.949 264.313 380.379 263.81 375.506C263.212 369.714 257.845 373.422 257.845 373.422" stroke="#EEEEEE" stroke-width="4" stroke-miterlimit="10"/>
</g>
<defs>
<radialGradient id="paint0_radial" cx="0" cy="0" r="1" gradientUnits="userSpaceOnUse" gradientTransform="translate(373.5 318.334) scale(330.53 251.575)">
<stop stop-color="#E0E0E0"/>
<stop offset="1" stop-color="white"/>
</radialGradient>
<linearGradient id="paint1_linear" x1="395.91" y1="409.333" x2="395.91" y2="391.6" gradientUnits="userSpaceOnUse">
<stop stop-color="white"/>
<stop offset="1" stop-color="#E0E0E0"/>
</linearGradient>
<linearGradient id="paint2_linear" x1="166.207" y1="396.267" x2="166.207" y2="378.533" gradientUnits="userSpaceOnUse">
<stop stop-color="white"/>
<stop offset="1" stop-color="#E0E0E0"/>
</linearGradient>
<clipPath id="clip0">
<rect width="747" height="495" fill="white"/>
</clipPath>
</defs>
</svg>
