<svg width="747" height="561" viewBox="0 0 747 561" fill="none" xmlns="http://www.w3.org/2000/svg">
<g clip-path="url(#clip0)">
<path d="M747 0H0V561H747V0Z" fill="white"/>
<path d="M746.65 0H-0.350098V561H746.65V0Z" fill="url(#paint0_radial)"/>
<path d="M746.65 0H-0.350098V561H746.65V0Z" fill="white"/>
<path d="M671.943 52.36H74.3433V401.115H671.943V52.36Z" fill="#F5F5F5"/>
<path d="M194.328 381.863H190.975V407.042H194.328V381.863Z" fill="#D1D1D1"/>
<path d="M175.972 378.241L174.786 379.428L192.567 397.233L193.752 396.046L175.972 378.241Z" fill="#D1D1D1"/>
<path d="M209.326 378.244L191.546 396.049L192.731 397.236L210.511 379.431L209.326 378.244Z" fill="#D1D1D1"/>
<path d="M199.18 419.631H201.21C202.038 419.631 202.71 418.959 202.71 418.129V403.507C202.71 402.677 202.038 402.005 201.21 402.005H199.18C198.352 402.005 197.68 402.677 197.68 403.507V418.129C197.68 418.959 198.352 419.631 199.18 419.631Z" fill="#D1D1D1"/>
<path d="M184.092 419.631H186.122C186.951 419.631 187.622 418.959 187.622 418.129V403.507C187.622 402.677 186.951 402.005 186.122 402.005H184.092C183.264 402.005 182.593 402.677 182.593 403.507V418.129C182.593 418.959 183.264 419.631 184.092 419.631Z" fill="#D1D1D1"/>
<path d="M187.622 406.202L192.651 404.523L197.68 406.202V414.595L192.651 412.917L187.622 414.595V406.202Z" fill="#EAEAEA"/>
<path d="M264.737 361.719H259.708V386.898H264.737V361.719Z" fill="#D1D1D1"/>
<path d="M245.542 358.098L244.357 359.285L262.138 377.089L263.323 375.902L245.542 358.098Z" fill="#D1D1D1"/>
<path d="M271.427 407.881H274.81C276.19 407.881 277.31 406.761 277.31 405.378V385.204C277.31 383.822 276.191 382.701 274.81 382.701H271.427C270.047 382.701 268.927 383.821 268.927 385.204V405.378C268.927 406.76 270.046 407.881 271.427 407.881Z" fill="#D1D1D1"/>
<path d="M249.633 407.881H253.016C254.396 407.881 255.516 406.761 255.516 405.378V385.204C255.516 383.822 254.397 382.701 253.016 382.701H249.633C248.253 382.701 247.134 383.821 247.134 385.204V405.378C247.134 406.76 248.253 407.881 249.633 407.881Z" fill="#D1D1D1"/>
<path d="M255.516 388.437L262.221 386.059L268.927 388.437V400.327L262.221 397.949L255.516 400.327V388.437Z" fill="#EAEAEA"/>
<path d="M252.21 302.966L365.077 293.784C366.402 293.676 366.657 295.624 365.348 295.861L252.21 316.395V302.966Z" fill="#D2D2D2"/>
<path d="M193.069 171.676L197.68 266.875H185.946L190.558 171.676C190.643 169.913 192.984 169.913 193.069 171.676Z" fill="#D9D9D9"/>
<path d="M553.437 315.014L248.828 328.984C248.817 328.984 248.806 328.989 248.799 328.998L209.495 377.566C209.471 377.596 215.295 370.433 215.339 370.413C212.216 374.237 209.495 377.566 209.495 377.566C209.471 377.596 209.496 377.642 209.534 377.631C212.956 376.658 289.629 354.932 335.145 347.449C371.133 341.532 460.814 329.413 520.596 321.469C522.079 321.272 519.665 321.423 514.192 321.869C529.389 320.123 542.949 318.506 553.625 317.101C554.952 316.927 554.774 314.953 553.437 315.014Z" fill="#E0E0E0"/>
<path d="M125.659 361.718H120.63V386.897H125.659V361.718Z" fill="#D1D1D1"/>
<path d="M139.822 358.093L122.042 375.897L123.227 377.084L141.008 359.28L139.822 358.093Z" fill="#D1D1D1"/>
<path d="M113.94 407.881H110.556C109.176 407.881 108.056 406.761 108.056 405.378V385.204C108.056 383.822 109.175 382.701 110.556 382.701H113.939C115.319 382.701 116.439 383.821 116.439 385.204V405.378C116.439 406.76 115.32 407.881 113.94 407.881Z" fill="#D9D9D9"/>
<path d="M135.733 407.881H132.35C130.97 407.881 129.85 406.761 129.85 405.378V385.204C129.85 383.822 130.969 382.701 132.35 382.701H135.733C137.113 382.701 138.232 383.821 138.232 385.204V405.378C138.232 406.76 137.113 407.881 135.733 407.881Z" fill="#D1D1D1"/>
<path d="M129.85 388.436L123.145 386.059L116.439 388.436V400.327L123.145 397.949L129.85 400.327V388.436Z" fill="#EAEAEA"/>
<path d="M330.527 361.694C358.223 362.813 373.876 361.608 393.314 361.694C393.314 379.056 379.258 393.13 361.92 393.13C344.583 393.13 330.527 379.057 330.527 361.694Z" fill="#D2D2D2"/>
<path d="M330.527 361.695C330.527 344.333 344.583 330.259 361.92 330.259C379.258 330.259 393.314 344.333 393.314 361.695C393.314 366.41 379.258 369.553 361.92 369.553C344.583 369.553 330.527 366.41 330.527 361.695Z" fill="#EEEEEE"/>
<path d="M361.921 384.485C374.491 384.485 384.681 374.281 384.681 361.695C384.681 349.108 374.491 338.904 361.921 338.904C349.35 338.904 339.16 349.108 339.16 361.695C339.16 374.281 349.35 384.485 361.921 384.485Z" fill="#D4D4D4"/>
<path d="M361.92 367.196C364.955 367.196 367.415 364.733 367.415 361.694C367.415 358.656 364.955 356.193 361.92 356.193C358.886 356.193 356.426 358.656 356.426 361.694C356.426 364.733 358.886 367.196 361.92 367.196Z" fill="#B5B5B5"/>
<path d="M132.272 302.966L19.406 293.784C18.0801 293.676 17.8252 295.624 19.1343 295.861L132.272 316.395V302.966Z" fill="#D2D2D2"/>
<path d="M135.654 328.984L-168.955 315.015C-170.292 314.953 -170.469 316.928 -169.141 317.102C-116.512 324.031 6.1702 336.113 49.7408 343.276C95.2574 350.759 165.722 369.441 169.142 370.413C169.18 370.424 175.012 377.598 174.988 377.567L135.683 328.998C135.677 328.99 135.665 328.984 135.654 328.984Z" fill="#E0E0E0"/>
<path d="M159.98 359.199C119.747 343.253 -148.711 319.795 -136.113 321.47C-76.3304 329.414 13.3517 341.533 49.3384 347.45C94.8549 354.933 171.528 376.659 174.949 377.632C174.987 377.642 175.013 377.597 174.988 377.567C174.988 377.567 159.98 359.2 159.98 359.199Z" fill="#E0E0E0"/>
<path d="M53.9557 361.694C26.2597 362.813 10.6063 361.608 -8.83154 361.694C-8.83154 379.056 5.2242 393.13 22.5621 393.13C39.8999 393.13 53.9557 379.057 53.9557 361.694Z" fill="#D2D2D2"/>
<path d="M53.9557 361.695C53.9557 344.333 39.8999 330.259 22.5621 330.259C5.2242 330.259 -8.83154 344.333 -8.83154 361.695C-8.83154 366.41 5.2242 369.553 22.5621 369.553C39.8999 369.553 53.9557 366.41 53.9557 361.695Z" fill="#F6F6F6"/>
<path d="M22.5631 384.485C35.1332 384.485 45.3233 374.281 45.3233 361.695C45.3233 349.108 35.1332 338.904 22.5631 338.904C9.99305 338.904 -0.197021 349.108 -0.197021 361.695C-0.197021 374.281 9.99305 384.485 22.5631 384.485Z" fill="#C2C2C2"/>
<path d="M22.563 367.196C25.5974 367.196 28.0572 364.733 28.0572 361.694C28.0572 358.656 25.5974 356.193 22.563 356.193C19.5287 356.193 17.0688 358.656 17.0688 361.694C17.0688 364.733 19.5287 367.196 22.563 367.196Z" fill="#CCCCCC"/>
<path d="M125.596 318.074C125.596 281.454 155.242 251.768 191.813 251.768C228.383 251.768 258.03 281.455 258.03 318.074C258.03 320.917 257.851 323.719 257.504 326.466C234.803 341.11 148.71 340.507 126.126 326.511C125.777 323.748 125.596 320.932 125.596 318.074Z" fill="#E9E9E9"/>
<path d="M192.49 297.797C196.948 296.922 222.279 292.055 233.722 292.055L242.104 310.52L236.237 316.396C236.237 316.396 232.884 312.199 220.311 312.199C207.738 312.199 191.812 315.557 191.812 315.557V298.62C191.814 298.218 192.097 297.873 192.49 297.797Z" fill="#D8D8D8"/>
<path d="M191.137 297.797C186.678 296.922 161.347 292.055 149.904 292.055L141.522 310.52L147.39 316.396C147.39 316.396 150.743 312.199 163.316 312.199C175.889 312.199 191.815 315.557 191.815 315.557V298.62C191.814 298.218 191.53 297.873 191.137 297.797Z" fill="#D8D8D8"/>
<path d="M140.67 311.372L146.537 317.247C146.763 317.474 147.069 317.601 147.389 317.601C147.411 317.601 147.432 317.6 147.455 317.599C147.797 317.58 148.114 317.417 148.329 317.148C148.348 317.126 151.66 313.404 163.315 313.404C175.621 313.404 191.406 316.701 191.565 316.735C191.602 316.743 191.638 316.742 191.675 316.745C191.721 316.751 191.767 316.758 191.814 316.758C191.859 316.758 191.904 316.751 191.95 316.745C191.987 316.741 192.025 316.742 192.062 316.734C192.22 316.7 208.014 313.403 220.313 313.403C231.98 313.403 235.268 317.11 235.297 317.147C235.511 317.415 235.829 317.579 236.171 317.598C236.194 317.599 236.215 317.6 236.238 317.6C236.556 317.6 236.862 317.474 237.089 317.246L242.957 311.371C243.312 311.016 243.41 310.477 243.202 310.02L234.819 291.555C234.624 291.124 234.196 290.848 233.723 290.848C222.238 290.848 197.168 295.649 192.258 296.612H192.257C192.1 296.643 191.954 296.697 191.813 296.762C191.672 296.698 191.525 296.643 191.368 296.612H191.367C186.459 295.65 161.391 290.848 149.902 290.848C149.43 290.848 149.001 291.124 148.806 291.555L140.425 310.02C140.217 310.478 140.315 311.017 140.67 311.372ZM193.017 298.921C195.751 298.388 203.085 296.988 211.128 295.714L214.49 311.197C205.618 311.774 196.485 313.417 193.018 314.086V298.921H193.017ZM240.664 310.258L236.704 314.225L228.844 293.476C230.326 293.364 231.713 293.29 232.952 293.268L240.664 310.258ZM220.312 310.993C219.205 310.993 218.072 311.02 216.925 311.068L213.511 295.344C217.9 294.677 222.378 294.074 226.349 293.691L233.798 313.356C231.249 312.18 227.022 310.993 220.312 310.993ZM190.609 314.086C187.141 313.417 178.009 311.773 169.137 311.197L172.499 295.713C180.542 296.988 187.876 298.388 190.61 298.921V314.086H190.609ZM163.315 310.993C156.606 310.993 152.378 312.181 149.828 313.356L157.277 293.691C161.248 294.074 165.726 294.676 170.114 295.344L166.7 311.068C165.555 311.02 164.42 310.993 163.315 310.993ZM142.964 310.258L150.675 293.267C151.915 293.289 153.301 293.364 154.783 293.475L146.924 314.224L142.964 310.258Z" fill="#EAEAEA"/>
<path d="M191.814 330.664C228.385 330.664 257.506 326.466 257.506 326.466C253.386 359.124 225.545 384.379 191.814 384.379C158.098 384.379 130.267 359.147 126.127 326.511C126.127 326.511 155.242 330.664 191.814 330.664Z" fill="#F5F5F5"/>
<path d="M167.505 347.45C167.505 334.007 178.388 323.11 191.813 323.11C205.237 323.11 216.12 334.007 216.12 347.45C216.12 360.892 205.237 371.79 191.813 371.79C180.173 371.79 170.443 363.596 168.062 352.655C167.698 350.978 167.505 349.237 167.505 347.45Z" fill="#F5F5F5"/>
<path d="M405.768 137.116L401.074 143.509C400.784 143.902 400.406 144.222 399.969 144.44L394.087 147.379L390.61 145.028L388.793 143.024C388.793 143.024 392.943 144.732 396.486 142.428C398.843 140.895 401.144 138.907 402.42 137.748C403.086 137.144 403.982 136.866 404.872 136.991L405.768 137.116Z" fill="#C4C4C4"/>
<path d="M435.635 154.585L445.399 135.785L440.802 135.143C439.843 135.009 438.87 135.258 438.092 135.835L422.254 147.6C420.03 149.252 417.184 149.818 414.499 149.139C408.639 147.657 397.385 144.766 384.974 141.337C361.327 134.805 333.808 127.216 329.447 131.297L327.344 132.649C327.344 132.649 322.385 132.85 322.088 134.986C321.79 137.122 322.126 140.745 355.59 148.012L355.009 152.182C355.009 152.182 356.449 154.482 365.105 154.214L365.379 153.359L370.872 153.777L371.297 152.398L373.033 152.757C373.033 152.757 372.998 153.568 373.738 153.827C374.478 154.086 375.039 154.242 375.039 154.242L375.213 156.329L376.336 157.184L376.803 153.828L378.165 154.096L378.257 155.664L378.981 155.765L379.525 154.364C379.525 154.364 399.422 158.529 411.333 159.586C429.226 161.173 442.087 159.547 442.087 159.547L442.429 157.09L440.737 156.627L442.585 155.974C442.585 155.975 440.489 154.503 435.635 154.585Z" fill="#E0E0E0"/>
<path d="M378.483 158.918C379.531 158.918 380.381 158.068 380.381 157.018C380.381 155.969 379.531 155.118 378.483 155.118C377.435 155.118 376.586 155.969 376.586 157.018C376.586 158.068 377.435 158.918 378.483 158.918Z" fill="#C4C4C4"/>
<path d="M335.524 148.4C336.098 148.4 336.563 147.935 336.563 147.361C336.563 146.786 336.098 146.321 335.524 146.321C334.951 146.321 334.486 146.786 334.486 147.361C334.486 147.935 334.951 148.4 335.524 148.4Z" fill="#E0E0E0"/>
<path d="M335.35 146.967L335.956 147.052L338.151 142.441L337.545 142.357L335.35 146.967Z" fill="#E0E0E0"/>
<path d="M335.727 144.971L335.482 145.501L336.94 146.202L337.2 145.679L335.727 144.971Z" fill="#E0E0E0"/>
<path d="M336.283 145.007L336.889 145.092L336.018 142.142L335.412 142.058L336.283 145.007Z" fill="#E0E0E0"/>
<path d="M375.579 159.705C376.626 159.705 377.476 158.854 377.476 157.805C377.476 156.755 376.626 155.905 375.579 155.905C374.531 155.905 373.681 156.755 373.681 157.805C373.681 158.854 374.531 159.705 375.579 159.705Z" fill="#E0E0E0"/>
<path d="M671.943 205.653V261.725L357.457 53.1454L357.979 52.36H440.803L671.943 205.653Z" fill="#FAFAFA"/>
<path d="M671.943 282.763L323.841 52.36H289.983L671.943 305.175V282.763Z" fill="#FAFAFA"/>
<path d="M416.619 401.115H365.851L74.3433 207.991V174.359L416.619 401.115Z" fill="#FAFAFA"/>
<path d="M334.72 401.115H300.807L74.3433 251.459V229.047L334.72 401.115Z" fill="#FAFAFA"/>
<path d="M280.235 47.0315H260.626V406.444H280.235V47.0315Z" fill="white"/>
<path d="M485.66 47.0315H466.051V406.444H485.66V47.0315Z" fill="white"/>
<path d="M747 -0.233521H0V560.766H747V-0.233521Z" fill="url(#paint1_radial)"/>
<path opacity="0.2" d="M663.546 449.735C663.546 460.062 655.174 468.435 644.847 468.435H95.8504C85.5231 468.435 77.1511 460.063 77.1511 449.735H663.546Z" fill="url(#paint2_linear)"/>
<path d="M376.374 204.921C376.374 204.921 364.576 204.28 363.265 217.752C361.954 231.225 363.07 235.037 364.667 237.655C365.509 239.036 365.656 240.788 365.083 242.301C364.399 244.108 359.097 244.627 359.097 244.627C355.765 250.187 370.004 259.354 370.004 259.354L385.752 254.636L381.331 245.041C380.97 243.685 381.481 241.424 382.426 240.388C383.638 239.062 384.814 237.251 385.346 234.91C386.657 229.137 388.162 224.832 388.422 221.438C389.372 209.078 382.152 204.915 376.374 204.921Z" fill="#FFCCBC"/>
<path d="M374.877 254.177C374.877 254.177 373.618 255.631 371.17 256.401L368.992 254.423L371.604 248.869L374.877 254.177Z" fill="#64B5F6"/>
<path d="M349.137 411.122C349.137 425.147 351.938 435.549 351.938 440.736C351.938 441.671 351.938 443.541 351.938 443.541V445.411H359.408V440.736C359.408 435.762 364.077 423.321 364.077 413.153" fill="#FFCCBC"/>
<path d="M348.899 452.13C346.964 455.578 345.753 457.382 345.753 459.737C345.753 462.779 348.646 464.227 348.646 464.227C348.646 464.227 357.906 464.227 359.642 456.114C360.64 451.449 363.115 451.479 363.115 448.001C363.115 445.9 361.957 442.206 361.957 442.206C361.957 442.206 360.799 443.366 356.17 443.366C352.697 443.366 352.697 442.206 352.697 442.206C352.697 442.206 353.096 444.657 348.899 452.13Z" fill="#212121"/>
<path d="M395.32 411.122C395.32 425.147 392.52 435.549 392.52 440.736C392.52 441.671 392.52 443.541 392.52 443.541V445.411H385.05V440.736C385.05 435.762 380.381 423.321 380.381 413.153" fill="#FFCCBC"/>
<path d="M396.615 452.13C398.551 455.578 399.762 457.382 399.762 459.737C399.762 462.779 396.868 464.227 396.868 464.227C396.868 464.227 387.608 464.227 385.872 456.114C384.874 451.449 382.4 451.479 382.4 448.001C382.4 445.9 383.557 442.206 383.557 442.206C383.557 442.206 384.715 443.366 389.345 443.366C392.817 443.366 392.817 442.206 392.817 442.206C392.817 442.206 392.419 444.657 396.615 452.13Z" fill="#212121"/>
<path d="M398.003 330.978L372.781 331.023H372.636H372.492L347.27 330.978C347.27 330.978 347.27 366.387 348.714 387.739C347.27 406.011 350.168 446.19 350.168 446.19C350.168 446.19 352.073 448.566 357.626 448.566C363.179 448.566 363.929 445.644 363.929 445.644C363.929 445.644 370.27 402.675 369.627 386.861C370.702 379.933 372.077 361.061 372.582 354.695C373.125 361.132 374.574 379.958 375.646 386.861C375.001 402.675 381.203 446.112 381.203 446.112C381.203 446.112 382.07 448.566 387.623 448.566C393.176 448.566 395.103 446.19 395.103 446.19C395.103 446.19 398.002 406.011 396.558 387.739C398.003 366.387 398.003 330.978 398.003 330.978Z" fill="#0D47A1"/>
<path d="M376.374 204.921C376.374 204.921 364.576 204.28 363.265 217.752C362.963 220.862 362.73 223.457 362.572 225.642C362.35 228.678 364.096 227.629 364.702 224.661C365.632 220.106 366.928 213.666 369.381 214.407C371.779 215.131 380.494 216.43 383.263 216.167C386.687 215.843 385.378 222.199 386.18 226.049C386.573 227.932 387.565 229.157 387.658 228.532C388.068 225.772 388.268 223.446 388.422 221.439C389.372 209.078 382.152 204.915 376.374 204.921Z" fill="#212121"/>
<path d="M389.26 230.539C389.668 228.428 388.534 226.434 386.727 226.084C384.921 225.734 383.126 227.161 382.718 229.271C382.31 231.382 383.444 233.377 385.25 233.727C387.057 234.077 388.852 232.65 389.26 230.539Z" fill="#FFCCBC"/>
<path d="M363.749 231.606C365.589 231.606 367.08 229.863 367.08 227.714C367.08 225.564 365.589 223.821 363.749 223.821C361.909 223.821 360.417 225.564 360.417 227.714C360.417 229.863 361.909 231.606 363.749 231.606Z" fill="#FFCCBC"/>
<path d="M345.026 300.218L351.817 308.286L345.026 320.947C345.026 320.947 338.074 314.325 336.408 311.622C334.533 308.58 336.755 300.218 345.026 300.218Z" fill="#424242"/>
<path d="M400.322 300.218L393.531 308.286L400.322 320.947C400.322 320.947 407.274 314.326 408.94 311.622C410.815 308.58 408.593 300.218 400.322 300.218Z" fill="#424242"/>
<path d="M405.131 256.101C403.077 253.399 399.356 250.285 395.135 249.073C390.592 247.771 381.331 245.041 381.331 245.041C381.331 245.041 380.139 249.484 371.17 255.289C367.645 252.264 359.097 244.627 359.097 244.627C359.097 244.627 354.756 245.547 350.213 246.848C345.993 248.061 342.273 251.175 340.217 253.877C332.932 263.43 329.223 280.022 328.001 295.769C331.133 315.098 345.026 320.947 345.026 320.947C345.026 320.947 331.699 305.033 345.026 300.218L346.881 285.772V332.479H372.121H398.467V285.772L400.321 300.218C413.648 305.033 400.321 320.947 400.321 320.947C400.321 320.947 414.214 315.098 417.346 295.769C416.126 280.022 412.416 265.654 405.131 256.101Z" fill="#616161"/>
<path d="M400.837 281.29H344.537V323.112H400.837V281.29Z" fill="#64B5F6"/>
<path d="M397.505 284.626H347.869V319.776H397.505V284.626Z" fill="white"/>
<path d="M338.503 301.862C339.046 299.288 340.954 297.132 343.507 296.508C343.772 296.444 344.018 296.405 344.23 296.405C345.711 296.405 349.227 297.888 349.413 300.298C349.598 302.707 349.72 311.993 344.537 312.827V317.368C344.537 317.368 336.286 312.359 338.503 301.862Z" fill="#FFCCBC"/>
<path d="M406.845 301.862C406.302 299.288 404.394 297.132 401.841 296.508C401.576 296.444 401.33 296.405 401.118 296.405C399.637 296.405 396.121 297.888 395.935 300.298C395.749 302.707 395.628 311.993 400.811 312.827V317.368C400.811 317.368 409.062 312.359 406.845 301.862Z" fill="#FFCCBC"/>
<path d="M377.454 246.194C376.031 247.08 374.778 247.204 371.604 248.868C372.639 251.348 374.352 254.399 376.038 256.491C376.038 256.491 377.689 255.471 382.184 252.095C385.696 249.457 385.773 246.346 385.773 246.346C385.773 246.346 383.539 245.174 381.404 242.565C381.405 242.567 381.619 243.599 377.454 246.194Z" fill="#90CAF9"/>
<path d="M371.603 248.869C371.603 248.869 369.274 255.721 366.826 256.492C366.826 256.492 361.812 248.893 359.096 244.628C361.812 242.164 365.338 241.294 365.338 241.294C366.822 242.867 369.974 248.018 371.603 248.869Z" fill="#90CAF9"/>
<path d="M366.118 293.232H362.535V311.17H366.118V293.232Z" fill="#64B5F6"/>
<path d="M375.672 293.232H372.089V311.17H375.672V293.232Z" fill="#64B5F6"/>
<path d="M382.837 299.211H379.255V311.17H382.837V299.211Z" fill="#64B5F6"/>
<path d="M382.837 293.232H379.255V296.82H382.837V293.232Z" fill="#64B5F6"/>
<path d="M373.283 300.407H364.923V303.995H373.283V300.407Z" fill="#64B5F6"/>
<path d="M263.48 325.135H222.909V347.383H263.48V325.135Z" fill="#64B5F6"/>
<path d="M220.104 410.889C220.104 424.914 222.904 436.251 222.904 441.437C222.904 442.372 222.904 444.242 222.904 444.242L222.582 447.105L230.374 446.112V440.502C230.374 435.529 235.043 423.088 235.043 412.919" fill="#FFCCBC"/>
<path d="M219.75 448.594C216.777 450.507 217.031 449.824 214.742 452.161C212.72 454.226 212.66 456.049 212.66 456.049C212.66 456.049 218.887 458.92 223.415 454.102C225.617 451.758 230.662 452.489 230.479 449.189C230.351 446.863 230.373 444.32 230.373 444.32C230.373 444.32 229.896 445.906 226.93 446.019C224.537 446.111 222.808 445.09 222.808 445.09C222.808 445.09 222.697 446.698 219.75 448.594Z" fill="#5D4037"/>
<path d="M265.691 410.816C265.691 424.841 263.657 433.977 262.968 440.424C262.869 441.354 262.606 445.138 262.606 445.138L261.061 451.372L255.433 444.36L255.458 441.087C255.458 436.114 250.79 422.738 250.79 412.57" fill="#FFCCBC"/>
<path d="M265.224 450.163C267.056 452.545 268.288 453.486 269.077 455.11C269.974 456.955 269.753 458.508 269.753 458.508C269.753 458.508 262.205 460.056 259.724 454.266C258.407 451.195 254.645 451.191 254.645 448.788C254.645 447.337 255.434 444.359 255.434 444.359C255.434 444.359 256.816 445.511 260.12 445.511C262.597 445.511 262.607 445.138 262.607 445.138C262.607 445.138 262.547 446.685 265.224 450.163Z" fill="#5D4037"/>
<path d="M248.692 435.55C246.16 418.457 242.972 352.545 242.972 352.545C242.972 352.545 240.262 418.073 237.73 435.166L216.552 435.242C216.552 435.242 216.027 345.264 223.901 315.512H262.488C270.363 345.265 270.166 435.55 270.166 435.55H248.692Z" fill="#B71C1C"/>
<path d="M263.48 297.756H222.909V326.071H263.48V297.756Z" fill="#DD3636"/>
<path d="M257.077 230.213V246.363C257.077 246.363 254.301 253.048 243.195 253.048C233.2 253.048 229.313 247.475 229.313 247.475V230.213" fill="#3E2723"/>
<path d="M255.967 231.203C255.967 237.22 251.473 251.342 243.139 251.342C234.255 251.342 230.423 237.22 230.423 231.203C230.423 225.186 236.142 220.308 243.195 220.308C250.249 220.308 255.967 225.186 255.967 231.203Z" fill="#FFCCBC"/>
<path d="M253.974 258.743C245.835 255.506 248.638 248.019 248.638 248.019H237.587C237.587 248.019 240.143 256.71 232.417 258.743C232.417 258.743 236.882 278.033 243.751 278.033C250.619 278.033 253.974 258.743 253.974 258.743Z" fill="#FFCCBC"/>
<path d="M242.64 216.868C233.755 216.868 229.312 223.54 229.312 230.213C229.312 237.285 231.677 241.334 231.677 241.334C231.677 240.556 233.149 239.583 233.754 236.885C233.754 236.885 233.335 228.936 235.237 227.61C237.1 226.311 238.29 232.51 243.194 232.51C250.118 232.51 251.963 238.864 251.963 238.864L252.635 235.773C255.806 236.781 255.827 240.024 255.827 240.777C255.827 240.777 257.077 237.579 257.077 230.213C257.077 226.877 254.856 216.868 242.64 216.868Z" fill="#3E2723"/>
<path d="M233.755 244.67C235.595 244.67 237.087 242.927 237.087 240.778C237.087 238.628 235.595 236.885 233.755 236.885C231.915 236.885 230.423 238.628 230.423 240.778C230.423 242.927 231.915 244.67 233.755 244.67Z" fill="#FFCCBC"/>
<path d="M298.219 301.232C298.219 301.232 304.028 297.675 304.923 298.962C305.664 300.028 303.669 301.193 303.044 301.819C302.419 302.445 312.667 305.866 312.205 308.439C311.784 310.78 308.443 311.699 304.847 311.519C301.477 311.349 297.237 310.772 295.553 309.988C294.35 309.427 298.219 301.232 298.219 301.232Z" fill="#FFCCBC"/>
<path d="M187.935 301.232C187.935 301.232 182.126 297.675 181.232 298.962C180.49 300.028 182.486 301.193 183.11 301.819C183.735 302.445 173.487 305.866 173.949 308.439C174.37 310.78 177.711 311.699 181.307 311.519C184.677 311.349 188.917 310.772 190.601 309.988C191.804 309.427 187.935 301.232 187.935 301.232Z" fill="#FFCCBC"/>
<path d="M253.966 258.744C247.831 264.222 238.557 264.222 232.423 258.744L232.421 258.742L221.665 283.895L224.951 315.665H257.703L263.48 285.41L253.968 258.743C253.968 258.742 253.968 258.742 253.966 258.744Z" fill="#F5F5F5"/>
<path d="M252.635 243.558C254.475 243.558 255.966 241.816 255.966 239.666C255.966 237.516 254.475 235.773 252.635 235.773C250.795 235.773 249.303 237.516 249.303 239.666C249.303 241.816 250.795 243.558 252.635 243.558Z" fill="#FFCCBC"/>
<path d="M232.416 258.744C232.416 258.744 229.619 271.313 229.619 282.67C229.619 293.147 230.711 314.764 230.581 326.07H217.206C216.188 326.07 215.357 325.25 215.338 324.23C214.742 293.566 217.373 295.515 217.373 295.515L210.859 304.261C207.485 306.866 201.748 307.472 196.211 308.918C194.365 309.399 192.541 309.767 190.834 309.986L188.168 301.23C188.168 301.23 190.77 300.132 193.257 298.679C197.425 296.245 200.356 295.071 203.495 291.727C209.958 283.43 210.337 277.002 217.411 267.716C219.41 265.091 223.196 262.565 227.117 260.887C231.257 259.119 232.416 258.744 232.416 258.744Z" fill="#5D4037"/>
<path d="M253.974 258.744C253.974 258.744 256.77 273.36 256.77 283.727C256.77 292.407 254.638 314.764 254.883 326.07H268.252C269.269 326.07 270.099 325.252 270.12 324.233C270.727 294.861 268.879 295.339 268.879 295.339L275.53 304.262C278.904 306.867 284.641 307.473 290.178 308.919C292.024 309.4 293.848 309.767 295.554 309.987L298.22 301.231C298.22 301.231 295.439 300.184 292.904 298.533C289.563 296.356 285.963 294.997 282.894 291.729C276.43 283.432 276.052 277.004 268.978 267.718C266.979 265.093 263.305 262.273 259.272 260.889C255.534 259.607 253.974 258.744 253.974 258.744Z" fill="#5D4037"/>
<path d="M477.836 443.913H487.051V430.783H477.076L477.836 443.913Z" fill="#966338"/>
<path d="M474.001 449.255C471.393 452.065 469.715 453.114 468.521 455.081C467.163 457.32 467.261 459.319 467.261 459.319C467.261 459.319 476.667 462.181 480.505 455.121C482.541 451.374 487.321 451.816 487.605 448.764C487.777 446.921 487.051 442.049 487.051 442.049C487.051 442.049 484.835 443.509 480.324 443.509C478.328 443.509 477.753 442.486 477.753 442.486C477.745 442.487 477.808 445.154 474.001 449.255Z" fill="#212121"/>
<path d="M549.704 296.056C545.14 297.546 537.577 298.201 532.734 295.299C528.136 292.541 522.738 289.105 522.738 289.105C524.337 273.753 521.918 256.172 518.296 250.182C521.286 250.671 535.932 262.103 542.907 277.072C548.149 277.65 555.256 278.796 556.189 282.455C558.511 291.574 552.925 294.988 549.704 296.056Z" fill="#F9A825"/>
<path d="M466.625 255.595C466.625 255.595 450.906 280.288 448.686 289.463L440.911 287.795C440.911 287.795 448.13 292.938 445.909 297.525C443.687 302.113 437.996 297.525 437.996 297.525C437.996 297.525 443.41 308.369 450.074 309.063C456.737 309.758 461.319 305.032 461.319 305.032C461.319 305.032 467.011 306.143 471.315 302.669C475.617 299.194 466.625 255.595 466.625 255.595Z" fill="#F9A825"/>
<path d="M448.798 289.022C448.757 289.172 448.719 289.32 448.685 289.463L453.689 296.567C453.689 296.567 452.829 290.084 448.798 289.022Z" fill="#E39922"/>
<path d="M489.806 206.304C489.806 206.304 502.52 202.269 502.915 215.798C503.319 229.653 502.217 234.005 500.62 236.623C499.778 238.004 499.283 242.552 501.634 244.191C503.218 245.295 511.5 253.353 511.5 253.353C514.832 258.914 496.28 259.354 496.28 259.354L479.107 252.765C479.107 252.765 485.072 247.389 486.511 245.158C487.714 243.294 486.258 239.588 485.312 238.552C484.1 237.225 483.368 236.357 481.945 232.957C479.659 227.497 478.018 222.879 477.757 219.485C476.808 207.125 484.027 206.299 489.806 206.304Z" fill="#966338"/>
<path d="M511.603 443.913H502.388V430.783H512.364L511.603 443.913Z" fill="#966338"/>
<path d="M470.221 324.306L494.385 319.902L519.015 324.306C519.015 354.155 519.378 360.851 517.613 387.739C519.015 406.011 515.266 436.181 515.266 436.181C515.266 436.181 512.602 434.647 507.211 434.647C501.82 434.647 499.415 436.181 499.415 436.181C499.415 436.181 496.682 402.675 497.308 386.86C496.263 379.933 494.928 355.5 494.438 349.134C493.912 355.57 493.615 379.957 492.574 386.86C493.199 402.674 490.466 436.181 490.466 436.181C490.466 436.181 488.062 434.647 482.67 434.647C477.279 434.647 474.615 436.181 474.615 436.181C474.615 436.181 470.867 406.011 472.268 387.739C470.502 360.851 470.221 354.154 470.221 324.306Z" fill="#616161"/>
<path d="M494.63 203.663C494.63 203.663 504.064 202.032 504.025 215.798C504.017 218.923 504.089 221.868 503.609 223.688C502.832 226.63 502.084 225.674 501.478 222.707C500.548 218.152 500.362 211.712 497.91 212.453C495.512 213.177 488.974 215.344 481.807 214.213C478.409 213.677 480.802 220.245 480.001 224.095C479.609 225.978 478.866 227.109 478.524 226.578C477.674 225.259 476.499 221.185 476.134 219.205C473.273 203.72 483.758 198.694 494.63 203.663Z" fill="#1B1211"/>
<path d="M482.06 231.798C483.867 231.448 485 229.453 484.593 227.343C484.185 225.232 482.39 223.805 480.583 224.155C478.777 224.505 477.643 226.5 478.051 228.61C478.458 230.721 480.254 232.148 482.06 231.798Z" fill="#966338"/>
<path d="M501.32 229.653C503.16 229.653 504.652 227.91 504.652 225.76C504.652 223.611 503.16 221.868 501.32 221.868C499.48 221.868 497.989 223.611 497.989 225.76C497.989 227.91 499.48 229.653 501.32 229.653Z" fill="#966338"/>
<path d="M515.438 449.255C518.046 452.065 519.724 453.114 520.919 455.081C522.276 457.32 522.179 459.319 522.179 459.319C522.179 459.319 512.773 462.181 508.935 455.121C506.898 451.374 502.119 451.816 501.835 448.764C501.663 446.921 502.388 442.049 502.388 442.049C502.388 442.049 504.605 443.509 509.116 443.509C511.111 443.509 511.687 442.486 511.687 442.486C511.695 442.487 511.632 445.154 515.438 449.255Z" fill="#212121"/>
<path d="M501.637 244.187C501.637 244.187 501.581 244.933 501.481 246.267C500.648 256.954 496.805 305.364 494.939 310.99C494.939 310.99 494.761 310.412 494.462 309.356C494.006 307.754 493.251 305.063 492.34 301.671C488.042 285.457 480.39 253.129 485.732 245.955C485.954 245.633 486.22 245.366 486.51 245.155L486.544 243.654L486.252 241.057C489.529 241.78 494.882 241.113 500.09 239.723L501.248 243.309L501.637 244.187Z" fill="#424242"/>
<path d="M523.935 286.215C523.892 295.979 523.16 313.69 519.406 319.131V324.692L470.218 324.303V318.743C466.427 317.026 464.542 302.128 463.988 296.757C462.821 285.258 463.052 257.087 466.965 255.098C471.555 252.765 476.423 250.209 485.589 245.824C485.928 245.661 486.2 245.39 486.511 245.156C486.511 245.156 487.521 246.602 489.565 246.59L493.663 304.463C493.663 304.463 498.728 289.75 497.984 246.646C500.904 246.412 501.637 244.188 501.637 244.188C501.637 244.188 502.237 244.265 503.203 244.41C506.169 244.855 518.543 248.834 518.297 250.182C521.286 250.672 524.007 270.147 523.935 286.215Z" fill="#FFC71C"/>
<path d="M503.203 244.41C502.826 244.933 502.248 245.633 501.482 246.267C500.815 246.812 500.016 247.301 499.105 247.557C499.427 270.622 496.74 290.15 495.129 301.871L494.762 304.573L494.463 309.355L493.874 323.256L491.664 323.267C491.664 323.267 492.249 312.946 492.542 304.428L492.342 301.669L488.521 247.555C487.432 247.266 486.456 246.576 485.734 245.954C485.679 245.898 485.634 245.865 485.589 245.82C485.9 245.609 486.2 245.386 486.511 245.152L486.544 243.651C487.211 244.351 488.521 245.519 489.554 245.475H490.598L494.007 293.583C495.562 281.484 497.195 265.459 496.873 246.654L496.85 245.609L497.894 245.531C499.405 245.409 500.604 244.152 501.248 243.307L501.637 244.186C501.637 244.187 502.237 244.266 503.203 244.41Z" fill="#F9A825"/>
<path d="M514.426 311.076C506.584 307.298 506.493 294.773 506.493 294.242L508.361 294.241C508.361 294.36 508.453 306.124 515.236 309.39L514.426 311.076Z" fill="#F9A825"/>
<path d="M471.356 311.454L470.317 309.9C476.568 305.704 474.995 294.046 474.977 293.929L476.826 293.665C476.901 294.191 478.585 306.601 471.356 311.454Z" fill="#F9A825"/>
<path d="M470.218 318.742V326.526L519.407 326.916V319.131" fill="#F9A825"/>
<path d="M444.445 288.553C446.53 291.23 447.266 292.811 446.834 295.304C446.53 297.059 445.866 300.217 442.118 300.028C439.725 299.906 436.764 299.359 433.955 298.251C432.474 297.667 427.657 294.993 427.112 290.864C426.797 288.481 427.181 283.306 430.38 283.306C432.263 283.306 434.581 287.81 438.219 287.118C439.543 286.867 436.941 283.87 438.396 283.161C440.03 282.364 442.034 285.457 444.445 288.553Z" fill="#966338"/>
<path d="M490.466 436.181C490.466 436.181 482.169 439.263 474.615 436.181C473.24 433.888 474.22 431.8 474.22 431.8C474.22 431.8 484.287 433.464 490.921 432.074C492.442 433.818 490.466 436.181 490.466 436.181Z" fill="#BDBDBD"/>
<path d="M515.267 436.181C506.123 438.984 499.415 436.181 499.415 436.181C499.415 436.181 497.426 433.476 498.932 431.8C507.982 433.653 515.618 432.322 515.618 432.322C515.618 432.322 516.465 433.98 515.267 436.181Z" fill="#BDBDBD"/>
<path d="M550.727 259.034L552.025 258.663C551.118 255.49 547.799 253.71 547.658 253.637L547.029 254.832C547.058 254.847 549.981 256.424 550.727 259.034Z" fill="#43A047"/>
<path d="M538.027 253.122C538.027 253.122 539.45 252.79 540.973 251.796C542.496 250.802 546.166 250.471 548.647 252.362C551.173 254.288 549.356 258.024 546.972 258.024C544.58 258.024 543.72 256.238 543.388 255.045C543.058 253.852 542.363 252.791 538.027 253.122Z" fill="#43A047"/>
<path d="M567.789 265.972C567.789 265.972 565.984 264.693 565.038 263.271C563.392 260.796 557.7 260.126 554.476 262.325C551.193 264.563 553.564 269.348 556.542 269.507C559.53 269.666 561.274 268.467 562.291 267.299C563.462 265.955 565.452 265.414 567.789 265.972Z" fill="#2E7D32"/>
<path d="M549.834 268.951L548.566 268.487C549.299 266.478 553.422 265.884 554.241 265.785L554.403 267.127C552.756 267.326 550.164 268.045 549.834 268.951Z" fill="#2E7D32"/>
<path d="M570.951 247.146C569.674 247.509 568.266 248.139 566.984 248.811C565.686 249.503 564.433 250.292 563.238 251.165C560.858 252.926 558.704 255.011 556.847 257.34C553.098 261.991 550.557 267.562 548.98 273.361C547.507 279.233 546.237 285.232 545.388 291.231C544.967 294.242 544.754 297.249 544.43 300.332C544.145 303.431 543.4 306.54 542.428 309.48L540.416 308.786C541.436 305.95 542.211 303.098 542.567 300.11C542.924 297.119 543.19 294.026 543.658 290.985C544.57 284.882 545.849 278.906 547.338 272.918C548.904 266.92 551.536 261.134 555.372 256.174C557.277 253.689 559.516 251.453 562.002 249.523C563.244 248.555 564.555 247.672 565.929 246.884C567.331 246.105 568.696 245.416 570.343 244.889L570.951 247.146Z" fill="#388E3C"/>
<path d="M561.827 234.074C560.256 236.645 558.896 239.598 557.667 242.496C556.455 245.428 555.346 248.413 554.339 251.434C552.333 257.483 550.703 263.651 549.248 269.878C547.798 276.112 546.401 282.353 545.104 288.627C543.793 294.884 542.462 301.23 540.391 307.366L538.38 306.672C539.449 303.681 540.382 300.654 541.19 297.579C541.985 294.499 542.67 291.376 543.369 288.252C544.76 282 546.116 275.729 547.601 269.492C549.054 263.246 550.631 256.998 552.592 250.865C553.551 247.791 554.616 244.746 555.791 241.736C556.979 238.708 558.184 235.769 559.86 232.817L561.827 234.074Z" fill="#43A047"/>
<path d="M545.53 235.179C545.892 236.787 546.168 238.327 546.429 239.9C546.691 241.467 546.904 243.036 547.114 244.604C547.53 247.741 547.84 250.886 548.063 254.034C548.567 260.328 548.681 266.635 548.593 272.941C548.499 279.249 547.967 285.556 547.149 291.814C546.362 298.067 545.95 302.409 545.979 308.507H543.566C543.626 305.272 544.696 294.661 545.149 291.566C545.614 288.473 545.96 285.37 546.205 282.258C546.47 279.148 546.599 276.028 546.673 272.907C546.684 271.345 546.735 269.785 546.692 268.223L546.657 265.879L546.579 263.537C546.47 260.415 546.283 257.296 545.995 254.187C545.704 251.078 545.326 247.978 544.844 244.895C544.597 243.355 544.321 241.82 544.012 240.295C543.71 238.777 543.366 237.232 542.963 235.786L545.53 235.179Z" fill="#66BB6A"/>
<path d="M529.803 262.098C529.803 262.098 532.417 260.923 533.929 259.468C535.905 257.569 540.694 257.438 543.556 259.621C546.471 261.843 544.702 265.932 541.951 265.932C539.191 265.932 537.825 263.735 536.945 262.609C535.933 261.314 534.19 261.201 529.803 262.098Z" fill="#66BB6A"/>
<path d="M548.301 266.282L546.951 266.252C546.976 265.118 544.68 263.723 543.563 263.225L544.112 261.991C544.547 262.184 548.353 263.951 548.301 266.282Z" fill="#66BB6A"/>
<path d="M543.648 226.768C543.27 223.961 541.326 222.614 541.326 222.614C541.326 222.614 539.811 224.458 540.185 227.235L540.938 232.83L544.402 232.363L543.648 226.768Z" fill="#FF8F00"/>
<path d="M542.666 245.663C543.044 248.47 544.988 249.816 544.988 249.816C544.988 249.816 546.502 247.972 546.129 245.195L545.375 239.6L541.912 240.068L542.666 245.663Z" fill="#FF8F00"/>
<path d="M536.832 229.188C534.583 227.471 532.257 227.895 532.257 227.895C532.257 227.895 532.488 230.271 534.714 231.97L539.198 235.393L541.316 232.61L536.832 229.188Z" fill="#FF8F00"/>
<path d="M549.481 243.243C551.73 244.961 554.056 244.536 554.056 244.536C554.056 244.536 553.826 242.16 551.6 240.462L547.116 237.038L544.997 239.821L549.481 243.243Z" fill="#FF8F00"/>
<path d="M536.139 242.548C534.423 244.801 534.847 247.13 534.847 247.13C534.847 247.13 537.22 246.899 538.917 244.67L542.335 240.18L539.556 238.059L536.139 242.548Z" fill="#FF8F00"/>
<path d="M550.175 229.883C551.89 227.63 551.466 225.301 551.466 225.301C551.466 225.301 549.094 225.532 547.397 227.761L543.979 232.251L546.757 234.373L550.175 229.883Z" fill="#FF8F00"/>
<path d="M533.722 235.724C530.919 236.103 529.574 238.049 529.574 238.049C529.574 238.049 531.416 239.566 534.189 239.192L539.777 238.437L539.31 234.969L533.722 235.724Z" fill="#FF8F00"/>
<path d="M552.591 236.708C555.394 236.329 556.739 234.382 556.739 234.382C556.739 234.382 554.898 232.866 552.124 233.24L546.537 233.994L547.004 237.462L552.591 236.708Z" fill="#FF8F00"/>
<path d="M547.149 227.643C547.851 224.898 546.552 222.92 546.552 222.92C546.552 222.92 544.457 224.061 543.764 226.775L542.367 232.245L545.752 233.112L547.149 227.643Z" fill="#FFB300"/>
<path d="M539.164 244.79C538.464 247.534 539.762 249.512 539.762 249.512C539.762 249.512 541.856 248.372 542.55 245.657L543.947 240.188L540.562 239.321L539.164 244.79Z" fill="#FFB300"/>
<path d="M539.926 227.327C538.483 224.89 536.169 224.41 536.169 224.41C536.169 224.41 535.493 226.7 536.92 229.111L539.795 233.967L542.801 232.183L539.926 227.327Z" fill="#FFB300"/>
<path d="M546.387 245.105C547.83 247.541 550.145 248.021 550.145 248.021C550.145 248.021 550.821 245.731 549.393 243.321L546.518 238.464L543.512 240.248L546.387 245.105Z" fill="#FFB300"/>
<path d="M534.28 239.451C531.846 240.895 531.367 243.213 531.367 243.213C531.367 243.213 533.654 243.89 536.061 242.461L540.911 239.582L539.129 236.572L534.28 239.451Z" fill="#FFB300"/>
<path d="M552.034 232.981C554.467 231.536 554.946 229.218 554.946 229.218C554.946 229.218 552.66 228.541 550.252 229.971L545.402 232.85L547.184 235.859L552.034 232.981Z" fill="#FFB300"/>
<path d="M534.595 232.218C531.855 231.515 529.879 232.816 529.879 232.816C529.879 232.816 531.018 234.913 533.729 235.608L539.191 237.007L540.057 233.616L534.595 232.218Z" fill="#FFB300"/>
<path d="M551.719 240.214C554.46 240.916 556.436 239.615 556.436 239.615C556.436 239.615 555.296 237.518 552.586 236.823L547.123 235.425L546.258 238.815L551.719 240.214Z" fill="#FFB300"/>
<path d="M543.157 241.541C546.094 241.541 548.474 239.157 548.474 236.216C548.474 233.275 546.094 230.891 543.157 230.891C540.22 230.891 537.839 233.275 537.839 236.216C537.839 239.157 540.22 241.541 543.157 241.541Z" fill="#616161"/>
<path d="M559.919 225.861C559.541 223.054 557.597 221.707 557.597 221.707C557.597 221.707 556.083 223.551 556.456 226.328L557.21 231.923L560.673 231.456L559.919 225.861Z" fill="#FF8F00"/>
<path d="M558.937 244.755C559.315 247.562 561.259 248.908 561.259 248.908C561.259 248.908 562.774 247.064 562.4 244.288L561.647 238.693L558.184 239.16L558.937 244.755Z" fill="#FF8F00"/>
<path d="M553.104 228.28C550.855 226.563 548.529 226.987 548.529 226.987C548.529 226.987 548.759 229.363 550.985 231.062L555.469 234.485L557.588 231.702L553.104 228.28Z" fill="#FF8F00"/>
<path d="M565.753 242.335C568.002 244.053 570.328 243.628 570.328 243.628C570.328 243.628 570.097 241.253 567.871 239.554L563.387 236.131L561.269 238.913L565.753 242.335Z" fill="#FF8F00"/>
<path d="M552.41 241.641C550.695 243.893 551.12 246.222 551.12 246.222C551.12 246.222 553.493 245.991 555.189 243.762L558.608 239.272L555.829 237.151L552.41 241.641Z" fill="#FF8F00"/>
<path d="M566.446 228.975C568.162 226.723 567.738 224.394 567.738 224.394C567.738 224.394 565.365 224.624 563.668 226.854L560.25 231.343L563.029 233.465L566.446 228.975Z" fill="#FF8F00"/>
<path d="M549.994 234.816C547.191 235.195 545.846 237.141 545.846 237.141C545.846 237.141 547.687 238.658 550.461 238.284L556.048 237.529L555.581 234.061L549.994 234.816Z" fill="#FF8F00"/>
<path d="M568.863 235.8C571.666 235.421 573.011 233.474 573.011 233.474C573.011 233.474 571.169 231.958 568.396 232.332L562.809 233.086L563.275 236.554L568.863 235.8Z" fill="#FF8F00"/>
<path d="M563.421 226.735C564.122 223.99 562.823 222.012 562.823 222.012C562.823 222.012 560.729 223.153 560.035 225.867L558.638 231.337L562.023 232.203L563.421 226.735Z" fill="#FFB300"/>
<path d="M555.436 243.882C554.735 246.626 556.033 248.604 556.033 248.604C556.033 248.604 558.128 247.464 558.821 244.749L560.218 239.28L556.833 238.413L555.436 243.882Z" fill="#FFB300"/>
<path d="M556.198 226.419C554.755 223.982 552.44 223.502 552.44 223.502C552.44 223.502 551.764 225.792 553.192 228.203L556.067 233.059L559.073 231.275L556.198 226.419Z" fill="#FFB300"/>
<path d="M562.659 244.198C564.102 246.634 566.417 247.114 566.417 247.114C566.417 247.114 567.093 244.824 565.665 242.414L562.79 237.557L559.784 239.341L562.659 244.198Z" fill="#FFB300"/>
<path d="M550.55 238.543C548.117 239.987 547.638 242.305 547.638 242.305C547.638 242.305 549.925 242.982 552.332 241.553L557.182 238.674L555.4 235.664L550.55 238.543Z" fill="#FFB300"/>
<path d="M568.306 232.073C570.739 230.628 571.218 228.31 571.218 228.31C571.218 228.31 568.931 227.633 566.524 229.063L561.674 231.942L563.456 234.952L568.306 232.073Z" fill="#FFB300"/>
<path d="M550.866 231.31C548.125 230.608 546.149 231.908 546.149 231.908C546.149 231.908 547.289 234.005 549.999 234.7L555.462 236.099L556.327 232.708L550.866 231.31Z" fill="#FFB300"/>
<path d="M567.99 239.306C570.73 240.008 572.706 238.707 572.706 238.707C572.706 238.707 571.567 236.61 568.856 235.915L563.394 234.517L562.528 237.907L567.99 239.306Z" fill="#FFB300"/>
<path d="M559.428 240.633C562.365 240.633 564.746 238.249 564.746 235.308C564.746 232.367 562.365 229.983 559.428 229.983C556.491 229.983 554.111 232.367 554.111 235.308C554.111 238.249 556.491 240.633 559.428 240.633Z" fill="#616161"/>
<path d="M571.713 237.505C571.335 234.698 569.391 233.352 569.391 233.352C569.391 233.352 567.877 235.196 568.25 237.973L569.004 243.568L572.467 243.1L571.713 237.505Z" fill="#FF8F00"/>
<path d="M570.732 256.4C571.11 259.206 573.054 260.553 573.054 260.553C573.054 260.553 574.569 258.709 574.196 255.932L573.442 250.337L569.979 250.805L570.732 256.4Z" fill="#FF8F00"/>
<path d="M564.899 239.925C562.65 238.207 560.324 238.632 560.324 238.632C560.324 238.632 560.554 241.008 562.78 242.707L567.264 246.13L569.383 243.347L564.899 239.925Z" fill="#FF8F00"/>
<path d="M577.548 253.981C579.797 255.698 582.123 255.274 582.123 255.274C582.123 255.274 581.893 252.898 579.666 251.199L575.183 247.775L573.064 250.558L577.548 253.981Z" fill="#FF8F00"/>
<path d="M564.205 253.285C562.49 255.537 562.914 257.867 562.914 257.867C562.914 257.867 565.287 257.636 566.984 255.407L570.403 250.917L567.624 248.795L564.205 253.285Z" fill="#FF8F00"/>
<path d="M578.242 240.621C579.957 238.368 579.533 236.039 579.533 236.039C579.533 236.039 577.16 236.27 575.464 238.499L572.045 242.989L574.824 245.11L578.242 240.621Z" fill="#FF8F00"/>
<path d="M561.789 246.461C558.986 246.84 557.641 248.787 557.641 248.787C557.641 248.787 559.482 250.303 562.256 249.929L567.843 249.175L567.376 245.707L561.789 246.461Z" fill="#FF8F00"/>
<path d="M580.658 247.444C583.461 247.065 584.806 245.119 584.806 245.119C584.806 245.119 582.964 243.602 580.191 243.976L574.604 244.731L575.07 248.199L580.658 247.444Z" fill="#FF8F00"/>
<path d="M575.216 238.379C575.918 235.635 574.619 233.656 574.619 233.656C574.619 233.656 572.524 234.797 571.83 237.511L570.434 242.981L573.819 243.848L575.216 238.379Z" fill="#FFB300"/>
<path d="M567.231 255.526C566.529 258.271 567.828 260.249 567.828 260.249C567.828 260.249 569.923 259.108 570.616 256.394L572.013 250.924L568.628 250.057L567.231 255.526Z" fill="#FFB300"/>
<path d="M567.993 238.063C566.55 235.627 564.235 235.147 564.235 235.147C564.235 235.147 563.559 237.437 564.987 239.847L567.862 244.704L570.868 242.92L567.993 238.063Z" fill="#FFB300"/>
<path d="M574.454 255.842C575.897 258.279 578.212 258.759 578.212 258.759C578.212 258.759 578.888 256.469 577.46 254.058L574.585 249.202L571.579 250.986L574.454 255.842Z" fill="#FFB300"/>
<path d="M562.345 250.188C559.912 251.633 559.433 253.951 559.433 253.951C559.433 253.951 561.72 254.628 564.127 253.198L568.977 250.319L567.195 247.31L562.345 250.188Z" fill="#FFB300"/>
<path d="M580.101 243.717C582.534 242.273 583.013 239.955 583.013 239.955C583.013 239.955 580.726 239.278 578.319 240.708L573.469 243.586L575.251 246.596L580.101 243.717Z" fill="#FFB300"/>
<path d="M562.661 242.954C559.92 242.252 557.945 243.553 557.945 243.553C557.945 243.553 559.084 245.65 561.794 246.345L567.257 247.743L568.123 244.353L562.661 242.954Z" fill="#FFB300"/>
<path d="M579.785 250.95C582.526 251.653 584.501 250.352 584.501 250.352C584.501 250.352 583.362 248.255 580.651 247.56L575.189 246.161L574.323 249.552L579.785 250.95Z" fill="#FFB300"/>
<path d="M571.223 252.277C574.16 252.277 576.541 249.893 576.541 246.952C576.541 244.011 574.16 241.627 571.223 241.627C568.287 241.627 565.906 244.011 565.906 246.952C565.906 249.893 568.287 252.277 571.223 252.277Z" fill="#616161"/>
<path d="M542.106 273.575C542.59 272.922 543.392 272.584 544.203 272.64C546.899 272.822 553.184 273.539 554.628 276.286C556.043 278.977 555.187 284.696 553.137 287.99C552.245 289.422 550.496 290.064 548.876 289.6L545.743 287.592C545.743 287.592 541.416 285.842 540.375 283.515C539.614 281.815 539.449 277.163 542.106 273.575Z" fill="#966338"/>
<path d="M118.167 347.383C118.167 347.383 168.075 356.733 373.5 356.733C580.793 356.733 628.833 347.383 628.833 347.383" stroke="#B0BEC5" stroke-width="12" stroke-miterlimit="10"/>
<path d="M120.035 333.064H112.469V449.735H120.035V333.064Z" fill="#90A4AE"/>
<path d="M116.252 334.326C119.734 334.326 122.557 331.5 122.557 328.013C122.557 324.526 119.734 321.7 116.252 321.7C112.77 321.7 109.947 324.526 109.947 328.013C109.947 331.5 112.77 334.326 116.252 334.326Z" fill="#90A4AE"/>
<path d="M634.532 333.064H626.966V449.735H634.532V333.064Z" fill="#90A4AE"/>
<path d="M630.748 334.326C634.23 334.326 637.053 331.5 637.053 328.013C637.053 324.526 634.23 321.7 630.748 321.7C627.266 321.7 624.444 324.526 624.444 328.013C624.444 331.5 627.266 334.326 630.748 334.326Z" fill="#90A4AE"/>
</g>
<defs>
<radialGradient id="paint0_radial" cx="0" cy="0" r="1" gradientUnits="userSpaceOnUse" gradientTransform="translate(371.251 347.827) scale(298.125 286.664)">
<stop offset="0.0031" stop-color="white" stop-opacity="0"/>
<stop offset="0.9506" stop-color="white" stop-opacity="0.8553"/>
<stop offset="1" stop-color="white"/>
</radialGradient>
<radialGradient id="paint1_radial" cx="0" cy="0" r="1" gradientUnits="userSpaceOnUse" gradientTransform="translate(371.602 347.593) scale(298.125 286.664)">
<stop offset="0.0031" stop-color="white" stop-opacity="0"/>
<stop offset="0.8167" stop-color="white" stop-opacity="0.7344"/>
<stop offset="0.9506" stop-color="white" stop-opacity="0.8553"/>
<stop offset="1" stop-color="white"/>
</radialGradient>
<linearGradient id="paint2_linear" x1="370.349" y1="468.435" x2="370.349" y2="449.735" gradientUnits="userSpaceOnUse">
<stop stop-color="white"/>
<stop offset="1" stop-color="#E0E0E0"/>
</linearGradient>
<clipPath id="clip0">
<rect width="747" height="561" fill="white"/>
</clipPath>
</defs>
</svg>
