<svg width="120" height="120" viewBox="0 0 120 120" fill="none" xmlns="http://www.w3.org/2000/svg">
<path d="M102.938 102.938H17.0625C12.2813 102.938 8.4375 99.0938 8.4375 94.3125V25.5937C8.4375 20.8125 12.2813 16.9688 17.0625 16.9688H103.031C107.812 16.9688 111.656 20.8125 111.656 25.5937V94.3125C111.562 99.0938 107.719 102.938 102.938 102.938Z" fill="white"/>
<path d="M37.2188 103.594C35.625 103.594 34.4062 102.375 34.4062 100.781V50.4375C34.4062 48.8438 35.625 47.625 37.2188 47.625C38.8125 47.625 40.0312 48.8438 40.0312 50.4375V100.875C40.0312 102.375 38.8125 103.594 37.2188 103.594Z" fill="#DEDFE6"/>
<path d="M111.562 34.2187H8.4375V25.5937C8.4375 20.8125 12.2813 16.9688 17.0625 16.9688H103.031C107.812 16.9688 111.656 20.8125 111.656 25.5937L111.562 34.2187Z" fill="#54D679"/>
<path d="M54.1875 47.1562H95.8125C97.4062 47.1562 98.625 48.375 98.625 49.9688V61.5C98.625 63.0938 97.4062 64.3125 95.8125 64.3125H54.1875C52.5938 64.3125 51.375 63.0938 51.375 61.5V49.9688C51.375 48.375 52.5938 47.1562 54.1875 47.1562Z" fill="#DEDFE6"/>
<path d="M54.1875 72.9375H65.7188C67.3125 72.9375 68.5312 74.1562 68.5312 75.75V87.2812C68.5312 88.875 67.3125 90.0937 65.7188 90.0937H54.1875C52.5938 90.0937 51.375 88.875 51.375 87.2812V75.75C51.375 74.1562 52.5938 72.9375 54.1875 72.9375Z" fill="#54D679"/>
<path d="M103.031 14.1562H17.0625C10.7813 14.1562 5.625 19.3125 5.625 25.5938V94.3125C5.625 100.594 10.7813 105.75 17.0625 105.75H102.938C109.219 105.75 114.375 100.688 114.469 94.3125V25.5938C114.469 19.3125 109.312 14.1562 103.031 14.1562ZM11.25 25.6875C11.25 22.5 13.875 19.875 17.0625 19.875V19.7813H102.938C106.125 19.7813 108.75 22.4062 108.75 25.5938V31.4062H11.25V25.6875ZM103.031 100.219H17.0625C13.875 100.219 11.25 97.5938 11.25 94.4062V37.0313H108.844V94.4062C108.844 97.5938 106.219 100.219 103.031 100.219Z" fill="#464C55"/>
<path d="M19.2188 28.875C17.4375 28.875 15.9375 27.375 15.9375 25.5938C15.9375 23.8125 17.4375 22.3125 19.2188 22.3125C21 22.3125 22.5 23.8125 22.5 25.5938C22.4062 27.375 21 28.875 19.2188 28.875Z" fill="white"/>
<path d="M27.75 28.875C25.9688 28.875 24.4688 27.375 24.4688 25.5938C24.4688 23.8125 25.9688 22.3125 27.75 22.3125C29.5312 22.3125 31.0312 23.8125 31.0312 25.5938C31.0312 27.375 29.5312 28.875 27.75 28.875Z" fill="white"/>
<path d="M36.375 28.875C34.5938 28.875 33.0938 27.375 33.0938 25.5938C33.0938 23.8125 34.5938 22.3125 36.375 22.3125C38.1562 22.3125 39.6562 23.8125 39.6562 25.5938C39.5625 27.375 38.1562 28.875 36.375 28.875Z" fill="white"/>
<path d="M94.875 78.2812H77.7187C76.125 78.2812 74.9062 77.0625 74.9062 75.4688C74.9062 73.875 76.125 72.6562 77.7187 72.6562H94.875C96.4687 72.6562 97.6875 73.875 97.6875 75.4688C97.6875 77.0625 96.4687 78.2812 94.875 78.2812Z" fill="#DEDFE6"/>
<path d="M94.875 90.2812H77.7187C76.125 90.2812 74.9062 89.0625 74.9062 87.4688C74.9062 85.875 76.125 84.6562 77.7187 84.6562H94.875C96.4687 84.6562 97.6875 85.875 97.6875 87.4688C97.6875 89.0625 96.4687 90.2812 94.875 90.2812Z" fill="#DEDFE6"/>
</svg>
