<svg width="128" height="128" viewBox="0 0 128 128" fill="none" xmlns="http://www.w3.org/2000/svg">
<path d="M109.8 109.8H18.2C13.1 109.8 9 105.7 9 100.6V27.3001C9 22.2001 13.1 18.1001 18.2 18.1001H109.9C115 18.1001 119.1 22.2001 119.1 27.3001V100.6C119 105.7 114.9 109.8 109.8 109.8Z" fill="white"/>
<path d="M39.7002 110.5C38.0002 110.5 36.7002 109.2 36.7002 107.5V53.8C36.7002 52.1 38.0002 50.8 39.7002 50.8C41.4002 50.8 42.7002 52.1 42.7002 53.8V107.6C42.7002 109.2 41.4002 110.5 39.7002 110.5Z" fill="#DEDFE6"/>
<path d="M119 36.5001H9V27.3001C9 22.2001 13.1 18.1001 18.2 18.1001H109.9C115 18.1001 119.1 22.2001 119.1 27.3001L119 36.5001Z" fill="#A8B2C6"/>
<path d="M57.7998 50.3H102.2C103.9 50.3 105.2 51.6 105.2 53.3V65.6C105.2 67.3 103.9 68.6 102.2 68.6H57.7998C56.0998 68.6 54.7998 67.3 54.7998 65.6V53.3C54.7998 51.6 56.0998 50.3 57.7998 50.3Z" fill="#DEDFE6"/>
<path d="M57.7998 77.8H70.0998C71.7998 77.8 73.0998 79.1 73.0998 80.8V93.1C73.0998 94.8 71.7998 96.1 70.0998 96.1H57.7998C56.0998 96.1 54.7998 94.8 54.7998 93.1V80.8C54.7998 79.1 56.0998 77.8 57.7998 77.8Z" fill="#D3B3D5"/>
<path d="M109.9 15.1001H18.2C11.5 15.1001 6 20.6001 6 27.3001V100.6C6 107.3 11.5 112.8 18.2 112.8H109.8C116.5 112.8 122 107.4 122.1 100.6V27.3001C122.1 20.6001 116.6 15.1001 109.9 15.1001ZM12 27.4001C12 24.0001 14.8 21.2001 18.2 21.2001V21.1001H109.8C113.2 21.1001 116 23.9001 116 27.3001V33.5001H12V27.4001ZM109.9 106.9H18.2C14.8 106.9 12 104.1 12 100.7V39.5001H116.1V100.7C116.1 104.1 113.3 106.9 109.9 106.9Z" fill="#464C55"/>
<path d="M20.5 30.8C18.6 30.8 17 29.2 17 27.3C17 25.4 18.6 23.8 20.5 23.8C22.4 23.8 24 25.4 24 27.3C23.9 29.2 22.4 30.8 20.5 30.8Z" fill="white"/>
<path d="M29.5996 30.8C27.6996 30.8 26.0996 29.2 26.0996 27.3C26.0996 25.4 27.6996 23.8 29.5996 23.8C31.4996 23.8 33.0996 25.4 33.0996 27.3C33.0996 29.2 31.4996 30.8 29.5996 30.8Z" fill="white"/>
<path d="M38.7998 30.8C36.8998 30.8 35.2998 29.2 35.2998 27.3C35.2998 25.4 36.8998 23.8 38.7998 23.8C40.6998 23.8 42.2998 25.4 42.2998 27.3C42.1998 29.2 40.6998 30.8 38.7998 30.8Z" fill="white"/>
<path d="M101.2 83.5H82.9004C81.2004 83.5 79.9004 82.2 79.9004 80.5C79.9004 78.8 81.2004 77.5 82.9004 77.5H101.2C102.9 77.5 104.2 78.8 104.2 80.5C104.2 82.2 102.9 83.5 101.2 83.5Z" fill="#DEDFE6"/>
<path d="M101.2 96.3H82.9004C81.2004 96.3 79.9004 95 79.9004 93.3C79.9004 91.6 81.2004 90.3 82.9004 90.3H101.2C102.9 90.3 104.2 91.6 104.2 93.3C104.2 95 102.9 96.3 101.2 96.3Z" fill="#DEDFE6"/>
</svg>
